<svg xmlns="http://www.w3.org/2000/svg" viewBox="0.0 0.0 256.0 256.0" height="256.0px" width="256.0px"><path fill="#382C4D" fill-opacity="1.0"  filling="0" d="M120.69734191894531 34.414588928222656 C121.79481506347656 33.15481185913086 122.65203094482422 31.789051055908203 123.26242065429688 30.398418426513672 C123.87281799316406 29.00778579711914 124.23638153076172 27.592281341552734 124.34656524658203 26.233016967773438 C124.45674133300781 24.87375259399414 124.31352233886719 23.570730209350586 123.91034698486328 22.405059814453125 C123.50717163085938 21.23938751220703 122.84403228759766 20.211069107055664 121.91436767578125 19.401214599609375 C120.98470306396484 18.59135627746582 119.87516784667969 18.075450897216797 118.66520690917969 17.835874557495117 C117.45524597167969 17.596298217773438 116.14485931396484 17.63304901123047 114.8134994506836 17.928504943847656 C113.48213958740234 18.223960876464844 112.12980651855469 18.778121948242188 110.8359375 19.573360443115234 C109.54207611083984 20.368600845336914 108.30668640136719 21.40492057800293 107.20921325683594 22.664695739746094 C106.13951873779297 23.892601013183594 105.29820251464844 25.221113204956055 104.69129180908203 26.575170516967773 C104.08438110351562 27.92922592163086 103.71186828613281 29.308826446533203 103.57977294921875 30.638906478881836 C103.44767761230469 31.96898651123047 103.55599975585938 33.24954605102539 103.91075134277344 34.405521392822266 C104.2655029296875 35.561500549316406 104.86668395996094 36.592891693115234 105.72032165527344 37.42463684082031 L102.60469818115234 41.001163482666016 L99.48907470703125 44.57768630981445 L96.37345886230469 48.154212951660156 L93.2578353881836 51.730735778808594 L90.1422119140625 55.30725860595703 C89.73004150390625 55.78034973144531 89.23699188232422 56.176124572753906 88.68608093261719 56.47615051269531 L86.35135650634766 57.74694061279297 L87.47929382324219 58.729461669921875 L87.67845916748047 58.903038024902344 L88.806396484375 59.88555908203125 L89.7448959350586 57.398780822753906 C89.96659088134766 56.81202697753906 90.29068756103516 56.26879119873047 90.70285034179688 55.79570770263672 L93.81847381591797 52.21918487548828 L96.93409729003906 48.64265823364258 L100.04971313476562 45.06613540649414 L103.16534423828125 41.48960876464844 L106.28096008300781 37.9130859375 C107.22175598144531 38.64460754394531 108.32575988769531 39.09868621826172 109.51941680908203 39.29158020019531 C110.71307373046875 39.48447799682617 111.99638366699219 39.41618728637695 113.29580688476562 39.10297393798828 C114.59523010253906 38.789756774902344 115.9107666015625 38.23161315917969 117.16887664794922 37.44479751586914 C118.4269790649414 36.657981872558594 119.62764739990234 35.642494201660156 120.69734191894531 34.414588928222656 M107.75654602050781 23.141372680664062 C108.78822326660156 21.956989288330078 109.94557189941406 20.979198455810547 111.1546630859375 20.225236892700195 C112.36376190185547 19.471277236938477 113.6246109008789 18.94114875793457 114.86329650878906 18.6520938873291 C116.10198974609375 18.363037109375 117.31851196289062 18.315052032470703 118.43897247314453 18.525379180908203 C119.5594253540039 18.735708236694336 120.58380889892578 19.204347610473633 121.4382095336914 19.94853973388672 C122.29235076904297 20.692602157592773 122.89686584472656 21.642906188964844 123.25869750976562 22.72385025024414 C123.62052917480469 23.804794311523438 123.73968505859375 25.01637840270996 123.62310791015625 26.283004760742188 C123.50653076171875 27.54962921142578 123.15422821044922 28.871294021606445 122.5731430053711 30.17239761352539 C121.9920654296875 31.47350311279297 121.18220520019531 32.75404739379883 120.15052795410156 33.93843078613281 C119.11885070800781 35.122684478759766 117.96150207519531 36.10041046142578 116.75241088867188 36.85435485839844 C115.54331970214844 37.608299255371094 114.2824935913086 38.138458251953125 113.04383087158203 38.42757797241211 C111.80517578125 38.716697692871094 110.58869934082031 38.76477813720703 109.46831512451172 38.554561614990234 C108.34793090820312 38.3443489074707 107.32364654541016 37.87583923339844 106.46937561035156 37.13177490234375 C105.61510467529297 36.387454986572266 105.010498046875 35.436988830566406 104.64859008789062 34.35594940185547 C104.28668975830078 33.27490997314453 104.16748809814453 32.06329345703125 104.2840347290039 30.796669006347656 C104.40057373046875 29.530044555664062 104.75286865234375 28.208412170410156 105.33393859863281 26.90734100341797 C105.91500854492188 25.60626792907715 106.72486877441406 24.325756072998047 107.75654602050781 23.141372680664062"></path>
<path fill="#E8E6ED" fill-opacity="1.0"  filling="0" d="M107.75654602050781 23.141372680664062 C108.78822326660156 21.956989288330078 109.94557189941406 20.979198455810547 111.1546630859375 20.225236892700195 C112.36376190185547 19.471277236938477 113.6246109008789 18.94114875793457 114.86329650878906 18.6520938873291 C116.10198974609375 18.363037109375 117.31851196289062 18.315052032470703 118.43897247314453 18.525379180908203 C119.5594253540039 18.735708236694336 120.58380889892578 19.204347610473633 121.4382095336914 19.94853973388672 C122.29235076904297 20.692602157592773 122.89686584472656 21.642906188964844 123.25869750976562 22.72385025024414 C123.62052917480469 23.804794311523438 123.73968505859375 25.01637840270996 123.62310791015625 26.283004760742188 C123.50653076171875 27.54962921142578 123.15422821044922 28.871294021606445 122.5731430053711 30.17239761352539 C121.9920654296875 31.47350311279297 121.18220520019531 32.75404739379883 120.15052795410156 33.93843078613281 C119.11885070800781 35.122684478759766 117.96150207519531 36.10041046142578 116.75241088867188 36.85435485839844 C115.54331970214844 37.608299255371094 114.2824935913086 38.138458251953125 113.04383087158203 38.42757797241211 C111.80517578125 38.716697692871094 110.58869934082031 38.76477813720703 109.46831512451172 38.554561614990234 C108.34793090820312 38.3443489074707 107.32364654541016 37.87583923339844 106.46937561035156 37.13177490234375 C105.61510467529297 36.387454986572266 105.010498046875 35.436988830566406 104.64859008789062 34.35594940185547 C104.28668975830078 33.27490997314453 104.16748809814453 32.06329345703125 104.2840347290039 30.796669006347656 C104.40057373046875 29.530044555664062 104.75286865234375 28.208412170410156 105.33393859863281 26.90734100341797 C105.91500854492188 25.60626792907715 106.72486877441406 24.325756072998047 107.75654602050781 23.141372680664062"></path>
<path fill="#C7C1D3" fill-opacity="1.0"  filling="0" d="M86.35801696777344 57.75001525878906 L83.6481704711914 60.85871124267578 L80.93832397460938 63.9674072265625 L78.22846984863281 67.07609558105469 C77.63711547851562 67.75346374511719 77.70674896240234 68.78157043457031 78.38412475585938 69.3729248046875 C79.06150817871094 69.96428680419922 80.089599609375 69.8946533203125 80.68095397949219 69.21727752685547 L83.39063262939453 66.10858154296875 L86.10031127929688 62.99989318847656 L88.80998229980469 59.891197204589844 L86.35801696777344 57.75001525878906"></path>
<path fill="#E9B585" fill-opacity="1.0"  filling="0" d="M171.91065979003906 41.59590148925781 C172.06629943847656 41.500152587890625 172.173828125 41.343994140625 172.20404052734375 41.163780212402344 C172.28134155273438 40.70348358154297 171.8481903076172 40.323585510253906 171.40223693847656 40.46131134033203 C170.7448272705078 40.664573669433594 169.21292114257812 41.26719665527344 168.20838928222656 42.099708557128906 C167.25811767578125 42.88742446899414 166.869384765625 44.729087829589844 166.7182159423828 46.37382125854492 C166.56704711914062 48.0185546875 166.6534423828125 49.46636199951172 166.6534423828125 49.46636199951172 C166.63551330566406 50.318328857421875 166.24485778808594 51.10015106201172 165.59616088867188 51.6285400390625 C164.30233764648438 52.68216323852539 162.80543518066406 53.84160232543945 161.1898651123047 55.05512619018555 C159.5742950439453 56.268646240234375 157.84007263183594 57.53624725341797 156.07162475585938 58.80619430541992 C154.3031768798828 60.076141357421875 152.50048828125 61.34843444824219 150.7480010986328 62.57133483886719 C148.99551391601562 63.79423522949219 147.29324340820312 64.96774291992188 145.72560119628906 66.04013061523438 C144.157958984375 67.11251068115234 142.7249298095703 68.08377075195312 141.510986328125 68.90216064453125 C140.29702758789062 69.72055053710938 139.3021240234375 70.3860855102539 138.6107177734375 70.84701538085938 C137.9193115234375 71.30795288085938 137.53138732910156 71.56428527832031 137.53138732910156 71.56428527832031 L139.6374969482422 74.392578125 L141.7436065673828 77.22086334228516 C143.19967651367188 76.36377716064453 144.7132568359375 75.35414123535156 146.24725341796875 74.24349212646484 C147.78123474121094 73.13284301757812 149.3356170654297 71.92118072509766 150.87327575683594 70.66002655029297 C152.41091918945312 69.39887237548828 153.93182373046875 68.0882339477539 155.39886474609375 66.77963256835938 C156.86590576171875 65.47103118896484 158.27906799316406 64.16447448730469 159.60122680664062 62.91148376464844 C160.9233856201172 61.65849304199219 162.154541015625 60.459068298339844 163.25755310058594 59.364742279052734 C164.36058044433594 58.27041244506836 165.33546447753906 57.28118133544922 166.1450653076172 56.44857406616211 C166.95468139648438 55.615966796875 167.59902954101562 54.939979553222656 168.0409698486328 54.47214889526367 C168.48291015625 54.00431823730469 168.72244262695312 53.74463653564453 168.72244262695312 53.74463653564453 C168.72244262695312 53.74463653564453 169.07310485839844 53.36979675292969 169.5591278076172 52.65489196777344 C170.04513549804688 51.93998718261719 170.66651916503906 50.8850212097168 171.20794677734375 49.5247688293457 C171.74937438964844 48.164520263671875 172.2108612060547 46.498985290527344 172.37709045410156 44.56294250488281 C172.4021759033203 44.27161407470703 172.25318908691406 43.99768829345703 171.97056579589844 43.92344665527344 C171.7012481689453 43.85279083251953 171.38687133789062 43.979774475097656 171.31674194335938 44.24909210205078 C170.9276123046875 45.74053955078125 169.95993041992188 46.81779479980469 169.95993041992188 46.81779479980469 C169.35833740234375 45.44255828857422 169.63839721679688 44.26457214355469 170.17266845703125 43.36665344238281 C170.70693969726562 42.46873474121094 171.49542236328125 41.85087966918945 171.91065979003906 41.59590148925781"></path>
<path fill="#E9B585" fill-opacity="1.0"  filling="0" d="M119.20486450195312 145.13255310058594 C119.20486450195312 145.13255310058594 119.2226791381836 145.5247802734375 119.27127838134766 146.24960327148438 C119.31986999511719 146.97442626953125 119.39924621582031 148.03182983398438 119.52235412597656 149.3621826171875 C119.64546203613281 150.69253540039062 119.81230926513672 152.2958221435547 120.03585052490234 154.11239624023438 C120.2593994140625 155.92898559570312 120.53963470458984 157.9588623046875 120.8895263671875 160.14239501953125 C121.23942565917969 162.325927734375 121.65898132324219 164.6630859375 122.16114807128906 167.09426879882812 C122.16114807128906 167.09426879882812 121.69957733154297 167.09854125976562 120.89279174804688 167.1421356201172 C120.08600616455078 167.18572998046875 118.93400573730469 167.2686767578125 117.55313110351562 167.42601013183594 C116.17225646972656 167.58334350585938 114.56251525878906 167.81507873535156 112.84025573730469 168.15628051757812 C111.11799621582031 168.4974822998047 109.28321075439453 168.9481658935547 107.45226287841797 169.54336547851562 C105.6213150024414 170.13858032226562 103.79419708251953 170.87832641601562 102.0872573852539 171.79766845703125 C100.38031768798828 172.71701049804688 98.79356384277344 173.81597900390625 97.44332885742188 175.1295928955078 L97.98297119140625 178.65113830566406 L100.12210845947266 178.7519989013672 C100.12210845947266 178.7519989013672 100.30382537841797 178.6794891357422 100.6957015991211 178.54808044433594 C101.08757019042969 178.4166717529297 101.6895980834961 178.22634887695312 102.53022003173828 177.99073791503906 C103.37083435058594 177.75511169433594 104.4500503540039 177.47418212890625 105.7962875366211 177.16152954101562 C107.14252471923828 176.84889221191406 108.75579833984375 176.50454711914062 110.66453552246094 176.14208984375 C112.57327270507812 175.77963256835938 114.77747344970703 175.3990478515625 117.30558013916016 175.01397705078125 C119.83368682861328 174.62890625 122.68569946289062 174.23931884765625 125.89004516601562 173.8588104248047 C127.45318603515625 173.6732177734375 128.76019287109375 172.80332946777344 129.71961975097656 171.5887451171875 C130.67904663085938 170.3741455078125 131.29087829589844 168.81484985351562 131.46368408203125 167.2504425048828 C131.5977325439453 166.03587341308594 131.7325439453125 164.6608428955078 131.85008239746094 163.17471313476562 C131.96762084960938 161.68858337402344 132.06787109375 160.0913543701172 132.1327667236328 158.43238830566406 C132.19766235351562 156.77342224121094 132.2272186279297 155.05271911621094 132.20335388183594 153.31964111328125 C132.17950439453125 151.5865478515625 132.10223388671875 149.84109497070312 131.95347595214844 148.1326141357422 C131.8047332763672 146.42413330078125 131.58450317382812 144.75262451171875 131.27474975585938 143.16748046875 L127.25145721435547 143.822509765625 L123.22816467285156 144.4775390625 L119.20486450195312 145.13255310058594"></path>
<path fill="#382C4D" fill-opacity="1.0"  filling="0" d="M116.8215103149414 127.4936294555664 C116.8215103149414 127.4936294555664 116.67674255371094 127.93958282470703 116.51708984375 128.74444580078125 C116.3574447631836 129.54931640625 116.18291473388672 130.71311950683594 116.1233901977539 132.1488037109375 C116.06387329101562 133.58447265625 116.11935424804688 135.29205322265625 116.41973876953125 137.18447875976562 C116.72012329101562 139.076904296875 117.26541137695312 141.1541748046875 118.18547058105469 143.32928466796875 C118.18547058105469 143.32928466796875 118.75094604492188 143.11367797851562 119.84097290039062 142.85287475585938 C120.93099975585938 142.59207153320312 122.54558563232422 142.2860870361328 124.643798828125 142.10533142089844 C126.74201965332031 141.92457580566406 129.32386779785156 141.86904907226562 132.34841918945312 142.10919189453125 L133.80966186523438 138.03622436523438 C133.80966186523438 138.03622436523438 134.24395751953125 138.36544799804688 135.0531768798828 138.9063720703125 C135.86239624023438 139.44729614257812 137.04652404785156 140.19993591308594 138.54617309570312 141.04678344726562 C138.54617309570312 141.04678344726562 138.8561248779297 140.7581787109375 139.48141479492188 140.28831481933594 C140.10670471191406 139.81846618652344 141.0473175048828 139.1673583984375 142.3086700439453 138.44236755371094 C143.57000732421875 137.71737670898438 145.15208435058594 136.91848754882812 147.06024169921875 136.15309143066406 C148.96841430664062 135.38768005371094 151.20269775390625 134.65573120117188 153.76844787597656 134.06463623046875 C153.76844787597656 134.06463623046875 153.45811462402344 133.67022705078125 152.8182373046875 133.02735900878906 C152.1783447265625 132.38449096679688 151.20889282226562 131.49317932128906 149.8906707763672 130.49937438964844 C148.57244873046875 129.50555419921875 146.90542602539062 128.4092559814453 144.8704071044922 127.35641479492188 C144.8704071044922 127.35641479492188 144.5543670654297 126.39141845703125 143.6904296875 125.0882568359375 C142.8264923095703 123.78508758544922 141.41465759277344 122.14373779296875 139.22305297851562 120.7910385131836 L134.74273681640625 122.13156127929688 L130.26243591308594 123.47207641601562 L125.78213500976562 124.81259155273438 L121.30181884765625 126.15311431884766 L116.8215103149414 127.4936294555664"></path>
<path fill="#E9B585" fill-opacity="1.0"  filling="0" d="M96.04505157470703 88.28312683105469 L92.95896911621094 89.40594482421875 L89.87289428710938 90.52876281738281 C89.87289428710938 90.52876281738281 89.76315307617188 90.08384704589844 89.57937622070312 89.29922485351562 C89.39559936523438 88.51460266113281 89.13778686523438 87.3902587890625 88.84162902832031 86.03141784667969 C88.54547119140625 84.67256927490234 88.21098327636719 83.07920837402344 87.87384796142578 81.3565444946289 C87.5367202758789 79.63387298583984 87.19694519042969 77.78189849853516 86.89024353027344 75.90581512451172 C86.58353424072266 74.02973937988281 86.30989074707031 72.12954711914062 86.1050033569336 70.31045532226562 C85.9001235961914 68.49136352539062 85.76400756835938 66.75335693359375 85.73234558105469 65.20166015625 L81.60102081298828 65.55751037597656 C81.60102081298828 65.55751037597656 81.60667419433594 66.00143432617188 81.62520599365234 66.79277801513672 C81.64373779296875 67.58412170410156 81.67514038085938 68.72288513183594 81.72663879394531 70.11256408691406 C81.77814483642578 71.50224304199219 81.84974670410156 73.14282989501953 81.94867706298828 74.93783569335938 C82.047607421875 76.73283386230469 82.1738510131836 78.68224334716797 82.33464813232422 80.68955993652344 C82.49544525146484 82.6968765258789 82.69078063964844 84.76209259033203 82.92789459228516 86.78871154785156 C83.16500854492188 88.81532287597656 83.44388580322266 90.8033447265625 83.77175903320312 92.65625 C84.09962463378906 94.5091552734375 84.47648620605469 96.22695922851562 84.9095687866211 97.71315002441406 C85.22598266601562 98.79859161376953 86.32268524169922 99.45804595947266 87.43423461914062 99.25222778320312 C88.35242462158203 99.08224487304688 89.56023406982422 98.85030364990234 90.96026611328125 98.56163024902344 C92.36030578613281 98.27295684814453 93.95256805419922 97.92754364013672 95.63966369628906 97.53060913085938 C97.32676696777344 97.13368225097656 99.10868835449219 96.68522644042969 100.8880615234375 96.19046020507812 L98.466552734375 92.2367935180664 L96.04505157470703 88.28312683105469"></path>
<path fill="#3E7EE5" fill-opacity="1.0"  filling="0" d="M119.57862854003906 128.1177520751953 C120.78028869628906 128.0464630126953 122.14998626708984 127.9363784790039 123.61515045166016 127.76751708984375 C125.08030700683594 127.5986557006836 126.64093017578125 127.37100982666016 128.22445678710938 127.0645751953125 C129.8079833984375 126.75814819335938 131.41439819335938 126.3729248046875 132.97113037109375 125.88893127441406 C134.5278778076172 125.4049301147461 136.03494262695312 124.8221435546875 137.41978454589844 124.12057495117188 C138.36212158203125 123.64313507080078 139.1109161376953 122.9032974243164 139.6069793701172 122.0192642211914 C140.10304260253906 121.1352310180664 140.34637451171875 120.10700988769531 140.27777099609375 119.05279541015625 C140.12408447265625 116.69606018066406 139.9198455810547 114.47830200195312 139.6779327392578 112.39058685302734 C139.43601989746094 110.30286407470703 139.1564178466797 108.34518432617188 138.8520050048828 106.50859069824219 C138.54759216308594 104.6719970703125 138.21836853027344 102.95650482177734 137.87718200683594 101.35315704345703 C137.53599548339844 99.74980926513672 137.182861328125 98.25860595703125 136.83062744140625 96.87061309814453 C136.4783935546875 95.48262023925781 136.12709045410156 94.19783020019531 135.78955078125 93.0073013305664 C135.45201110839844 91.8167724609375 135.12823486328125 90.72050476074219 134.83111572265625 89.70956420898438 C134.4619598388672 88.45388793945312 134.5135498046875 87.15225219726562 134.9237823486328 85.97452545166016 C135.33401489257812 84.79679870605469 136.10292053222656 83.74297332763672 137.16839599609375 82.98291015625 C139.48825073242188 81.32786560058594 141.04434204101562 80.03378295898438 142.02047729492188 79.15347290039062 C142.99659729003906 78.27314758300781 143.39276123046875 77.80659484863281 143.39276123046875 77.80659484863281 C142.77401733398438 75.6759033203125 141.31251525878906 73.731201171875 140.00570678710938 72.31916809082031 C138.69888305664062 70.90713500976562 137.5467529296875 70.02777099609375 137.5467529296875 70.02777099609375 C135.348388671875 71.88359832763672 133.29612731933594 73.2967758178711 131.5368194580078 74.356201171875 C129.7775115966797 75.4156265258789 128.3111572265625 76.12129211425781 127.28463745117188 76.5621109008789 C126.25811767578125 77.00292205810547 125.67142486572266 77.17887878417969 125.67142486572266 77.17887878417969 L121.08817291259766 78.4532470703125 L116.50491333007812 79.72761535644531 L111.92166137695312 81.00198364257812 C111.61382293701172 81.08761596679688 110.74345397949219 81.43679809570312 109.51802062988281 81.93936157226562 C108.29258728027344 82.4419174194336 106.71209716796875 83.09785461425781 104.98400115966797 83.79698944091797 C103.25590515136719 84.49612426757812 101.38020324707031 85.23846435546875 99.56436920166016 85.913818359375 C97.74853515625 86.58917999267578 95.99256896972656 87.19757080078125 94.50393676757812 87.62879943847656 C94.50393676757812 87.62879943847656 94.73143768310547 88.45209503173828 95.19276428222656 89.6335220336914 C95.65409851074219 90.81495666503906 96.34925842285156 92.35452270507812 97.28459167480469 93.78705596923828 C98.21991729736328 95.21959686279297 99.39541625976562 96.54510498046875 100.8174057006836 97.29843139648438 C102.01933288574219 97.04729461669922 103.02861022949219 96.79743957519531 103.96390533447266 96.52031707763672 C104.89920043945312 96.24319458007812 105.76051330566406 95.93881225585938 106.66648864746094 95.57862854003906 C108.07347106933594 95.01952362060547 109.66426086425781 95.78189086914062 110.11737060546875 97.22624206542969 C110.50054931640625 98.44766998291016 110.93231201171875 99.68568420410156 111.37471008300781 100.95673370361328 C111.81710815429688 102.227783203125 112.2701416015625 103.53186798095703 112.69587707519531 104.88542938232422 C113.1216049194336 106.2389907836914 113.52003479003906 107.64203643798828 113.85321044921875 109.11100769042969 C114.18639373779297 110.57997131347656 114.45433044433594 112.1148681640625 114.61907958984375 113.73213195800781 C114.78382873535156 115.34939575195312 114.84538269042969 117.04902648925781 114.76582336425781 118.84748077392578 C114.59873962402344 122.61904907226562 115.07780456542969 124.90626525878906 115.79080963134766 126.2796401977539 C116.50381469726562 127.65301513671875 117.45077514648438 128.11253356933594 118.21947479248047 128.22872924804688 C118.98817443847656 128.34490966796875 119.57862854003906 128.1177520751953 119.57862854003906 128.1177520751953"></path>
<path fill="#6D628C" fill-opacity="1.0"  filling="0" d="M118.18547058105469 143.32928466796875 C118.18547058105469 143.32928466796875 117.45689392089844 144.6640625 118.43071746826172 146.17343139648438 C118.43071746826172 146.17343139648438 119.02361297607422 145.96920776367188 120.13835144042969 145.7200164794922 C121.25308990478516 145.4708251953125 122.8896713256836 145.17666625976562 124.97703552246094 144.996826171875 C127.06440734863281 144.81698608398438 129.60255432128906 144.75143432617188 132.52044677734375 144.95948791503906 C132.52044677734375 144.95948791503906 133.57875061035156 143.4721221923828 132.3489227294922 142.10867309570312 C132.3487548828125 142.10902404785156 131.7242889404297 141.92947387695312 130.57530212402344 141.79502868652344 C129.4263153076172 141.66058349609375 127.75281524658203 141.57122802734375 125.65458679199219 141.75193786621094 C123.55635070800781 141.9326629638672 121.03338623046875 142.38345336914062 118.18547058105469 143.32928466796875"></path>
<path fill="#6D628C" fill-opacity="1.0"  filling="0" d="M138.54617309570312 141.04730224609375 C138.54617309570312 141.04730224609375 138.21490478515625 142.35853576660156 140.895751953125 142.83827209472656 C140.895751953125 142.83827209472656 141.1353302001953 142.4619140625 141.68048095703125 141.88720703125 C142.2256317138672 141.3125 143.07632446289062 140.5394287109375 144.29856872558594 139.74598693847656 C145.52081298828125 138.95254516601562 147.11459350585938 138.13873291015625 149.1458740234375 137.4825439453125 C151.17715454101562 136.82635498046875 153.64596557617188 136.32778930664062 156.6182403564453 136.16485595703125 C156.6182403564453 136.16485595703125 155.5450897216797 133.26028442382812 153.10183715820312 133.50091552734375 C153.10183715820312 133.50091552734375 152.50611877441406 133.49151611328125 151.5340576171875 133.59765625 C150.56198120117188 133.7038116455078 149.2135467529297 133.92552185058594 147.70809936523438 134.3877716064453 C146.20266723632812 134.85000610351562 144.5402069091797 135.5527801513672 142.9401092529297 136.6210479736328 C141.33999633789062 137.68931579589844 139.80224609375 139.12307739257812 138.54617309570312 141.04730224609375"></path>
<path fill="#C7C1D3" fill-opacity="1.0"  filling="0" d="M93.5726089477539 170.72589111328125 C93.5726089477539 170.72589111328125 93.12870025634766 170.16268920898438 92.05401611328125 170.11865234375 C92.05401611328125 170.11865234375 91.88619995117188 170.5298309326172 91.61616516113281 171.26780700683594 C91.34612274169922 172.0057830810547 90.9738540649414 173.070556640625 90.56494140625 174.3777618408203 C90.1560287475586 175.68495178222656 89.7104721069336 177.2345733642578 89.29386138916016 178.94224548339844 C88.87725067138672 180.64990234375 88.48957824707031 182.51560974121094 88.19644165039062 184.45498657226562 C87.9032974243164 186.3943634033203 87.70468139648438 188.40740966796875 87.66618347167969 190.40972900390625 C87.66618347167969 190.40972900390625 88.44493103027344 191.28729248046875 89.25030517578125 190.80345153808594 L90.1147689819336 186.78793334960938 L90.97923278808594 182.77243041992188 L91.84368896484375 178.75692749023438 L92.70814514160156 174.7414093017578 L93.5726089477539 170.72589111328125"></path>
<path fill="#382C4D" fill-opacity="1.0"  filling="0" d="M101.07750701904297 172.4574737548828 C101.07750701904297 172.4574737548828 100.13926696777344 173.0169677734375 99.56646728515625 174.10726928710938 C98.99366760253906 175.19757080078125 98.78630065917969 176.81869506835938 100.24806213378906 178.94195556640625 C100.24806213378906 178.94195556640625 100.80819702148438 180.15386962890625 99.24556732177734 181.00326538085938 C98.72469329833984 181.28640747070312 97.91459655761719 181.71607971191406 97.04705810546875 182.33628845214844 C96.17951965332031 182.95648193359375 95.25454711914062 183.7672119140625 94.50392150878906 184.81243896484375 C93.75328826904297 185.85765075683594 93.177001953125 187.13735961914062 93.00685119628906 188.695556640625 C93.00685119628906 188.695556640625 92.49433898925781 191.85459899902344 89.25030517578125 190.80499267578125 C89.25030517578125 190.80499267578125 89.3353500366211 189.9572296142578 89.51009368896484 188.5797882080078 C89.6848373413086 187.20233154296875 89.94927978515625 185.29519653320312 90.30805206298828 183.17642211914062 C90.66683197021484 181.05764770507812 91.11994934082031 178.72726440429688 91.67205810546875 176.5032958984375 C91.67205810546875 176.5032958984375 91.9027099609375 175.03846740722656 92.30200958251953 173.56256103515625 C92.70130920410156 172.08665466308594 93.26924133300781 170.59967041015625 93.94380187988281 170.55538940429688 C95.48543548583984 170.4542694091797 97.02207946777344 170.34521484375 98.29669952392578 170.55372619628906 C99.57132720947266 170.76223754882812 100.58393859863281 171.288330078125 101.07750701904297 172.4574737548828"></path>
<path fill="#C58C5D" fill-opacity="1.0"  filling="0" d="M94.85363006591797 88.716796875 L92.36326599121094 89.6227798461914 L89.87289428710938 90.52876281738281 C89.87289428710938 90.52876281738281 89.73011016845703 89.94956970214844 89.4975357055664 88.94743347167969 C89.26496887207031 87.94530487060547 88.94261169433594 86.52023315429688 88.5834732055664 84.8284912109375 C88.22433471679688 83.13674926757812 87.82841491699219 81.1783218383789 87.44872283935547 79.1094741821289 C87.06902313232422 77.04063415527344 86.7055435180664 74.86136627197266 86.41128540039062 72.72793579101562 C86.11702728271484 70.59451293945312 85.89199829101562 68.50692749023438 85.7891845703125 66.62142944335938 C85.78662109375 66.61631774902344 85.58489990234375 67.34130859375 84.46259307861328 67.72479248046875 C84.46259307861328 67.72479248046875 84.64768981933594 68.48699951171875 84.94005584716797 69.74729919433594 C85.232421875 71.00759887695312 85.63204956054688 72.7659912109375 86.06111145019531 74.75836944580078 C86.49017333984375 76.75074768066406 86.94867706298828 78.97710418701172 87.35877227783203 81.17333984375 C87.76887512207031 83.36956787109375 88.13057708740234 85.53567504882812 88.36605072021484 87.40754699707031 C88.60151672363281 89.2794189453125 88.71075439453125 90.8570556640625 88.61593627929688 91.87635040283203 C88.37862396240234 94.42431640625 87.98886108398438 95.90643310546875 87.65843200683594 96.75154876708984 C87.3280029296875 97.59666442871094 87.05690002441406 97.80479431152344 87.05690002441406 97.80479431152344 C87.05690002441406 97.80479431152344 87.45062255859375 97.54175567626953 87.98687744140625 96.68268585205078 C88.52313232421875 95.82361602783203 89.20191955566406 94.36851501464844 89.77203369140625 91.98438262939453 C89.77203369140625 91.98438262939453 90.40435791015625 91.52742004394531 91.4026870727539 91.01689147949219 C92.4010238647461 90.50636291503906 93.76537322998047 89.94226837158203 95.22943115234375 89.72799682617188 C95.08096313476562 89.35116577148438 94.95654296875 89.01119995117188 94.85363006591797 88.716796875"></path>
<path fill="#C58C5D" fill-opacity="1.0"  filling="0" d="M142.9073944091797 76.51123046875 C144.54725646972656 75.47904205322266 146.24542236328125 74.27714538574219 147.9517822265625 72.97509765625 C149.6581268310547 71.67304992675781 151.37265014648438 70.27085876464844 153.0452423095703 68.83806610107422 C154.7178192138672 67.4052734375 156.3484649658203 65.94187927246094 157.88702392578125 64.51744079589844 C159.42559814453125 63.09300231933594 160.87210083007812 61.70751190185547 162.1763916015625 60.43052673339844 C163.48069763183594 59.153541564941406 164.64280700683594 57.98506164550781 165.6125946044922 56.99463653564453 C166.58236694335938 56.00421142578125 167.35983276367188 55.19184112548828 167.8948516845703 54.6270751953125 C168.42987060546875 54.062313079833984 168.72244262695312 53.745155334472656 168.72244262695312 53.745155334472656 C168.72244262695312 53.745155334472656 168.83609008789062 53.623291015625 169.02297973632812 53.38726043701172 C167.37405395507812 55.015785217285156 165.65061950683594 56.6268424987793 163.9076385498047 58.19218063354492 C162.16465759277344 59.75752258300781 160.40213012695312 61.27714920043945 158.6749725341797 62.722816467285156 C156.94781494140625 64.16848754882812 155.25604248046875 65.54019927978516 153.65457153320312 66.80970764160156 C152.0531005859375 68.07921600341797 150.54196166992188 69.24652862548828 149.17605590820312 70.28338623046875 C147.81015014648438 71.32025146484375 146.58950805664062 72.22666931152344 145.56903076171875 72.97439575195312 C144.54855346679688 73.72212219238281 143.728271484375 74.31116485595703 143.16310119628906 74.71327209472656 C142.59793090820312 75.11538696289062 142.28787231445312 75.33055877685547 142.28787231445312 75.33055877685547 L142.9073944091797 76.51123046875"></path>
<path fill="#C58C5D" fill-opacity="1.0"  filling="0" d="M129.9015655517578 144.84173583984375 C129.90187072753906 144.8441925048828 129.98367309570312 145.4646759033203 130.10855102539062 146.5213623046875 C130.23342895507812 147.5780487060547 130.4013671875 149.07093811035156 130.57395935058594 150.81820678710938 C130.74656677246094 152.5654754638672 130.923828125 154.56712341308594 131.06732177734375 156.64134216308594 C131.2108154296875 158.71554565429688 131.320556640625 160.86233520507812 131.35812377929688 162.89984130859375 C131.39569091796875 164.93734741210938 131.361083984375 166.8656005859375 131.21588134765625 168.50277709960938 C131.33056640625 168.0972900390625 131.4160614013672 167.6794891357422 131.46368408203125 167.2504425048828 C131.58810424804688 166.1226043701172 131.712890625 164.85662841796875 131.82369995117188 163.49195861816406 C131.93450927734375 162.12728881835938 132.03134155273438 160.6638946533203 132.099853515625 159.1412353515625 C132.16836547851562 157.6185760498047 132.20855712890625 156.03665161132812 132.20608520507812 154.4348907470703 C132.20361328125 152.83311462402344 132.15847778320312 151.2115020751953 132.05633544921875 149.60948181152344 C131.95419311523438 148.00746154785156 131.7950439453125 146.42503356933594 131.56454467773438 144.90162658691406 C130.9941864013672 144.87142944335938 130.44020080566406 144.8519744873047 129.9015655517578 144.84173583984375"></path>
<path fill="#382C4D" fill-opacity="1.0"  filling="0" d="M122.61785888671875 85.33760070800781 C124.72269439697266 84.8138198852539 125.9425048828125 83.9140625 126.60042572021484 82.8773422241211 C127.25834655761719 81.84061431884766 127.3543701171875 80.66691589355469 127.21163940429688 79.59526824951172 C127.06890106201172 78.52361297607422 126.68740844726562 77.55400085449219 126.39027404785156 76.92543029785156 C125.92486572265625 77.10310363769531 125.67091369628906 77.17887878417969 125.67091369628906 77.17887878417969 L121.08766174316406 78.4532470703125 L116.50440979003906 79.72761535644531 L111.92115020751953 81.00198364257812 C111.66514587402344 81.07315063476562 111.01541900634766 81.32864379882812 110.09996795654297 81.70137023925781 C110.10064697265625 81.7020492553711 110.61896514892578 82.3235092163086 111.60067749023438 83.07940673828125 C112.58238983154297 83.83531188964844 114.02749633789062 84.72566223144531 115.88177490234375 85.26412963867188 C117.73605346679688 85.80260467529297 119.9994888305664 85.98920440673828 122.61785888671875 85.33760070800781"></path>
<path fill="#E9B585" fill-opacity="1.0"  filling="0" d="M110.14911651611328 55.73529052734375 C109.95472717285156 54.15952682495117 110.53511047363281 52.814048767089844 111.52291107177734 51.759498596191406 C112.51071166992188 50.70494842529297 113.90592956542969 49.94132995605469 115.34121704101562 49.5292854309082 C116.77650451660156 49.11723709106445 118.25186157226562 49.0567626953125 119.39993286132812 49.40850830078125 C120.45286560058594 49.7310676574707 121.51654052734375 50.263675689697266 122.47494506835938 51.112510681152344 C123.43334197998047 51.961341857910156 124.28646850585938 53.126399993896484 124.91827392578125 54.71385955810547 C125.54035186767578 56.276790618896484 126.05043029785156 57.86585235595703 126.41830444335938 59.4217643737793 C126.78617858886719 60.9776725769043 127.0118637084961 62.500431060791016 127.06515502929688 63.930747985839844 C127.11844635009766 65.36106872558594 126.99935150146484 66.69894409179688 126.67768096923828 67.88510131835938 C126.35600280761719 69.07125854492188 125.83174896240234 70.1056900024414 125.07472229003906 70.92911529541016 C124.31769561767578 71.75253295898438 123.32789611816406 72.36494445800781 122.07513427734375 72.70706939697266 C120.67952728271484 73.08820343017578 119.43302917480469 73.18852996826172 118.31824493408203 72.99503326416016 C117.20346069335938 72.8015365600586 116.22039031982422 72.314208984375 115.35162353515625 71.52001190185547 C114.48285675048828 70.72582244873047 113.7283935546875 69.62477111816406 113.07083892822266 68.2038345336914 C112.41328430175781 66.78289794921875 111.85263061523438 65.04206848144531 111.3714828491211 62.968318939208984 C110.89032745361328 60.894569396972656 110.48867797851562 58.48790740966797 110.14911651611328 55.73529052734375"></path>
<path fill="#E9B585" fill-opacity="1.0"  filling="0" d="M121.5155258178711 69.82911682128906 C121.5155258178711 69.82911682128906 121.4855728149414 70.78463745117188 121.89900970458984 72.3031005859375 C122.31245422363281 73.82156372070312 123.16928100585938 75.90296936035156 124.9428482055664 78.15474700927734 C124.9428482055664 78.15474700927734 125.30867004394531 78.8853759765625 125.22643280029297 79.87059020996094 C125.14419555664062 80.85580444335938 124.6138916015625 82.09561157226562 122.8216323852539 83.11398315429688 C121.62696838378906 83.79289245605469 120.01797485351562 83.79624938964844 118.40362548828125 83.49898529052734 C116.78926849365234 83.20172119140625 115.16954803466797 82.60383605957031 113.95341491699219 82.08026885986328 C112.7372817993164 81.55670166015625 111.92473602294922 81.10745239257812 111.92473602294922 81.10745239257812 C111.92473602294922 81.10745239257812 112.12153625488281 80.79100036621094 112.37034606933594 80.15416717529297 C112.61915588378906 79.51732635498047 112.91996765136719 78.56009674072266 113.12799835205078 77.27852630615234 C113.33602905273438 75.99695587158203 113.45127868652344 74.39105224609375 113.3289566040039 72.45686340332031 C113.20662689208984 70.5226821899414 112.84672546386719 68.26022338867188 112.10444641113281 65.66553497314453 C112.10444641113281 65.66570281982422 112.74251556396484 65.50391387939453 113.72913360595703 65.49626922607422 C114.71575927734375 65.48863220214844 116.05094146728516 65.6351318359375 117.44517517089844 66.25190734863281 C118.83941650390625 66.8686752319336 120.29269409179688 67.95570373535156 121.5155258178711 69.82911682128906"></path>
<path fill="#E9B585" fill-opacity="1.0"  filling="0" d="M111.96876525878906 60.89625549316406 C111.96876525878906 60.89625549316406 111.44755554199219 58.95628356933594 110.15270233154297 60.780029296875 C109.3253173828125 61.94508361816406 109.54701232910156 63.3099479675293 110.16851043701172 64.34028625488281 C110.7900161743164 65.37062072753906 111.81132507324219 66.0664291381836 112.58316802978516 65.89337158203125 C113.35501098632812 65.72032165527344 113.20140838623047 64.47103881835938 112.85485076904297 63.26502227783203 C112.50828552246094 62.05900573730469 111.96876525878906 60.89625549316406 111.96876525878906 60.89625549316406"></path>
<path fill="#382C4D" fill-opacity="1.0"  filling="0" d="M125.86393737792969 52.529151916503906 C125.86393737792969 52.529151916503906 125.68223571777344 51.8855094909668 125.12123107910156 51.08550262451172 C124.56022644042969 50.285491943359375 123.61993408203125 49.3291130065918 122.10274505615234 48.703636169433594 C120.58555603027344 48.078163146972656 118.49147033691406 47.783592224121094 115.62290954589844 48.30719757080078 C113.57286071777344 48.68146896362305 112.00370788574219 49.735294342041016 110.94258880615234 50.89234924316406 C109.8814697265625 52.049407958984375 109.32838439941406 53.3096923828125 109.31045532226562 54.096885681152344 C109.30790710449219 54.22233581542969 109.29561614990234 54.333946228027344 109.27206420898438 54.42201232910156 C109.23161315917969 54.57049560546875 109.32172393798828 55.07379150390625 109.01197052001953 55.111167907714844 C108.01408386230469 55.232513427734375 107.59833526611328 56.540802001953125 107.77913665771484 57.8680305480957 C107.9599380493164 59.19525909423828 108.7372817993164 60.54143524169922 110.12557220458984 60.738555908203125 C110.15321350097656 60.780029296875 111.84281158447266 58.79346466064453 112.25088500976562 61.95404052734375 C112.52070617675781 64.04299926757812 113.02489471435547 64.41011047363281 113.35910034179688 63.56927490234375 C113.69331359863281 62.72844696044922 113.85752868652344 60.6796760559082 113.44741821289062 57.9368896484375 C113.44725036621094 57.93671798706055 114.95122528076172 57.89189147949219 116.91512298583984 57.64683532714844 C118.8790283203125 57.40177917480469 121.3028564453125 56.95648956298828 123.14239501953125 56.155399322509766 C124.98193359375 55.35430908203125 126.2371826171875 54.197418212890625 125.86393737792969 52.529151916503906"></path>
<path fill="#382C4D" fill-opacity="1.0"  filling="0" d="M124.66329956054688 59.053558349609375 C125.12614440917969 58.778106689453125 126.23871612548828 58.35161590576172 128.64102172851562 58.422271728515625 C128.64102172851562 58.422271728515625 126.41279602050781 58.72639465332031 124.94387817382812 59.53996276855469 C124.77184295654297 59.63520050048828 124.55935668945312 59.531776428222656 124.53018188476562 59.33721923828125 C124.5132827758789 59.22406005859375 124.56499481201172 59.11193084716797 124.66329956054688 59.053558349609375"></path>
<path fill="#382C4D" fill-opacity="1.0"  filling="0" d="M125.86137390136719 60.993019104003906 C125.98784637451172 61.496315002441406 126.49778747558594 61.801979064941406 127.00108337402344 61.675514221191406 C127.50437927246094 61.549560546875 127.81004333496094 61.03910827636719 127.68358612060547 60.53581237792969 C127.55711364746094 60.032508850097656 127.04717254638672 59.726837158203125 126.54387664794922 59.853309631347656 C126.04108428955078 59.97926330566406 125.73542022705078 60.489723205566406 125.86137390136719 60.993019104003906"></path>
<path fill="#382C4D" fill-opacity="1.0"  filling="0" d="M122.5344009399414 59.58143615722656 C121.99629211425781 59.557373046875 120.81407928466797 59.70636749267578 118.72921752929688 60.90239715576172 C118.72921752929688 60.90239715576172 120.83712005615234 60.1185302734375 122.5164794921875 60.14259338378906 C122.71308898925781 60.145660400390625 122.85132598876953 59.95365905761719 122.7852783203125 59.768821716308594 C122.74687957763672 59.660797119140625 122.64857482910156 59.58655548095703 122.5344009399414 59.58143615722656"></path>
<path fill="#382C4D" fill-opacity="1.0"  filling="0" d="M122.39308166503906 61.85676574707031 C122.5195541381836 62.36006164550781 122.2138900756836 62.870521545410156 121.71007537841797 62.99647521972656 C121.20677947998047 63.12242889404297 120.69631958007812 62.81727600097656 120.57036590576172 62.31346893310547 C120.44390869140625 61.81016540527344 120.74957275390625 61.299705505371094 121.25286865234375 61.17375946044922 C121.75666809082031 61.04780578613281 122.2666244506836 61.35346221923828 122.39308166503906 61.85676574707031"></path>
<path fill="#F35E3B" fill-opacity="1.0"  filling="0" d="M123.70687866210938 59.514366149902344 L125.26976013183594 62.138362884521484 L126.8326416015625 64.76235961914062 L126.0216293334961 64.96562957763672 C125.14559936523438 65.1852798461914 124.2767333984375 64.58265686035156 124.17587280273438 63.68511962890625 L123.70687866210938 59.514366149902344"></path>
<path fill="#C58C5D" fill-opacity="1.0"  filling="0" d="M123.06329345703125 76.65868377685547 C122.17906951904297 73.73413848876953 120.50688171386719 73.09158325195312 120.50688171386719 73.09158325195312 C118.21653747558594 72.8446273803711 116.68759155273438 72.01655578613281 115.66692352294922 71.02220916748047 C114.6462631225586 70.02786254882812 114.13388061523438 68.86725616455078 113.87667083740234 67.95523834228516 C113.61946105957031 67.043212890625 113.6174087524414 66.37977600097656 113.6174087524414 66.37977600097656 C113.6174087524414 66.37977600097656 113.78961181640625 67.10295104980469 114.22721862792969 68.0400390625 C114.66482543945312 68.97712707519531 115.36784362792969 70.12814331054688 116.4294662475586 70.98383331298828 C117.4910888671875 71.83951568603516 118.91131591796875 72.39987182617188 120.78335571289062 72.15564727783203 C123.80160522460938 71.76191711425781 124.92031860351562 70.9012451171875 125.39801788330078 70.53721618652344 C124.60697937011719 71.55711364746094 123.51692962646484 72.31282043457031 122.07462310791016 72.70706939697266 C122.2740478515625 73.44972229003906 122.58636474609375 74.29798126220703 123.05113220214844 75.2174072265625 C123.51589965820312 76.13682556152344 124.13311767578125 77.1274185180664 124.94233703613281 78.15474700927734 C124.94233703613281 78.15474700927734 125.30815887451172 78.8853759765625 125.22598266601562 79.87059020996094 C125.14380645751953 80.85580444335938 124.61363220214844 82.09561157226562 122.8216323852539 83.11398315429688 C121.81298828125 83.68716430664062 120.50930786132812 83.77893829345703 119.15641784667969 83.61483764648438 C117.80352020263672 83.45074462890625 116.40141296386719 83.03077697753906 115.19590759277344 82.58047485351562 C117.07630920410156 82.84961700439453 118.6673812866211 82.579345703125 119.92302703857422 82.0000228881836 C121.17868041992188 81.42070770263672 122.09891510009766 80.5323486328125 122.63764953613281 79.5653305053711 C123.1763916015625 78.59831237792969 123.33363342285156 77.55264282226562 123.06329345703125 76.65868377685547"></path>
<path fill="#382C4D" fill-opacity="1.0"  filling="0" d="M127.03539276123047 66.82469940185547 C127.03539276123047 66.82469940185547 125.5367660522461 67.72787475585938 123.23993682861328 67.9347152709961 C123.23993682861328 67.9347152709961 123.39558410644531 68.15385437011719 124.04735565185547 68.21324157714844 C125.15840148925781 68.31410217285156 126.2612533569336 67.81643676757812 126.9032974243164 66.99417114257812 L127.03539276123047 66.82469940185547"></path>
<path fill="#A79FBC" fill-opacity="1.0"  filling="0" d="M87.60934448242188 61.26898956298828 C87.60934448242188 61.26898956298828 87.41836547851562 59.29881286621094 85.33453369140625 58.92454528808594 L82.88076782226562 61.73951721191406 L80.427001953125 64.55448913574219 C80.427001953125 64.55448913574219 81.00454711914062 66.66598510742188 82.94502258300781 66.62040710449219 L85.27718353271484 63.944698333740234 L87.60934448242188 61.26898956298828"></path>
<path fill="#E9B585" fill-opacity="1.0"  filling="0" d="M87.60678100585938 61.264381408691406 C87.60678100585938 61.264381408691406 87.42706298828125 59.175933837890625 86.51110076904297 61.72723388671875 C86.26969909667969 62.39974594116211 85.54905700683594 62.65932846069336 84.88076782226562 63.144126892089844 C84.21247863769531 63.628929138183594 83.59654235839844 64.33894348144531 83.56454467773438 65.91232299804688 L85.7871322631836 66.6168212890625 C85.7871322631836 66.6168212890625 86.27391815185547 65.91243743896484 86.74476623535156 64.89118957519531 C87.21561431884766 63.86994934082031 87.67052459716797 62.531837463378906 87.60678100585938 61.264381408691406"></path>
<path fill="#E9B585" fill-opacity="1.0"  filling="0" d="M85.29356384277344 60.78565979003906 C84.92364501953125 61.367034912109375 84.22079467773438 62.39423370361328 83.44537353515625 63.128570556640625 C82.66995239257812 63.86290740966797 81.82195281982422 64.30438232421875 81.16172790527344 63.71430206298828 L80.42802429199219 64.55756378173828 C80.42802429199219 64.55756378173828 79.44345092773438 63.02617645263672 81.7976303100586 60.48921203613281 C83.45394897460938 58.704376220703125 84.6402587890625 59.34693908691406 85.20140075683594 59.891197204589844 C85.444091796875 60.125694274902344 85.47430419921875 60.50099182128906 85.29356384277344 60.78565979003906"></path>
<path fill="#366FC1" fill-opacity="1.0"  filling="0" d="M138.99673461914062 107.41555786132812 C138.99041748046875 107.44644927978516 138.88096618652344 107.96436309814453 138.41734313964844 108.75088500976562 C137.95372009277344 109.53741455078125 137.13592529296875 110.59254455566406 135.71292114257812 111.6978759765625 C134.28993225097656 112.80320739746094 132.26171875 113.958740234375 129.37728881835938 114.946044921875 C129.37728881835938 114.946044921875 129.99578857421875 114.91584014892578 130.98707580566406 114.72216796875 C131.97836303710938 114.52850341796875 133.34243774414062 114.17137145996094 134.8336181640625 113.51753234863281 C136.3247833251953 112.86368560791016 137.94305419921875 111.91313171386719 139.44268798828125 110.53260803222656 C139.30239868164062 109.46099090576172 139.15443420410156 108.41651916503906 138.99673461914062 107.41555786132812"></path>
<path fill="#366FC1" fill-opacity="1.0"  filling="0" d="M130.76275634765625 119.20384216308594 C127.6737289428711 120.08499145507812 125.13043212890625 120.6158447265625 123.05235290527344 120.91604614257812 C120.97427368164062 121.21625518798828 119.36141204833984 121.28582763671875 118.13324737548828 121.24441528320312 C116.90509033203125 121.20301055908203 116.06163787841797 121.05062866210938 115.52236938476562 120.90692901611328 C114.98310852050781 120.76322937011719 114.74803161621094 120.62821960449219 114.73664093017578 120.62156677246094 C114.74380493164062 121.23033905029297 114.77043151855469 121.79097747802734 114.81446075439453 122.30706787109375 C117.35679626464844 122.49932861328125 119.6247329711914 122.40150451660156 121.59657287597656 122.14662170410156 C123.56841278076172 121.8917465209961 125.24415588378906 121.47981262207031 126.60211181640625 121.04383850097656 C127.96006774902344 120.60787200927734 129.00022888183594 120.14787292480469 129.70089721679688 119.79686737060547 C130.40158081054688 119.44586181640625 130.76275634765625 119.20384216308594 130.76275634765625 119.20384216308594"></path>
<path fill="#366FC1" fill-opacity="1.0"  filling="0" d="M114.1181411743164 110.40255737304688 C114.12581634521484 110.24742126464844 114.12735748291016 110.08051300048828 114.11711883544922 109.89158630371094 C114.01203155517578 107.95865631103516 113.6155776977539 105.8364486694336 113.08001708984375 103.74040985107422 C112.5444564819336 101.64437103271484 111.86978912353516 99.57449340820312 111.208251953125 97.7462387084961 C110.54672241210938 95.91798400878906 109.8983154296875 94.33133697509766 109.4153060913086 93.2017593383789 C108.93228912353516 92.07218933105469 108.61465454101562 91.39967346191406 108.61465454101562 91.39967346191406 C108.37725830078125 92.96673583984375 107.30404663085938 94.05838012695312 105.97834777832031 94.81748962402344 C104.65264892578125 95.57659912109375 103.07445526123047 96.00316619873047 101.82708740234375 96.2400894165039 C100.57972717285156 96.47701263427734 99.66319274902344 96.52428436279297 99.66079711914062 96.52479553222656 C100.0263671875 96.82227325439453 100.41190338134766 97.08390808105469 100.8174057006836 97.29894256591797 C102.01933288574219 97.04780578613281 103.02861022949219 96.7979507446289 103.96390533447266 96.52082824707031 C104.89920043945312 96.24371337890625 105.76051330566406 95.9393310546875 106.66648864746094 95.57913208007812 C108.07347106933594 95.02003479003906 109.66426086425781 95.78239440917969 110.11737060546875 97.22674560546875 C110.53721618652344 98.56546020507812 111.01485443115234 99.92465209960938 111.50072479248047 101.32559204101562 C111.9865951538086 102.7265396118164 112.48069763183594 104.16924285888672 112.93345642089844 105.67498016357422 C113.38621520996094 107.18070983886719 113.7976303100586 108.74948120117188 114.1181411743164 110.40255737304688"></path>
<path fill="#366FC1" fill-opacity="1.0"  filling="0" d="M136.88729858398438 97.10694122314453 C136.52557373046875 95.67001342773438 136.16409301757812 94.33983612060547 135.8167724609375 93.10931396484375 C135.46945190429688 91.8787841796875 135.13626098632812 90.7479019165039 134.83111572265625 89.70956420898438 C134.4619598388672 88.45388793945312 134.5135498046875 87.15225219726562 134.9237823486328 85.97452545166016 C135.33401489257812 84.79679870605469 136.10292053222656 83.74297332763672 137.16839599609375 82.98291015625 C139.48825073242188 81.32786560058594 141.04434204101562 80.03366088867188 142.02047729492188 79.15321350097656 C142.99659729003906 78.27276611328125 143.39276123046875 77.80607604980469 143.39276123046875 77.80607604980469 C143.26528930664062 77.36677551269531 143.09478759765625 76.93824005126953 142.90431213378906 76.51788330078125 C142.88314819335938 76.56822967529297 142.5745391845703 77.28998565673828 141.83676147460938 78.27259063720703 C141.0989990234375 79.25519561767578 139.93206787109375 80.4986572265625 138.19430541992188 81.59241485595703 C136.45654296875 82.6861801147461 134.14791870117188 83.6302490234375 131.1267852783203 84.01407623291016 C131.1267852783203 84.01407623291016 131.5254669189453 84.7012939453125 132.1374969482422 85.8734359741211 C132.74951171875 87.04557800292969 133.57489013671875 88.70263671875 134.42831420898438 90.64231872558594 C135.28170776367188 92.58200073242188 136.16314697265625 94.80430603027344 136.88729858398438 97.10694122314453"></path>
<path fill="#99C3FF" fill-opacity="1.0"  filling="0" d="M94.85772705078125 87.52435302734375 C94.85772705078125 87.52435302734375 93.43487548828125 87.20844268798828 92.66636657714844 88.52531433105469 C92.66636657714844 88.52531433105469 92.61732482910156 89.18675994873047 92.79563903808594 90.19937896728516 C92.97394561767578 91.21200561523438 93.37960052490234 92.57579803466797 94.28898620605469 93.98049926757812 C95.19837951660156 95.38519287109375 96.61149597167969 96.83079528808594 98.80473327636719 98.00703430175781 C98.80473327636719 98.00703430175781 100.06169128417969 98.56768035888672 100.81689453125 97.29843139648438 C100.81689453125 97.29843139648438 100.34033966064453 96.95362854003906 99.64306640625 96.246826171875 C98.94580078125 95.54002380371094 98.02782440185547 94.47120666503906 97.14498901367188 93.02320098876953 C96.26214599609375 91.57518768310547 95.41444396972656 89.74797058105469 94.85772705078125 87.52435302734375"></path>
<path fill="#99C3FF" fill-opacity="1.0"  filling="0" d="M137.13356018066406 70.37184143066406 C137.13356018066406 70.37184143066406 137.9061737060547 69.27973937988281 139.18873596191406 69.053955078125 C139.18873596191406 69.053955078125 139.74368286132812 69.33106231689453 140.5192413330078 69.9036636352539 C141.29478454589844 70.47627258300781 142.29092407226562 71.34437561035156 143.17330932617188 72.52637481689453 C144.05569458007812 73.7083740234375 144.82432556152344 75.20426177978516 145.14483642578125 77.03244018554688 C145.14483642578125 77.03244018554688 144.91905212402344 78.09740447998047 143.39276123046875 77.80607604980469 C143.39276123046875 77.80607604980469 143.09310913085938 76.76441192626953 142.160888671875 75.31430053710938 C141.22866821289062 73.86418914794922 139.6638641357422 72.00563049316406 137.13356018066406 70.37184143066406"></path>
<path fill="#E9B585" fill-opacity="1.0"  filling="0" d="M168.41319274902344 149.62380981445312 C167.79815673828125 148.76698303222656 167.04811096191406 147.79539489746094 166.18203735351562 146.7418670654297 C165.3159637451172 145.68832397460938 164.3338623046875 144.55284118652344 163.25473022460938 143.36819458007812 C162.17559814453125 142.18356323242188 160.99942016601562 140.94976806640625 159.74517822265625 139.69961547851562 C158.49095153808594 138.44947814941406 157.15866088867188 137.1829833984375 155.76730346679688 135.93292236328125 C155.76730346679688 135.93292236328125 155.05934143066406 135.8438720703125 153.9505615234375 135.8296356201172 C152.84178161621094 135.81539916992188 151.3321990966797 135.87599182128906 149.72897338867188 136.17529296875 C148.125732421875 136.47457885742188 146.42886352539062 137.01258850097656 144.94549560546875 137.9531707763672 C143.46212768554688 138.89376831054688 142.1922607421875 140.2369384765625 141.44308471679688 142.1465606689453 C141.44308471679688 142.1465606689453 141.8740997314453 142.48953247070312 142.61209106445312 143.07449340820312 C143.35006713867188 143.65943908691406 144.39501953125 144.48635864257812 145.62286376953125 145.4542236328125 C146.8507080078125 146.42208862304688 148.26145935058594 147.53091430664062 149.73106384277344 148.67967224121094 C151.20065307617188 149.8284454345703 152.72909545898438 151.01715087890625 154.1923065185547 152.14480590820312 C155.65553283691406 153.27244567871094 157.05352783203125 154.33901977539062 158.26226806640625 155.24351501464844 C158.26226806640625 155.24351501464844 158.05271911621094 155.50247192382812 157.6868438720703 156.00830078125 C157.3209686279297 156.51412963867188 156.7987518310547 157.26681518554688 156.17343139648438 158.25428771972656 C155.54811096191406 159.24176025390625 154.81967163085938 160.46400451660156 154.04135131835938 161.90892028808594 C153.26303100585938 163.35385131835938 152.434814453125 165.02146911621094 151.60992431640625 166.89967346191406 C150.7850341796875 168.7778778076172 149.96347045898438 170.86666870117188 149.19845581054688 173.1539764404297 C148.43344116210938 175.4412841796875 147.7249755859375 177.92709350585938 147.1262664794922 180.59930419921875 L146.4330291748047 182.58688354492188 L147.11550903320312 185.31790161132812 L151.70509338378906 184.65383911132812 L151.9272918701172 183.91552734375 C151.9272918701172 183.91552734375 152.06248474121094 183.54307556152344 152.3214111328125 182.87709045410156 C152.58033752441406 182.2111053466797 152.96298217773438 181.25157165527344 153.4578857421875 180.07742309570312 C153.95278930664062 178.9032745361328 154.5599365234375 177.5145263671875 155.2678680419922 175.9900665283203 C155.97579956054688 174.46560668945312 156.78448486328125 172.80545043945312 157.6824951171875 171.0885009765625 C158.5804901123047 169.37156677246094 159.5677947998047 167.59783935546875 160.6329345703125 165.84625244140625 C161.69805908203125 164.09466552734375 162.84103393554688 162.36521911621094 164.0503387451172 160.73681640625 C165.2596435546875 159.10842895507812 166.53530883789062 157.58108520507812 167.86585998535156 156.23373413085938 C168.74777221679688 155.34080505371094 169.2505645751953 154.19815063476562 169.34988403320312 153.02381896972656 C169.44921875 151.8494873046875 169.14508056640625 150.64346313476562 168.41319274902344 149.62380981445312"></path>
<path fill="#C7C1D3" fill-opacity="1.0"  filling="0" d="M141.17733764648438 182.9703826904297 C141.17733764648438 182.9703826904297 140.47129821777344 182.84442138671875 139.63929748535156 183.52589416503906 C139.63929748535156 183.52589416503906 139.78720092773438 183.94464111328125 140.07594299316406 184.67552185058594 C140.36468505859375 185.40640258789062 140.7942352294922 186.4493865966797 141.35755920410156 187.69786071777344 C141.92086791992188 188.9463348388672 142.61793518066406 190.40029907226562 143.44168090820312 191.95310974121094 C144.26541137695312 193.50592041015625 145.2158203125 195.15757751464844 146.28582763671875 196.80145263671875 C147.3558349609375 198.44532775878906 148.54544067382812 200.0814208984375 149.84754943847656 201.60308837890625 C149.84754943847656 201.60308837890625 151.0128631591797 201.74131774902344 151.2929229736328 200.8442840576172 L149.26980590820312 197.26950073242188 L147.24668884277344 193.69473266601562 L145.22357177734375 190.1199493408203 L143.20045471191406 186.545166015625 L141.17733764648438 182.9703826904297"></path>
<path fill="#382C4D" fill-opacity="1.0"  filling="0" d="M147.52613830566406 178.90457153320312 C147.52613830566406 178.90457153320312 147.29945373535156 180.03890991210938 147.69854736328125 181.3269805908203 C148.09765625 182.61505126953125 149.12255859375 184.0568389892578 151.625732421875 184.6717529296875 C151.625732421875 184.6717529296875 152.84991455078125 185.20526123046875 152.2467803955078 186.87796020507812 C152.0457305908203 187.43553161621094 151.7260284423828 188.29495239257812 151.4900360107422 189.33494567871094 C151.25404357910156 190.3749542236328 151.10177612304688 191.59555053710938 151.23561096191406 192.8754425048828 C151.36944580078125 194.1553497314453 151.78939819335938 195.49456787109375 152.69786071777344 196.7718505859375 C152.69786071777344 196.7718505859375 154.41407775878906 199.47264099121094 151.2929229736328 200.8442840576172 C151.2929229736328 200.8442840576172 150.7930450439453 200.1543426513672 150.0081329345703 199.0089874267578 C149.2232208251953 197.8636474609375 148.1532745361328 196.26290893554688 147.01315307617188 194.4413299560547 C145.87301635742188 192.6197509765625 144.66270446777344 190.57733154296875 143.59706115722656 188.54861450195312 C143.59706115722656 188.54861450195312 142.7957763671875 187.30075073242188 142.1131591796875 185.9326171875 C141.43052673339844 184.56448364257812 140.86656188964844 183.07611083984375 141.3411865234375 182.59507751464844 C142.4258575439453 181.49530029296875 143.38893127441406 180.50830078125 144.37240600585938 179.8284149169922 C145.35589599609375 179.14854431152344 146.35980224609375 178.77581787109375 147.52613830566406 178.90457153320312"></path>
<path fill="#C58C5D" fill-opacity="1.0"  filling="0" d="M163.38995361328125 156.74623107910156 C162.49301147460938 156.48536682128906 161.40036010742188 155.92108154296875 160.189208984375 155.14859008789062 C158.97805786132812 154.37611389160156 157.64842224121094 153.3954315185547 156.27749633789062 152.30181884765625 C154.9065704345703 151.20819091796875 153.49435424804688 150.00161743164062 152.1180877685547 148.77734375 C150.74180603027344 147.55307006835938 149.40145874023438 146.3110809326172 148.1742706298828 145.14663696289062 C146.9470672607422 143.982177734375 145.8330078125 142.895263671875 144.90933227539062 141.98114013671875 C143.9856414794922 141.06698608398438 143.2523193359375 140.32562255859375 142.78656005859375 139.85227966308594 C142.2489471435547 140.5086669921875 141.7881622314453 141.26438903808594 141.44204711914062 142.1465606689453 C141.44204711914062 142.1465606689453 141.87306213378906 142.48953247070312 142.61105346679688 143.07449340820312 C143.34902954101562 143.65943908691406 144.39398193359375 144.48635864257812 145.621826171875 145.4542236328125 C146.84967041015625 146.42208862304688 148.2604217529297 147.53091430664062 149.7300262451172 148.67967224121094 C151.19961547851562 149.8284454345703 152.72805786132812 151.01715087890625 154.1912841796875 152.14480590820312 C155.65451049804688 153.27244567871094 157.05252075195312 154.33901977539062 158.26124572753906 155.24351501464844 C159.26220703125 155.64442443847656 160.62002563476562 156.2572784423828 161.77151489257812 156.75083923339844 C163.02951049804688 157.28997802734375 163.5957794189453 158.77426147460938 162.99365234375 160.00357055664062 C162.68748474121094 160.6282196044922 162.24307250976562 161.3501434326172 161.60614013671875 162.1754913330078 C161.01683044433594 162.93898010253906 160.30406188964844 164.06968688964844 159.5398406982422 165.41746520996094 C158.77561950683594 166.7652587890625 157.95993041992188 168.33013916015625 157.164794921875 169.96197509765625 C156.36964416503906 171.5938262939453 155.5950469970703 173.2926483154297 154.9129638671875 174.90830993652344 C154.23089599609375 176.52398681640625 153.641357421875 178.05650329589844 153.21633911132812 179.3557586669922 C152.79132080078125 180.65499877929688 152.53085327148438 181.72097778320312 152.5068817138672 182.40357971191406 C152.56166076660156 182.26637268066406 152.616455078125 182.129150390625 152.67481994628906 181.98272705078125 C152.68760681152344 181.9509735107422 152.700927734375 181.918212890625 152.71372985839844 181.88595581054688 C152.76800537109375 181.75027465820312 152.82382202148438 181.612548828125 152.88372802734375 181.46559143066406 C152.90521240234375 181.412353515625 152.92877197265625 181.35501098632812 152.9512939453125 181.3007354736328 C153.03269958496094 181.10208129882812 153.11770629882812 180.89471435546875 153.2078094482422 180.67762756347656 C153.26515197753906 180.5399169921875 153.32199096679688 180.4021759033203 153.38290405273438 180.2572784423828 C153.4218292236328 180.16513061523438 153.46278381347656 180.068359375 153.50271606445312 179.97312927246094 C153.56570434570312 179.82464599609375 153.62918090820312 179.67462158203125 153.6952362060547 179.5194854736328 C153.73670959472656 179.42221069335938 153.77972412109375 179.3228759765625 153.82272338867188 179.22305297851562 C153.89337158203125 179.05816650390625 153.96607971191406 178.8907470703125 154.04083251953125 178.71975708007812 C154.0833282470703 178.6219482421875 154.12582397460938 178.52467346191406 154.16934204101562 178.42483520507812 C154.25535583496094 178.2282257080078 154.34445190429688 178.02752685546875 154.43507385253906 177.82376098632812 C154.4698944091797 177.74488830566406 154.50369262695312 177.66860961914062 154.53952026367188 177.58924865722656 C154.80064392089844 177.00506591796875 155.08018493652344 176.3927001953125 155.37664794921875 175.75782775878906 C155.40634155273438 175.69485473632812 155.43655395507812 175.63034057617188 155.4667510986328 175.56634521484375 C155.5870819091797 175.3103485107422 155.70944213867188 175.05126953125 155.83486938476562 174.78810119628906 C155.87429809570312 174.70565795898438 155.9142303466797 174.62220764160156 155.9541778564453 174.53927612304688 C156.07705688476562 174.28326416015625 156.20249938964844 174.0247039794922 156.33050537109375 173.76358032226562 C156.3699188232422 173.6837158203125 156.40830993652344 173.60385131835938 156.44825744628906 173.52345275878906 C156.59622192382812 173.222900390625 156.7472686767578 172.91929626464844 156.90188598632812 172.61260986328125 C156.92083740234375 172.5752410888672 156.93927001953125 172.5383758544922 156.9582061767578 172.50048828125 C157.31353759765625 171.79647827148438 157.68576049804688 171.0786590576172 158.0728302001953 170.3521270751953 C158.11224365234375 170.27841186523438 158.15219116210938 170.20416259765625 158.19212341308594 170.13043212890625 C158.3441925048828 169.8472900390625 158.497802734375 169.5636444091797 158.65396118164062 169.27847290039062 C158.70565795898438 169.1842498779297 158.7578887939453 169.09005737304688 158.8101043701172 168.99533081054688 C158.9632110595703 168.71835327148438 159.1188507080078 168.44134521484375 159.27603149414062 168.163330078125 C159.32569885253906 168.07577514648438 159.37484741210938 167.98822021484375 159.4245147705078 167.90066528320312 C159.61395263671875 167.5688934326172 159.8059539794922 167.23712158203125 160.00103759765625 166.9053497314453 C160.26983642578125 166.44863891601562 160.4925537109375 166.0774383544922 160.71884155273438 165.707275390625 C160.74546813964844 165.66323852539062 160.77313232421875 165.61972045898438 160.8002471923828 165.57568359375 C160.99072265625 165.264892578125 161.18374633789062 164.95513916015625 161.37933349609375 164.64691162109375 C161.44229125976562 164.54757690429688 161.50579833984375 164.44876098632812 161.56927490234375 164.34996032714844 C161.73312377929688 164.09396362304688 161.89849853515625 163.83897399902344 162.06539916992188 163.5850372314453 C162.1381072998047 163.4744415283203 162.21133422851562 163.3638458251953 162.28506469726562 163.2532501220703 C162.45248413085938 163.00186157226562 162.6219482421875 162.7525177001953 162.79244995117188 162.50418090820312 C162.86106872558594 162.40435791015625 162.9291534423828 162.3040008544922 162.99826049804688 162.20468139648438 C163.21588134765625 161.89132690429688 163.43603515625 161.5810546875 163.65875244140625 161.27386474609375 C163.67922973632812 161.2451934814453 163.69972229003906 161.21600341796875 163.72018432617188 161.1873321533203 C163.96543884277344 160.85043334960938 164.2132568359375 160.5181427001953 164.46412658691406 160.18943786621094 C164.52915954589844 160.10446166992188 164.59519958496094 160.02149963378906 164.66021728515625 159.93702697753906 C164.84402465820312 159.69894409179688 165.02886962890625 159.46290588378906 165.21575927734375 159.23046875 C165.30381774902344 159.1208953857422 165.39239501953125 159.0128631591797 165.48095703125 158.90431213378906 C165.6504364013672 158.69696044921875 165.82144165039062 158.49215698242188 165.99295043945312 158.2899169921875 C166.08563232421875 158.1808624267578 166.17881774902344 158.07180786132812 166.27200317382812 157.96377563476562 C166.45172119140625 157.7564239501953 166.63294982910156 157.55316162109375 166.8152313232422 157.35194396972656 C166.898681640625 157.25978088378906 166.9811248779297 157.16607666015625 167.06509399414062 157.07545471191406 C167.32980346679688 156.78822326660156 167.5965576171875 156.50662231445312 167.86585998535156 156.23373413085938 C167.86534118652344 156.23423767089844 166.27713012695312 157.47891235351562 163.38995361328125 156.74623107910156"></path>
<path fill="#C7C1D3" fill-opacity="1.0"  filling="0" d="M154.70693969726562 187.30702209472656 C154.6444854736328 186.829833984375 154.450439453125 186.5384979248047 154.12940979003906 186.440185546875 C153.36805725097656 186.21133422851562 152.21710205078125 187.31417846679688 151.72146606445312 187.83949279785156 C151.23916625976562 187.52256774902344 150.1317138671875 186.89126586914062 149.36216735839844 187.19590759277344 C149.1092529296875 187.29574584960938 148.7836151123047 187.54354858398438 148.67047119140625 188.1543731689453 C148.5834197998047 188.62745666503906 148.67916870117188 188.96485900878906 148.95411682128906 189.15635681152344 C149.1041259765625 189.26080322265625 149.2956085205078 189.3032989501953 149.51065063476562 189.3032989501953 C149.90797424316406 189.3032989501953 150.38055419921875 189.15481567382812 150.80755615234375 188.97869873046875 C150.45172119140625 189.51834106445312 150.05950927734375 190.29248046875 149.8014678955078 191.33746337890625 L150.2986297607422 191.46035766601562 C150.6262969970703 190.13427734375 151.1900177001953 189.27154541015625 151.56787109375 188.8097381591797 C151.6195831298828 189.44000244140625 151.75885009765625 190.44094848632812 152.1382293701172 191.23712158203125 L152.60006713867188 191.01695251464844 C152.2186279296875 190.21670532226562 152.10189819335938 189.14816284179688 152.0660400390625 188.5849609375 C152.3758087158203 188.66177368164062 152.8048553466797 188.7441864013672 153.23239135742188 188.7441864013672 C153.64659118652344 188.7441864013672 154.05517578125 188.6668701171875 154.3424072265625 188.43084716796875 C154.5533447265625 188.25881958007812 154.7868194580078 187.9234619140625 154.70693969726562 187.30702209472656 M149.2474822998047 188.73651123046875 C149.12818908691406 188.653564453125 149.1420135498047 188.42471313476562 149.17477416992188 188.24755859375 C149.2316131591797 187.93780517578125 149.35450744628906 187.74937438964844 149.55007934570312 187.67257690429688 C149.6325225830078 187.6398162841797 149.7257080078125 187.6249542236328 149.82553100585938 187.6249542236328 C150.28326416015625 187.6249542236328 150.88894653320312 187.9270477294922 151.3031768798828 188.1809844970703 C150.54489135742188 188.57676696777344 149.5521240234375 188.94949340820312 149.2474822998047 188.73651123046875 M154.01779174804688 188.03558349609375 C153.6363525390625 188.3489227294922 152.76800537109375 188.2291259765625 152.1930389404297 188.08883666992188 C152.79359436035156 187.47955322265625 153.6302032470703 186.81344604492188 153.97938537597656 186.9291534423828 C154.11865234375 186.97164916992188 154.17599487304688 187.19386291503906 154.1990509033203 187.37203979492188 C154.24000549316406 187.6853790283203 154.18060302734375 187.90194702148438 154.01779174804688 188.03558349609375"></path>
<path fill="#C7C1D3" fill-opacity="1.0"  filling="0" d="M154.70693969726562 187.30702209472656 C154.6444854736328 186.829833984375 154.450439453125 186.5384979248047 154.12940979003906 186.440185546875 C153.36805725097656 186.21133422851562 152.21710205078125 187.31417846679688 151.72146606445312 187.83949279785156 C151.23916625976562 187.52256774902344 150.1317138671875 186.89126586914062 149.36216735839844 187.19590759277344 C149.1092529296875 187.29574584960938 148.7836151123047 187.54354858398438 148.67047119140625 188.1543731689453 C148.5834197998047 188.62745666503906 148.67916870117188 188.96485900878906 148.95411682128906 189.15635681152344 C149.1041259765625 189.26080322265625 149.2956085205078 189.3032989501953 149.51065063476562 189.3032989501953 C149.90797424316406 189.3032989501953 150.38055419921875 189.15481567382812 150.80755615234375 188.97869873046875 C150.45172119140625 189.51834106445312 150.05950927734375 190.29248046875 149.8014678955078 191.33746337890625 L150.2986297607422 191.46035766601562 C150.6262969970703 190.13427734375 151.1900177001953 189.27154541015625 151.56787109375 188.8097381591797 C151.6195831298828 189.44000244140625 151.75885009765625 190.44094848632812 152.1382293701172 191.23712158203125 L152.60006713867188 191.01695251464844 C152.2186279296875 190.21670532226562 152.10189819335938 189.14816284179688 152.0660400390625 188.5849609375 C152.3758087158203 188.66177368164062 152.8048553466797 188.7441864013672 153.23239135742188 188.7441864013672 C153.64659118652344 188.7441864013672 154.05517578125 188.6668701171875 154.3424072265625 188.43084716796875 C154.5533447265625 188.25881958007812 154.7868194580078 187.9234619140625 154.70693969726562 187.30702209472656 M149.2474822998047 188.73651123046875 C149.12818908691406 188.653564453125 149.1420135498047 188.42471313476562 149.17477416992188 188.24755859375 C149.2316131591797 187.93780517578125 149.35450744628906 187.74937438964844 149.55007934570312 187.67257690429688 C149.6325225830078 187.6398162841797 149.7257080078125 187.6249542236328 149.82553100585938 187.6249542236328 C150.28326416015625 187.6249542236328 150.88894653320312 187.9270477294922 151.3031768798828 188.1809844970703 C150.54489135742188 188.57676696777344 149.5521240234375 188.94949340820312 149.2474822998047 188.73651123046875 M154.01779174804688 188.03558349609375 C153.6363525390625 188.3489227294922 152.76800537109375 188.2291259765625 152.1930389404297 188.08883666992188 C152.79359436035156 187.47955322265625 153.6302032470703 186.81344604492188 153.97938537597656 186.9291534423828 C154.11865234375 186.97164916992188 154.17599487304688 187.19386291503906 154.1990509033203 187.37203979492188 C154.24000549316406 187.6853790283203 154.18060302734375 187.90194702148438 154.01779174804688 188.03558349609375"></path>
<path fill="#C7C1D3" fill-opacity="1.0"  filling="0" d="M100.77542114257812 183.33029174804688 C101.09644317626953 182.97190856933594 101.19116973876953 182.635009765625 101.0565185546875 182.32730102539062 C100.73394775390625 181.60128784179688 99.14726257324219 181.44717407226562 98.42585754394531 181.4138946533203 C98.35161590576172 180.84197998046875 98.10841369628906 179.59066772460938 97.37574005126953 179.20562744140625 C97.13510131835938 179.0791778564453 96.7352294921875 178.99365234375 96.19813537597656 179.3059844970703 C95.78291320800781 179.54815673828125 95.58937072753906 179.84103393554688 95.6231689453125 180.17434692382812 C95.6416015625 180.35609436035156 95.73426818847656 180.52915954589844 95.87455749511719 180.6919708251953 C96.13362884521484 180.9930419921875 96.55398559570312 181.25465393066406 96.9666519165039 181.4640655517578 C96.32511901855469 181.54598999023438 95.48287963867188 181.7533416748047 94.52185821533203 182.2387237548828 L94.75276184082031 182.69593811035156 C95.97184753417969 182.0800018310547 96.99378967285156 181.94482421875 97.59027099609375 181.93051147460938 C97.14585876464844 182.38055419921875 96.47769165039062 183.13882446289062 96.121337890625 183.94573974609375 L96.58930969238281 184.152587890625 C96.94770812988281 183.34207153320312 97.68140411376953 182.55667114257812 98.08486938476562 182.16192626953125 C98.22872924804688 182.44659423828125 98.44581604003906 182.82598876953125 98.72434997558594 183.15008544921875 C98.99417877197266 183.4639434814453 99.3198013305664 183.7235107421875 99.6858901977539 183.7875213623047 C99.9531478881836 183.83462524414062 100.36019134521484 183.7926483154297 100.77542114257812 183.33029174804688 M96.13209533691406 180.1221160888672 C96.11724853515625 179.9772186279297 96.30003356933594 179.83847045898438 96.45568084716797 179.7483673095703 C96.72805786132812 179.58963012695312 96.95027160644531 179.5599365234375 97.13664245605469 179.65823364257812 C97.21548461914062 179.69920349121094 97.28717041015625 179.7601318359375 97.3521957397461 179.83642578125 C97.65068817138672 180.1835479736328 97.81657409667969 180.83993530273438 97.89389038085938 181.31918334960938 C97.09874725341797 181.00222778320312 96.16946411132812 180.49227905273438 96.13209533691406 180.1221160888672 M99.7734375 183.283203125 C99.28703308105469 183.19821166992188 98.81190490722656 182.46144104003906 98.54309844970703 181.93408203125 C99.3966064453125 181.991943359375 100.44723510742188 182.19212341308594 100.58700561523438 182.5331268310547 C100.64588928222656 182.666748046875 100.51480865478516 182.8546600341797 100.39398193359375 182.98828125 C100.18355560302734 183.2227783203125 99.98079681396484 183.3190460205078 99.7734375 183.283203125"></path>
<path fill="#C58C5D" fill-opacity="1.0"  filling="0" d="M110.96012878417969 168.56576538085938 C113.9420166015625 168.1450653076172 116.22900390625 168.06582641601562 117.95304107666016 168.1471405029297 C119.67707824707031 168.22845458984375 120.83816528320312 168.47032165527344 121.5682373046875 168.69186401367188 C122.29830932617188 168.9134063720703 122.59737396240234 169.1146240234375 122.59737396240234 169.1146240234375 C122.22515106201172 167.9974365234375 122.16114807128906 167.09426879882812 122.16114807128906 167.09426879882812 C122.16114807128906 167.09426879882812 121.5832748413086 167.0997314453125 120.59054565429688 167.15969848632812 C119.59781646728516 167.21966552734375 118.19023132324219 167.33412170410156 116.53082275390625 167.5521240234375 C114.87141418457031 167.77011108398438 112.96017456054688 168.09164428710938 110.96012878417969 168.56576538085938"></path>
<path fill="#C58C5D" fill-opacity="1.0"  filling="0" d="M126.06361389160156 173.82861328125 C125.8239974975586 173.83013916015625 124.53836822509766 173.78305053710938 123.82463836669922 172.66586303710938 C123.82463836669922 172.66586303710938 123.03480529785156 172.82070922851562 121.73942565917969 173.08619689941406 C120.44404602050781 173.35166931152344 118.64311981201172 173.727783203125 116.62092590332031 174.1702880859375 C114.5987319946289 174.61280822753906 112.35527038574219 175.12171936035156 110.17481994628906 175.65283203125 C107.99437713623047 176.18394470214844 105.876953125 176.73724365234375 104.10682678222656 177.2685089111328 C102.33670043945312 177.79977416992188 100.91386413574219 178.30902099609375 100.12261962890625 178.7519989013672 C100.12261962890625 178.7519989013672 100.30433654785156 178.6794891357422 100.69621276855469 178.54808044433594 C101.08808135986328 178.4166717529297 101.69010925292969 178.22634887695312 102.53073120117188 177.99073791503906 C103.37135314941406 177.75511169433594 104.4505615234375 177.47418212890625 105.79679870605469 177.16152954101562 C107.14303588867188 176.84889221191406 108.75630950927734 176.50454711914062 110.66504669189453 176.14208984375 C112.57377624511719 175.77963256835938 114.77798461914062 175.3990478515625 117.30609130859375 175.01397705078125 C119.83419799804688 174.62890625 122.68621063232422 174.23931884765625 125.89056396484375 173.8588104248047 C125.94892883300781 173.85215759277344 126.0052490234375 173.83731079101562 126.06361389160156 173.82861328125"></path></svg>