<svg xmlns="http://www.w3.org/2000/svg" viewBox="0.0 0.0 256.0 256.0" height="256.0px" width="256.0px"><path fill="#ffc4a8" fill-opacity="1.0"  filling="0" d="M136.29644775390625 89.8892822265625 C136.29644775390625 89.8892822265625 137.29638671875 89.11536407470703 138.7312469482422 87.99647521972656 C140.16612243652344 86.87757873535156 142.0359344482422 85.41371154785156 143.77566528320312 84.0338134765625 C145.51541137695312 82.65391540527344 147.12509155273438 81.35798645019531 148.03968811035156 80.5749740600586 C148.95428466796875 79.79195404052734 149.7598876953125 78.92951965332031 150.5334930419922 77.96271514892578 C151.30709838867188 76.99591064453125 152.04873657226562 75.92472839355469 152.8353729248047 74.7242202758789 C153.62200927734375 73.52371215820312 154.45367431640625 72.19387817382812 155.40736389160156 70.70975494384766 C156.9039306640625 68.38143920898438 157.98719787597656 66.45580291748047 158.69631958007812 65.11225128173828 C159.4054412841797 63.768699645996094 159.74041748046875 63.007225036621094 159.74041748046875 63.007225036621094 C159.74041748046875 63.007225036621094 160.86016845703125 63.33439636230469 161.99559020996094 63.87717819213867 C163.13101196289062 64.41996765136719 164.2821044921875 65.17835998535156 164.34483337402344 66.04082489013672 C164.37594604492188 66.47206115722656 164.06422424316406 67.53942108154297 163.5587158203125 68.92973327636719 C163.05320739746094 70.3200454711914 162.35389709472656 72.03330993652344 161.60980224609375 73.75634765625 C160.86569213867188 75.47938537597656 160.07681274414062 77.21220397949219 159.39218139648438 78.64161682128906 C158.70751953125 80.07102966308594 158.12710571289062 81.19705200195312 157.79994201660156 81.70648956298828 C157.53810119628906 82.11393737792969 156.77951049804688 83.00000762939453 155.71078491210938 84.16384887695312 C154.64205932617188 85.32769012451172 153.2632293701172 86.7693099975586 151.76092529296875 88.28785705566406 C150.2586212158203 89.80640411376953 148.6328582763672 91.40188598632812 147.0702667236328 92.87345123291016 C145.50765991210938 94.34501647949219 144.00823974609375 95.69267272949219 142.75865173339844 96.71556854248047 C141.50906372070312 97.73846435546875 140.50927734375 98.43659973144531 139.94598388671875 98.60914611816406 C139.00714111328125 98.89688873291016 137.9514617919922 98.26422882080078 137.07354736328125 97.21269989013672 C136.19564819335938 96.16116333007812 135.49551391601562 94.69076538085938 135.26779174804688 93.30301666259766 C135.04005432128906 91.91526794433594 135.28472900390625 90.61018371582031 136.29644775390625 89.8892822265625"></path>
<path fill="#ffe2e0" fill-opacity="1.0"  filling="0" d="M130.76480102539062 92.88703918457031 C130.76480102539062 92.88652801513672 132.63206481933594 91.74272155761719 134.36825561523438 90.42124938964844 C135.52281188964844 89.5411148071289 136.3650665283203 88.26060485839844 137.4904327392578 88.36044311523438 C138.89791870117188 88.48588562011719 140.14810180664062 90.068603515625 141.08224487304688 91.78470611572266 C142.01638793945312 93.50080108642578 142.63449096679688 95.35027313232422 142.77786254882812 96.00921630859375 C142.92095947265625 96.66841125488281 142.50572204589844 98.527099609375 141.7413787841797 100.26758575439453 C140.97702026367188 102.00806427001953 139.86355590820312 103.63034057617188 138.61016845703125 103.81670379638672 C137.9833526611328 103.91001892089844 136.98492431640625 103.61782836914062 135.88853454589844 103.04098510742188 C134.79214477539062 102.46414184570312 133.59779357910156 101.60265350341797 132.57913208007812 100.557373046875 C131.56048583984375 99.51209259033203 130.71751403808594 98.28302001953125 130.32391357421875 96.97101593017578 C129.9302978515625 95.65901184082031 129.98605346679688 94.26406860351562 130.76480102539062 92.88703918457031"></path>
<path fill="#e7b198" fill-opacity="1.0"  filling="0" d="M148.173828125 143.4659881591797 C148.4772491455078 143.67532348632812 148.89266967773438 144.3013916015625 149.37950134277344 145.244384765625 C149.8663330078125 146.1873779296875 150.424560546875 147.4473114013672 151.01364135742188 148.92440795898438 C151.6027069091797 150.40150451660156 152.2226104736328 152.0957794189453 152.832763671875 153.9074249267578 C153.4429168701172 155.71908569335938 154.0433349609375 157.64813232421875 154.59341430664062 159.59481811523438 C155.14349365234375 161.54148864746094 155.64324951171875 163.5057830810547 156.05209350585938 165.38792419433594 C156.4609375 167.2700653076172 156.77886962890625 169.07005310058594 156.96531677246094 170.6881103515625 C157.15176391601562 172.30616760253906 157.20672607421875 173.7423095703125 157.08961486816406 174.89674377441406 C156.97250366210938 176.05117797851562 156.68331909179688 176.92391967773438 156.18150329589844 177.41517639160156 C155.27816772460938 178.29922485351562 154.0594940185547 178.62046813964844 152.7900848388672 178.55320739746094 C151.52069091796875 178.48594665527344 150.2005615234375 178.03018188476562 149.09432983398438 177.3601837158203 C147.9880828857422 176.690185546875 147.09573364257812 175.80596923828125 146.68185424804688 174.88180541992188 C146.4336395263672 174.3271026611328 145.8660125732422 173.38491821289062 145.1134490966797 172.18569946289062 C144.36087036132812 170.98648071289062 143.42335510253906 169.53024291992188 142.43536376953125 167.9474334716797 C141.44735717773438 166.3646240234375 140.4088592529297 164.6552276611328 139.454345703125 162.94972229003906 C138.49981689453125 161.2442169189453 137.6292724609375 159.54258728027344 136.97715759277344 157.97528076171875 C136.32504272460938 156.40798950195312 135.891357421875 154.9750213623047 135.81056213378906 153.8068389892578 C135.70956420898438 152.34661865234375 136.28013610839844 150.86550903320312 137.23069763183594 149.4913787841797 C138.18125915527344 148.11724853515625 139.51181030273438 146.85011291503906 140.93081665039062 145.81785583496094 C142.34982299804688 144.7855987548828 143.85728454589844 143.98822021484375 145.16163635253906 143.55361938476562 C146.4659881591797 143.1190185546875 147.56723022460938 143.04718017578125 148.173828125 143.4659881591797"></path>
<path fill="#da6c57" fill-opacity="1.0"  filling="0" d="M143.12754821777344 126.55410766601562 C143.12754821777344 126.55410766601562 143.55767822265625 127.35385131835938 144.17918395996094 128.55331420898438 C144.80067443847656 129.75277709960938 145.613525390625 131.3519744873047 146.37893676757812 132.9508514404297 C147.1443634033203 134.5497283935547 147.86236572265625 136.1483154296875 148.2941436767578 137.3465576171875 C148.72593688964844 138.54481506347656 149.22262573242188 140.3477325439453 149.6929931640625 142.2190704345703 C150.16334533691406 144.09042358398438 150.60736083984375 146.03018188476562 150.9337921142578 147.50210571289062 C151.26022338867188 148.97402954101562 151.46905517578125 149.97811889648438 151.46905517578125 149.97811889648438 C151.46905517578125 149.97811889648438 150.25657653808594 150.52288818359375 148.53903198242188 151.18569946289062 C146.82147216796875 151.8485107421875 144.59884643554688 152.62936401367188 142.5785369873047 153.10154724121094 C140.5582275390625 153.57373046875 138.740234375 153.73721313476562 137.83193969726562 153.16531372070312 C137.28665161132812 152.82217407226562 136.7353515625 151.69248962402344 136.20225524902344 150.1046142578125 C135.66915893554688 148.51673889160156 135.1542510986328 146.47067260742188 134.6817626953125 144.2947540283203 C134.2092742919922 142.11883544921875 133.77920532226562 139.81304931640625 133.415771484375 137.7057647705078 C133.05233764648438 135.59848022460938 132.75555419921875 133.68966674804688 132.54962158203125 132.30767822265625 C132.34368896484375 130.92568969726562 132.22860717773438 130.07052612304688 132.22860717773438 130.07052612304688 L135.86158752441406 128.8983917236328 L139.49456787109375 127.72624969482422 L143.12754821777344 126.55410766601562"></path>
<path fill="#c8b9b4" fill-opacity="1.0"  filling="0" d="M131.10476684570312 195.36334228515625 C131.10476684570312 195.36334228515625 130.29461669921875 196.01795959472656 129.23960876464844 196.97378540039062 C128.18460083007812 197.9296112060547 126.88475036621094 199.1866455078125 125.90534973144531 200.3914794921875 C124.92594909667969 201.5963134765625 124.26700592041016 202.74893188476562 124.49382019042969 203.49594116210938 C124.6640625 204.0561981201172 125.18793487548828 205.1336669921875 125.93336486816406 206.41810607910156 C126.67879486083984 207.7025604248047 127.64579010009766 209.19398498535156 128.7022705078125 210.58213806152344 C129.75875854492188 211.97030639648438 130.90472412109375 213.2552032470703 132.0081024169922 214.12660217285156 C133.1114959716797 214.99798583984375 134.17230224609375 215.45587158203125 135.05844116210938 215.1900177001953 C136.16946411132812 214.856201171875 137.5457305908203 213.43643188476562 137.26719665527344 211.72940063476562 C137.03236389160156 210.28709411621094 136.72357177734375 208.7504119873047 136.40347290039062 207.28814697265625 C136.0833740234375 205.82586669921875 135.75198364257812 204.43801879882812 135.47193908691406 203.29335021972656 C135.19189453125 202.148681640625 134.96319580078125 201.24722290039062 134.8485107421875 200.7577667236328 C134.67596435546875 200.0235595703125 133.74002075195312 198.67494201660156 132.84722900390625 197.5098876953125 C131.95443725585938 196.3448486328125 131.10476684570312 195.36334228515625 131.10476684570312 195.36334228515625"></path>
<path fill="#e7b198" fill-opacity="1.0"  filling="0" d="M147.96031188964844 170.4478759765625 C146.40455627441406 171.3448028564453 145.12721252441406 172.45799255371094 144.05218505859375 173.70086669921875 C142.97715759277344 174.94375610351562 142.10443115234375 176.31631469726562 141.35787963867188 177.73199462890625 C140.61134338378906 179.1476593017578 139.99098205566406 180.6064453125 139.4207000732422 182.02174377441406 C138.85040283203125 183.43704223632812 138.33018493652344 184.8088836669922 137.78390502929688 186.0506591796875 C137.2376251220703 187.29241943359375 136.665283203125 188.40414428710938 135.99078369140625 189.29920959472656 C135.23660278320312 190.3004150390625 133.92845153808594 191.9145050048828 132.8231658935547 193.3753662109375 C131.7178955078125 194.8362274169922 130.81549072265625 196.1438751220703 130.87283325195312 196.5322265625 C131.2005157470703 198.76864624023438 131.74732971191406 199.63136291503906 133.33810424804688 200.3184814453125 C134.93043518066406 201.0091552734375 135.4695587158203 198.96678161621094 136.574462890625 197.57363891601562 C136.72857666015625 197.3795928955078 137.2239227294922 196.85818481445312 137.9624786376953 196.10438537597656 C138.70101928710938 195.35057067871094 139.68276977539062 194.36436462402344 140.80966186523438 193.2406768798828 C141.93655395507812 192.11700439453125 143.20860290527344 190.85586547851562 144.52777099609375 189.55221557617188 C145.846923828125 188.24856567382812 147.2132110595703 186.9023895263672 148.52854919433594 185.608642578125 C149.84390258789062 184.3148956298828 151.10830688476562 183.07357788085938 152.2237548828125 181.97964477539062 C153.0342559814453 181.1848602294922 153.9112548828125 180.2642822265625 154.70614624023438 179.25839233398438 C155.50103759765625 178.25250244140625 156.21380615234375 177.1613006591797 156.69586181640625 176.02523803710938 C157.17791748046875 174.88919067382812 157.42926025390625 173.70828247070312 157.30125427246094 172.52301025390625 C157.17343139648438 171.33790588378906 156.47943115234375 170.4894561767578 155.4821014404297 169.95919799804688 C154.48475646972656 169.42893981933594 153.18406677246094 169.21685791015625 151.84283447265625 169.30447387695312 C150.5015869140625 169.39208984375 149.11981201171875 169.77938842773438 147.96031188964844 170.4478759765625"></path>
<path fill="#b2a09b" fill-opacity="1.0"  filling="0" d="M133.0662384033203 192.88473510742188 L135.119873046875 195.1894989013672 L137.17349243164062 197.4942626953125 C137.17349243164062 197.4942626953125 135.3026580810547 198.99954223632812 134.30630493164062 201.01528930664062 C133.92562866210938 201.78636169433594 132.62757873535156 200.81932067871094 131.42469787597656 199.65951538085938 C130.22181701660156 198.4997100830078 129.11410522460938 197.1471405029297 129.11410522460938 197.1471405029297 L131.09017944335938 195.01593017578125 L133.0662384033203 192.88473510742188"></path>
<path fill="#a794a1" fill-opacity="1.0"  filling="0" d="M135.76602172851562 202.71563720703125 C134.7599334716797 202.3546905517578 133.9647979736328 203.05255126953125 132.98431396484375 203.10015869140625 C132.6755828857422 203.11550903320312 132.5148162841797 203.59579467773438 132.8353271484375 203.73043823242188 C133.93101501464844 204.1886749267578 134.80345153808594 203.39456176757812 135.7757568359375 203.0207977294922 C135.9298553466797 202.9608917236328 135.91346740722656 202.76788330078125 135.76602172851562 202.71563720703125 M136.09829711914062 204.6033935546875 C135.40249633789062 203.62393188476562 133.81785583496094 204.20404052734375 133.15379333496094 204.9249267578125 C133.02732849121094 205.06112670898438 133.13023376464844 205.27462768554688 133.3114776611328 205.27462768554688 C133.78610229492188 205.275634765625 134.1854705810547 205.1287078857422 134.64064025878906 205.02169799804688 C135.0998992919922 204.9131622314453 135.57452392578125 204.890625 136.0327606201172 204.77798461914062 C136.1029052734375 204.7611083984375 136.1413116455078 204.663818359375 136.09829711914062 204.6033935546875 M136.26316833496094 206.12966918945312 C135.6037139892578 205.4359130859375 134.47422790527344 205.93511962890625 133.67501831054688 205.99655151367188 C133.17837524414062 206.03443908691406 133.233154296875 206.70106506347656 133.70265197753906 206.74612426757812 C134.4813995361328 206.8218994140625 135.46751403808594 206.7481689453125 136.19252014160156 206.42816162109375 C136.3153839111328 206.3739013671875 136.3625030517578 206.23411560058594 136.26316833496094 206.12966918945312"></path>
<path fill="#e0cfca" fill-opacity="1.0"  filling="0" d="M106.05722045898438 156.13133239746094 C106.05722045898438 156.13133239746094 105.23938751220703 155.48626708984375 104.07357788085938 154.66915893554688 C102.90777587890625 153.85205078125 101.39399719238281 152.86288452148438 100.00211334228516 152.1746826171875 C98.6102294921875 151.48648071289062 97.34024047851562 151.0992431640625 96.66201782226562 151.4859619140625 C96.1533432006836 151.7760009765625 95.2186279296875 152.52542114257812 94.13114166259766 153.5366973876953 C93.04366302490234 154.54798889160156 91.80342102050781 155.82115173339844 90.68370819091797 157.15872192382812 C89.56399536132812 158.4962921142578 88.5648193359375 159.89825439453125 87.9594497680664 161.16714477539062 C87.35408020019531 162.43603515625 87.14252471923828 163.57183837890625 87.59807586669922 164.37709045410156 C88.16946411132812 165.38726806640625 89.85856628417969 166.41383361816406 91.46214294433594 165.76461791992188 C92.8163833618164 165.21592712402344 94.2464599609375 164.57444763183594 95.60153198242188 163.9385223388672 C96.95660400390625 163.30259704589844 98.23667907714844 162.67222595214844 99.29092407226562 162.14576721191406 C100.34516906738281 161.61929321289062 101.173583984375 161.19671630859375 101.6253433227539 160.9763946533203 C102.302978515625 160.64590454101562 103.41094207763672 159.43463134765625 104.34950256347656 158.3059844970703 C105.28807067871094 157.17735290527344 106.05722045898438 156.13133239746094 106.05722045898438 156.13133239746094"></path>
<path fill="#ffc4a8" fill-opacity="1.0"  filling="0" d="M134.0861358642578 167.05075073242188 C132.86695861816406 165.7323455810547 131.49855041503906 164.7333221435547 130.04847717285156 163.9602508544922 C128.59840393066406 163.18719482421875 127.06665802001953 162.64010620117188 125.52082061767578 162.2255859375 C123.97498321533203 161.8110809326172 122.41504669189453 161.52914428710938 120.9085922241211 161.28640747070312 C119.40213012695312 161.04367065429688 117.94915771484375 160.84010314941406 116.61722564697266 160.58233642578125 C115.28529357910156 160.3245849609375 114.07441711425781 160.01260375976562 113.05215454101562 159.55303955078125 C111.90911865234375 159.03924560546875 110.0454330444336 158.12109375 108.37606048583984 157.36685180664062 C106.70668029785156 156.61260986328125 105.23161315917969 156.02227783203125 104.86578369140625 156.16409301757812 C102.75736999511719 156.97817993164062 102.03750610351562 157.7031707763672 101.71903991699219 159.4071044921875 C101.39852905273438 161.11257934570312 103.50898742675781 161.18629455566406 105.112060546875 161.95481872558594 C105.33539581298828 162.0621337890625 105.95358276367188 162.4297332763672 106.852294921875 162.98301696777344 C107.75100708007812 163.5363006591797 108.93024444580078 164.27528381347656 110.27566528320312 165.1253662109375 C111.62109375 165.97544860839844 113.13270568847656 166.93663024902344 114.6961898803711 167.93434143066406 C116.2596664428711 168.93203735351562 117.875 169.9662628173828 119.42786407470703 170.96240234375 C120.98072814941406 171.95855712890625 122.47111511230469 172.9166259765625 123.78470611572266 173.76205444335938 C124.73907470703125 174.37644958496094 125.83094024658203 175.02777099609375 126.98786926269531 175.58013916015625 C128.14480590820312 176.13250732421875 129.36679077148438 176.5859375 130.58140563964844 176.80453491210938 C131.7960205078125 177.0231475830078 133.00326538085938 177.00692749023438 134.1306915283203 176.62002563476562 C135.25845336914062 176.2327880859375 135.9322967529297 175.36801147460938 136.22857666015625 174.2779083251953 C136.52484130859375 173.18780517578125 136.4435577392578 171.8723602294922 136.06103515625 170.58377075195312 C135.6785125732422 169.29518127441406 134.99476623535156 168.033447265625 134.0861358642578 167.05075073242188"></path>
<path fill="#cab6b0" fill-opacity="1.0"  filling="0" d="M108.9085464477539 157.49530029296875 L107.11577606201172 160.00819396972656 L105.32300567626953 162.52108764648438 C105.32300567626953 162.52108764648438 103.4408950805664 161.0301513671875 101.25363159179688 160.50482177734375 C100.41804504394531 160.3041229248047 101.07391357421875 158.82406616210938 101.93868255615234 157.39418029785156 C102.80345153808594 155.96429443359375 103.87711334228516 154.58457946777344 103.87711334228516 154.58457946777344 L106.39282989501953 156.03994750976562 L108.9085464477539 157.49530029296875"></path>
<path fill="#bfa9b8" fill-opacity="1.0"  filling="0" d="M99.91885375976562 162.3045196533203 C100.04889678955078 161.24363708496094 99.19232177734375 160.62258911132812 98.9276123046875 159.6774444580078 C98.84467315673828 159.37945556640625 98.34034729003906 159.32928466796875 98.27993774414062 159.67181396484375 C98.07615661621094 160.8422393798828 99.04280853271484 161.51756286621094 99.62393188476562 162.38235473632812 C99.71609497070312 162.51904296875 99.9004135131836 162.46067810058594 99.91885375976562 162.3045196533203 M98.15296173095703 163.04690551757812 C98.95372772216797 162.15142822265625 98.03673553466797 160.7342071533203 97.18681335449219 160.2467803955078 C97.0255355834961 160.15359497070312 96.83967590332031 160.30055236816406 96.880126953125 160.47821044921875 C96.98406219482422 160.94107055664062 97.21497344970703 161.2979278564453 97.42079162597656 161.7177734375 C97.62918853759766 162.14170837402344 97.75564575195312 162.59994506835938 97.96710205078125 163.02183532714844 C97.99935913085938 163.0873565673828 98.102783203125 163.10220336914062 98.15296173095703 163.04690551757812 M96.700927734375 163.54611206054688 C97.23135375976562 162.7494354248047 96.49459075927734 161.75820922851562 96.25804138183594 160.99224853515625 C96.110595703125 160.5166015625 95.47161865234375 160.71835327148438 95.53202819824219 161.185791015625 C95.63187408447266 161.9619903564453 95.921142578125 162.9076385498047 96.39424133300781 163.54354858398438 C96.47360229492188 163.6505584716797 96.62054443359375 163.6654052734375 96.700927734375 163.54611206054688"></path>
<path fill="#ffc4a8" fill-opacity="1.0"  filling="0" d="M138.17855834960938 141.62535095214844 C138.39590454101562 141.92308044433594 138.58157348632812 142.65113830566406 138.73016357421875 143.7019500732422 C138.87875366210938 144.7527618408203 138.99024963378906 146.12632751464844 139.05926513671875 147.71507263183594 C139.12826538085938 149.30381774902344 139.15476989746094 151.1077423095703 139.13336181640625 153.01927185058594 C139.11195373535156 154.93080139160156 139.0426483154297 156.94993591308594 138.9199981689453 158.96910095214844 C138.79736328125 160.98826599121094 138.62139892578125 163.00747680664062 138.38670349121094 164.91912841796875 C138.15200805664062 166.83078002929688 137.8585662841797 168.63490295410156 137.5009765625 170.22390747070312 C137.1433868408203 171.81289672851562 136.72164916992188 173.18678283691406 136.2303466796875 174.23797607421875 C135.73904418945312 175.28916931152344 135.17819213867188 176.01766967773438 134.54234313964844 176.31591796875 C133.398193359375 176.8524932861328 132.14186096191406 176.75384521484375 130.96571350097656 176.27169799804688 C129.78958129882812 175.78956604003906 128.69363403320312 174.9239501953125 127.87025451660156 173.92657470703125 C127.04688262939453 172.92919921875 126.49607849121094 171.80006408691406 126.41024017333984 170.79090881347656 C126.35863494873047 170.1854248046875 126.13333129882812 169.10877990722656 125.8182373046875 167.728515625 C125.50314331054688 166.34823608398438 125.0982437133789 164.664306640625 124.68744659423828 162.84423828125 C124.27664947509766 161.024169921875 123.85994720458984 159.0679473876953 123.521240234375 157.14308166503906 C123.18254089355469 155.2182159423828 122.92182159423828 153.32470703125 122.822998046875 151.63003540039062 C122.72416687011719 149.93536376953125 122.78722381591797 148.43954467773438 123.09606170654297 147.31007385253906 C123.48210906982422 145.8982391357422 124.50911712646484 144.6881561279297 125.85964965820312 143.70440673828125 C127.2101821899414 142.72067260742188 128.8842315673828 141.9632568359375 130.56436157226562 141.45677185058594 C132.24449157714844 140.9502716064453 133.93069458007812 140.69468688964844 135.3055419921875 140.714599609375 C136.68038940429688 140.7344970703125 137.74386596679688 141.02989196777344 138.17855834960938 141.62535095214844"></path>
<path fill="#ff7760" fill-opacity="1.0"  filling="0" d="M123.06380462646484 129.11053466796875 C123.06380462646484 129.11053466796875 122.67479705810547 129.78944396972656 122.17391204833984 130.9527587890625 C121.67301940917969 132.1160888671875 121.06025695800781 133.76380920410156 120.61273193359375 135.70144653320312 C120.16520690917969 137.63906860351562 119.88291931152344 139.86660766601562 120.04300689697266 142.18955993652344 C120.20343780517578 144.51234436035156 120.54368591308594 146.6044921875 120.92605590820312 148.36167907714844 C121.30842590332031 150.11886596679688 121.73291015625 151.5410919189453 122.06180572509766 152.52401733398438 C122.39070129394531 153.50694274902344 122.6240005493164 154.05056762695312 122.6240005493164 154.05056762695312 C122.6240005493164 154.05056762695312 123.56778717041016 153.80691528320312 124.93042755126953 153.4912872314453 C126.2930679321289 153.1756591796875 128.07455444335938 152.7880859375 129.74996948242188 152.50021362304688 C131.42538452148438 152.2123565673828 132.99472045898438 152.02423095703125 133.9330596923828 152.10751342773438 C135.34054565429688 152.23245239257812 136.6728973388672 152.80523681640625 137.65338134765625 153.34681701660156 C138.63385009765625 153.8883819580078 139.26246643066406 154.39871215820312 139.26246643066406 154.39871215820312 C139.26246643066406 154.39871215820312 139.30120849609375 152.9908905029297 139.34571838378906 151.05145263671875 C139.39022827148438 149.1120147705078 139.44049072265625 146.64097595214844 139.4635467529297 144.51454162597656 C139.48660278320312 142.38812255859375 139.48245239257812 140.60629272460938 139.41810607910156 140.04531860351562 C139.35342407226562 139.48416137695312 139.27992248535156 138.1773681640625 139.21067810058594 136.6843719482422 C139.14141845703125 135.19137573242188 139.076416015625 133.51219177246094 139.0287322998047 132.2062530517578 C138.9810333251953 130.9003143310547 138.95065307617188 129.96762084960938 138.95065307617188 129.96762084960938 C138.95065307617188 129.96762084960938 138.0745849609375 129.85629272460938 136.7312774658203 129.7037353515625 C135.38796997070312 129.55117797851562 133.57740783691406 129.35740661621094 131.70840454101562 129.19252014160156 C129.83941650390625 129.02761840820312 127.91199493408203 128.8916015625 126.33495330810547 128.85458374023438 C124.75791931152344 128.81753540039062 123.53126525878906 128.87948608398438 123.06380462646484 129.11053466796875"></path>
<path fill="#ffe2e0" fill-opacity="1.0"  filling="0" d="M135.8515167236328 94.09996795654297 C136.4478302001953 94.58415222167969 137.01132202148438 95.40647888183594 137.55868530273438 96.38788604736328 C138.10604858398438 97.36929321289062 138.63729858398438 98.5097885131836 139.16912841796875 99.63028717041016 C139.70095825195312 100.75079345703125 140.2333984375 101.85130310058594 140.78311157226562 102.75276184082031 C141.62509155273438 104.13414001464844 141.957763671875 105.61701965332031 142.0081329345703 106.99225616455078 C142.05850219726562 108.36749267578125 141.82656860351562 109.63507080078125 141.53932189941406 110.58586120605469 C141.26258850097656 111.50464630126953 141.285400390625 112.9657974243164 141.47265625 114.6517562866211 C141.659912109375 116.33771514892578 142.01161193847656 118.24848175048828 142.39263916015625 120.06649780273438 C142.77366638183594 121.88450622558594 143.18402099609375 123.60977172851562 143.48858642578125 124.92472076416016 C143.79315185546875 126.23966979980469 143.991943359375 127.14431762695312 143.9498291015625 127.32108306884766 C143.8935089111328 127.55712127685547 143.2453155517578 128.09825134277344 142.24899291992188 128.74314880371094 C141.252685546875 129.38803100585938 139.9082489013672 130.13668823242188 138.45944213867188 130.78778076171875 C137.01063537597656 131.43887329101562 135.45745849609375 131.99240112304688 134.04364013671875 132.24703979492188 C132.62933349609375 132.50201416015625 130.97340393066406 132.62796020507812 129.34889221191406 132.61912536621094 C127.72437286376953 132.61029052734375 126.13125610351562 132.4666748046875 124.8425521850586 132.1824951171875 C123.55384826660156 131.8983154296875 122.5695571899414 131.47357177734375 122.16268920898438 130.90252685546875 C121.85728454589844 130.47412109375 121.76371002197266 129.64697265625 121.7607192993164 128.51832580566406 C121.75772857666016 127.38967895507812 121.8453140258789 125.95951843261719 121.90220642089844 124.32505798339844 C121.9591064453125 122.69059753417969 121.98531341552734 120.85182189941406 121.85956573486328 118.90596008300781 C121.73382568359375 116.96009063720703 121.45613098144531 114.90713500976562 120.90522003173828 112.84428405761719 C120.26436614990234 110.44727325439453 119.3175048828125 108.29766845703125 118.3734130859375 106.44602966308594 C117.4293212890625 104.59439086914062 116.48800659179688 103.04072570800781 115.85822296142578 101.8355712890625 C115.22843933105469 100.63041687011719 114.91020202636719 99.7737808227539 115.21228790283203 99.31622314453125 C115.8616714477539 98.33301544189453 116.74015045166016 97.42961883544922 117.7625732421875 96.62432098388672 C118.78500366210938 95.81901550292969 119.95137023925781 95.11181640625 121.17655181884766 94.52098846435547 C122.4017333984375 93.93016052246094 123.68571472167969 93.45570373535156 124.943359375 93.11590576171875 C126.2051010131836 92.77457427978516 127.42593383789062 92.43579864501953 128.63018798828125 92.24724578857422 C129.83444213867188 92.05870056152344 131.0221405029297 92.02037048339844 132.21759033203125 92.27993774414062 C133.41302490234375 92.53950500488281 134.61624145507812 93.09695434570312 135.8515167236328 94.09996795654297"></path>
<path fill="#e3bdc4" fill-opacity="1.0"  filling="0" d="M139.0909423828125 98.7325439453125 C138.9870147705078 98.30706787109375 138.3162841796875 98.38438415527344 138.4048614501953 98.82777404785156 C138.66358947753906 100.11613464355469 139.14772033691406 101.26984405517578 139.65518188476562 102.39286804199219 C140.16265869140625 103.5158920288086 140.69346618652344 104.60823059082031 141.0455780029297 105.77386474609375 C141.39767456054688 106.93949890136719 141.57107543945312 108.17842864990234 141.3637237548828 109.59461975097656 C141.18434143066406 110.81488800048828 141.11288452148438 112.00392150878906 141.1180419921875 113.18135070800781 C141.12319946289062 114.35877990722656 141.20497131347656 115.52460479736328 141.33204650878906 116.69844818115234 C141.45912170410156 117.87229919433594 141.63150024414062 119.05416870117188 141.81785583496094 120.26367950439453 C141.84498596191406 120.43930053710938 142.1143035888672 120.4454345703125 142.1332550048828 120.26316833496094 C142.27081298828125 118.98146057128906 142.33743286132812 117.69912719726562 142.37872314453125 116.41596221923828 C142.42002868652344 115.13279724121094 142.43601989746094 113.84879302978516 142.47230529785156 112.56375122070312 C142.50860595703125 111.27870178222656 142.56521606445312 109.99261474609375 142.687744140625 108.70527648925781 C142.80755615234375 107.44353485107422 142.54075622558594 106.29546356201172 142.1007843017578 105.1986083984375 C141.66082763671875 104.10175323486328 141.04771423339844 103.05611419677734 140.47491455078125 101.99925231933594 C139.90213012695312 100.94239044189453 139.36964416503906 99.87429809570312 139.0909423828125 98.7325439453125"></path>
<path fill="#896d72" fill-opacity="1.0"  filling="0" d="M119.09888458251953 72.6277084350586 C119.09888458251953 72.6277084350586 119.8940200805664 72.30145263671875 121.1026611328125 72.03560638427734 C122.3113021850586 71.76976776123047 123.9334487915039 71.56434631347656 125.58747863769531 71.8060073852539 C127.24150085449219 72.04766845703125 128.92739868164062 72.73641967773438 130.2635498046875 74.25894165039062 C131.59970092773438 75.78197479248047 132.53233337402344 77.3612060546875 133.18675231933594 78.84523010253906 C133.84115600585938 80.32925415039062 134.21734619140625 81.71805572509766 134.4405975341797 82.8602294921875 C134.66384887695312 84.00241088867188 134.73416137695312 84.89794921875 134.77682495117188 85.39544677734375 C134.84109497070312 86.14143371582031 134.19544982910156 87.21599578857422 133.29010009765625 88.25433349609375 C132.384765625 89.29267120361328 131.21969604492188 90.29478454589844 130.2451171875 90.8958740234375 C129.59521484375 91.29642486572266 128.43344116210938 91.83032989501953 127.0946273803711 92.31845092773438 C125.75582885742188 92.80657958984375 124.24000549316406 93.24893188476562 122.88202667236328 93.46637725830078 C121.5240478515625 93.68382263183594 120.32392883300781 93.67637634277344 119.61651611328125 93.264892578125 C119.19207000732422 93.01800537109375 118.7493896484375 92.18692779541016 118.3462142944336 90.98670196533203 C117.94303894042969 89.7864761352539 117.5793685913086 88.21710205078125 117.31292724609375 86.49362182617188 C117.0464859008789 84.7701416015625 116.87728118896484 82.89256286621094 116.86302947998047 81.07592010498047 C116.84878540039062 79.25927734375 116.98949432373047 77.50357818603516 117.3428955078125 76.02386474609375 C117.6962890625 74.54414367675781 118.26237487792969 73.34040832519531 119.09888458251953 72.6277084350586"></path>
<path fill="#ffc4a8" fill-opacity="1.0"  filling="0" d="M130.2451171875 77.35193634033203 C130.6059112548828 77.93766021728516 131.19117736816406 79.07703399658203 131.68148803710938 80.46874237060547 C132.17178344726562 81.8604507446289 132.567138671875 83.50450134277344 132.5480499267578 85.09959411621094 C132.5289764404297 86.6946792602539 132.09548950195312 88.24080657958984 130.92813110351562 89.4366683959961 C129.77255249023438 90.6214370727539 128.60479736328125 91.41199493408203 127.44065856933594 91.84944152832031 C126.2765121459961 92.2868881225586 125.115966796875 92.37123107910156 123.97478485107422 92.14354705810547 C122.83360290527344 91.91586303710938 121.71177673339844 91.37617492675781 120.62506866455078 90.5655517578125 C119.53836822509766 89.75494384765625 118.48678588867188 88.67340087890625 117.48607635498047 87.36204528808594 C116.48600769042969 86.05030059814453 115.787353515625 84.8132095336914 115.36685943603516 83.63336181640625 C114.94636535644531 82.4535140991211 114.80402374267578 81.3309097290039 114.9166030883789 80.24812316894531 C115.0291748046875 79.16534423828125 115.39666748046875 78.12238311767578 115.99581909179688 77.1018295288086 C116.594970703125 76.0812759399414 117.42579650878906 75.0831298828125 118.46502685546875 74.08998107910156 C119.77677154541016 72.83626556396484 121.40288543701172 72.58555603027344 123.02804565429688 72.8735580444336 C124.65321350097656 73.16156768798828 126.27742004394531 73.98829650878906 127.58537292480469 74.88945770263672 C128.89332580566406 75.79061889648438 129.885009765625 76.76620483398438 130.2451171875 77.35193634033203"></path>
<path fill="#ffc4a8" fill-opacity="1.0"  filling="0" d="M129.33018493652344 88.49356842041016 C129.33018493652344 88.49356842041016 130.11956787109375 90.36749267578125 130.75852966308594 92.4618911743164 C131.3975067138672 94.55628967285156 131.88607788085938 96.87117004394531 131.28448486328125 97.75308227539062 C130.6826171875 98.63475036621094 129.36000061035156 98.80805969238281 128.04486083984375 98.59027099609375 C126.72972869873047 98.37247467041016 125.42208862304688 97.76358032226562 124.85018157958984 97.08082580566406 C124.27827453613281 96.39807891845703 123.76780700683594 94.06886291503906 123.40032196044922 91.91033172607422 C123.03282928466797 89.75180053710938 122.80831909179688 87.76396179199219 122.80831909179688 87.76396179199219 L126.06925201416016 88.12876892089844 L129.33018493652344 88.49356842041016"></path>
<path fill="#7c564f" fill-opacity="1.0"  filling="0" d="M127.89965057373047 85.20806121826172 C128.02764892578125 85.02680969238281 128.15206909179688 84.84454345703125 128.27188110351562 84.6556167602539 C128.4495391845703 84.37606048583984 128.7510986328125 84.18201446533203 128.86988830566406 83.86712646484375 C128.92364501953125 83.72479248046875 128.0184326171875 83.15289306640625 127.90886688232422 83.06124877929688 C127.58528137207031 82.79347229003906 127.39994049072266 82.54002380371094 127.3180160522461 82.12837982177734 C127.2652816772461 81.86674499511719 127.57555389404297 81.76383972167969 127.74809265136719 81.91743469238281 C128.19456481933594 82.31832885742188 128.69171142578125 82.63629150390625 129.1847686767578 82.97727966308594 C129.5272979736328 83.21279907226562 129.7751007080078 83.49644470214844 129.72032165527344 83.9311294555664 C129.6716766357422 84.31974029541016 129.37266540527344 84.62745666503906 129.0900421142578 84.86962890625 C128.79359436035156 85.12358093261719 128.342529296875 85.09849548339844 128.06349182128906 85.34988403320312 C127.97184753417969 85.43385314941406 127.82847595214844 85.30995178222656 127.89965057373047 85.20806121826172 M123.56198120117188 82.00755310058594 C124.89472198486328 81.35372924804688 125.90694427490234 83.42015075683594 124.57523345947266 84.07295989990234 C123.24147033691406 84.72575378417969 122.2297592163086 82.65984344482422 123.56198120117188 82.00755310058594 M129.52064514160156 79.91807556152344 C130.7735137939453 79.30419158935547 131.72683715820312 81.24723052978516 130.4734649658203 81.86163330078125 C129.2190704345703 82.47552490234375 128.26675415039062 80.53196716308594 129.52064514160156 79.91807556152344"></path>
<path fill="#eb847c" fill-opacity="1.0"  filling="0" d="M125.86700439453125 92.09855651855469 C127.14444732666016 91.76473236083984 128.28005981445312 91.19436645507812 129.4694366455078 90.64908599853516 C129.68295288085938 90.55232238769531 129.9061737060547 90.77503967285156 129.78329467773438 90.98597717285156 C129.05165100097656 92.23321533203125 127.18437957763672 92.89421081542969 125.85523223876953 92.347900390625 C125.73900604248047 92.2982406616211 125.73644256591797 92.13235473632812 125.86700439453125 92.09855651855469"></path>
<path fill="#896d72" fill-opacity="1.0"  filling="0" d="M126.076416015625 73.05113220214844 C126.076416015625 73.05113220214844 126.55193328857422 73.85408020019531 126.7940444946289 74.9039306640625 C127.03616333007812 75.95378875732422 127.04486083984375 77.25055694580078 126.11123657226562 78.23820495605469 C125.1773452758789 79.22508239746094 124.26010131835938 78.68364715576172 123.57632446289062 77.8954849243164 C122.89254760742188 77.1073226928711 122.44224548339844 76.07244110107422 122.44224548339844 76.07244110107422 C122.44224548339844 76.07244110107422 122.47962188720703 77.05919647216797 122.4104995727539 78.22847747802734 C122.34137725830078 79.39775848388672 122.16575622558594 80.74956512451172 121.73977661132812 81.47967529296875 C121.25439453125 82.30937194824219 121.26220703125 83.24339294433594 121.55328369140625 84.33503723144531 C121.84435272216797 85.42668914794922 122.41868591308594 86.67596435546875 123.06636810302734 88.13619232177734 C123.71455383300781 89.596923828125 123.75743865966797 90.87039947509766 123.4382095336914 91.87327575683594 C123.11897277832031 92.87615966796875 122.43763732910156 93.60844421386719 121.63737487792969 93.98681640625 C120.83712005615234 94.36518859863281 119.3017578125 94.66470336914062 117.538818359375 94.74323272705078 C115.77587890625 94.82176208496094 113.78534698486328 94.67929077148438 112.07475280761719 94.17369079589844 C110.36441040039062 93.6680908203125 110.50354766845703 92.6030044555664 110.99666595458984 91.21977233886719 C111.48979187011719 89.8365478515625 112.3368911743164 88.13516998291016 112.04248809814453 86.35699462890625 C111.84622192382812 85.17120361328125 111.68380737304688 83.54594421386719 111.69964599609375 81.8118896484375 C111.71548461914062 80.07783508300781 111.9095687866211 78.23500061035156 112.42630767822266 76.61404418945312 C112.94304656982422 74.99308776855469 113.78244018554688 73.59402465820312 115.08889770507812 72.74752044677734 C116.39569091796875 71.90118408203125 117.90472412109375 71.28194427490234 119.38510131835938 70.95606994628906 C120.865478515625 70.63018798828125 122.31721496582031 70.59766387939453 123.50939178466797 70.92475891113281 C124.70157623291016 71.25184631347656 125.63421630859375 71.93855285644531 126.076416015625 73.05113220214844"></path>
<path fill="#896d72" fill-opacity="1.0"  filling="0" d="M124.25369262695312 80.74803161621094 C123.90604400634766 80.68095397949219 123.64697265625 80.66099548339844 123.29676818847656 80.70758056640625 C123.15853118896484 80.72550964355469 123.02130889892578 80.7383041381836 122.88613891601562 80.7720947265625 C122.73920440673828 80.8089599609375 122.61734008789062 80.9169921875 122.47398376464844 80.96870422363281 C122.32908630371094 81.02143859863281 122.3720932006836 81.27232360839844 122.52723693847656 81.26873779296875 C122.6618881225586 81.26668548583984 122.77964782714844 81.33171081542969 122.90969848632812 81.33477783203125 C123.0745620727539 81.33938598632812 123.23737335205078 81.32300567626953 123.40121459960938 81.31021118164062 C123.77497863769531 81.28204345703125 124.02278137207031 81.1827163696289 124.32076263427734 80.95538330078125 C124.41036987304688 80.88780212402344 124.34534454345703 80.76543426513672 124.25369262695312 80.74803161621094 M129.9630126953125 78.31807708740234 C129.39724731445312 78.2899169921875 128.86834716796875 78.74201202392578 128.40191650390625 79.01286315917969 C128.3161163330078 79.05695343017578 128.2593536376953 79.14287567138672 128.2524871826172 79.23910522460938 C128.24562072753906 79.33533477783203 128.28961181640625 79.4284439086914 128.36830139160156 79.48426818847656 C128.44699096679688 79.54009246826172 128.5493927001953 79.55084228515625 128.63795471191406 79.5125732421875 C129.1683807373047 79.31391906738281 129.9563446044922 79.09733581542969 130.07974243164062 78.45631408691406 C130.09254455566406 78.38975524902344 130.0280303955078 78.32115173339844 129.9630126953125 78.31807708740234"></path>
<path fill="#7c564f" fill-opacity="1.0"  filling="0" d="M129.21856689453125 86.45682525634766 C128.98355102539062 86.70719909667969 128.20736694335938 86.6114501953125 127.89555358886719 86.61503601074219 C127.47622680664062 86.62066650390625 126.919677734375 86.53413391113281 126.64166259765625 86.18341827392578 C126.3319091796875 85.79327392578125 125.80044555664062 86.21568298339844 125.9520034790039 86.63142395019531 C126.21772766113281 87.36154174804688 127.11833953857422 87.56376647949219 127.80902099609375 87.6052474975586 C128.22988891601562 87.63136291503906 128.59033203125 87.53561401367188 128.9528350830078 87.32313537597656 C129.26002502441406 87.14291381835938 129.32249450683594 86.92889404296875 129.47097778320312 86.6293716430664 C129.53907775878906 86.4901123046875 129.32455444335938 86.34367370605469 129.21856689453125 86.45682525634766"></path>
<path fill="#ffc4a8" fill-opacity="1.0"  filling="0" d="M158.88333129882812 64.67584228515625 C158.7906494140625 64.58214569091797 158.2439727783203 63.89427185058594 157.648193359375 63.03500747680664 C157.0524139404297 62.175743103027344 156.40756225585938 61.145084381103516 156.1185302734375 60.365821838378906 C154.7023468017578 58.934776306152344 154.54156494140625 56.560638427734375 154.4197235107422 56.018943786621094 C154.3203887939453 55.577598571777344 154.52159118652344 55.21459197998047 154.92710876464844 54.99903869628906 C154.6941375732422 54.55615234375 154.4847412109375 54.140411376953125 154.30091857910156 53.81785583496094 C153.61740112304688 52.62079620361328 152.8422393798828 51.119102478027344 153.25901794433594 49.69010925292969 C153.1525115966797 49.37266540527344 153.3516845703125 49.04243469238281 153.65530395507812 48.89906311035156 C153.76690673828125 48.79052734375 153.90106201171875 48.7352294921875 154.0367431640625 48.72038269042969 C154.04544067382812 48.59698486328125 154.04237365722656 48.472572326660156 154.07052612304688 48.35173797607422 C154.09869384765625 48.222198486328125 154.16473388671875 48.10546875 154.24818420410156 48.000511169433594 C154.27224731445312 47.45062255859375 154.9711456298828 47.21202850341797 155.34898376464844 47.521278381347656 C155.4544677734375 47.575035095214844 155.5379180908203 47.66259002685547 155.62649536132812 47.7470703125 C155.8568878173828 47.494651794433594 156.22860717773438 47.365631103515625 156.54246520996094 47.52485656738281 C157.2505645751953 47.886329650878906 157.8429412841797 48.37580871582031 158.36416625976562 48.93695831298828 C159.088134765625 48.24729537963867 159.97427368164062 49.24339294433594 160.78163146972656 50.569984436035156 C161.5889892578125 51.896575927734375 162.31756591796875 53.55366134643555 162.72640991210938 54.18598175048828 C163.13523864746094 54.81804275512695 163.59449768066406 55.82514572143555 163.9776611328125 56.79404067993164 C164.36083984375 57.762939453125 164.66790771484375 58.693626403808594 164.77236938476562 59.17285919189453 C164.89959716796875 59.759613037109375 165.1269073486328 60.72998046875 165.21926879882812 61.692222595214844 C165.31161499023438 62.65446472167969 165.26898193359375 63.60857391357422 164.8563232421875 64.16281127929688 C164.66482543945312 64.64972686767578 164.3152618408203 66.08268737792969 163.86834716796875 67.5947494506836 C163.42144775390625 69.1068115234375 162.87718200683594 70.69798278808594 162.2963104248047 71.50131225585938 C161.691650390625 72.33970642089844 160.53030395507812 72.36376953125 159.41810607910156 71.97420501708984 C158.305908203125 71.58464050292969 157.2428741455078 70.78143310546875 156.83480834960938 69.9653091430664 C156.57907104492188 69.45382690429688 156.86195373535156 68.5528335571289 157.32339477539062 67.56902313232422 C157.7848358154297 66.58522033691406 158.42483520507812 65.51859283447266 158.88333129882812 64.67584228515625"></path>
<path fill="#eb847c" fill-opacity="1.0"  filling="0" d="M155.21279907226562 55.132667541503906 C155.9060516357422 55.324668884277344 156.16409301757812 55.916542053222656 156.73292541503906 56.342529296875 C157.66937255859375 57.046531677246094 158.7071990966797 57.58616638183594 159.6457061767578 58.286590576171875 C160.60006713867188 59.00032043457031 161.59129333496094 60.335105895996094 160.52992248535156 61.444091796875 C160.395263671875 61.584381103515625 160.20223999023438 61.503997802734375 160.1776580810547 61.336578369140625 C159.95443725585938 59.81695556640625 159.246337890625 59.11756134033203 158.10406494140625 58.18572235107422 C157.5188446044922 57.70854187011719 156.8931884765625 57.30713653564453 156.33255004882812 56.791038513183594 C155.9726104736328 56.45977783203125 155.52256774902344 55.54534149169922 155.13804626464844 55.332855224609375 C155.040771484375 55.27910614013672 155.0894012451172 55.09785461425781 155.21279907226562 55.132667541503906 M154.36697387695312 49.631736755371094 C154.30963134765625 49.444854736328125 154.57382202148438 49.32300567626953 154.6859588623047 49.472511291503906 C155.32493591308594 50.32831573486328 155.84091186523438 51.245689392089844 156.26669311523438 52.20518112182617 C156.69248962402344 53.164669036865234 157.02810668945312 54.1662712097168 157.30638122558594 55.190528869628906 C157.34323120117188 55.32569122314453 157.12818908691406 55.44805908203125 157.06112670898438 55.312889099121094 C156.595458984375 54.379005432128906 156.07833862304688 53.464447021484375 155.59942626953125 52.530494689941406 C155.12051391601562 51.59654235839844 154.6798095703125 50.64319610595703 154.36697387695312 49.631736755371094 M157.454345703125 52.34124755859375 C157.043212890625 51.21177673339844 156.4180450439453 50.194435119628906 155.94956970214844 49.094139099121094 C155.8717498779297 48.91084289550781 156.16717529296875 48.708091735839844 156.3048858642578 48.85759735107422 C156.95718383789062 49.56722640991211 157.59243774414062 50.5537223815918 158.05267333984375 51.612667083740234 C158.5128936767578 52.67161560058594 158.79806518554688 53.803009033203125 158.7501983642578 54.80243682861328 C158.7440643310547 54.93299102783203 158.54693603515625 55.034873962402344 158.47474670410156 54.90021514892578 C158.0369873046875 54.09074401855469 157.77023315429688 53.20549774169922 157.454345703125 52.34124755859375 M158.12045288085938 49.834495544433594 C157.97862243652344 49.59077453613281 158.3493194580078 49.339385986328125 158.51263427734375 49.572853088378906 C159.50131225585938 50.987510681152344 159.99539184570312 52.48051452636719 160.5754852294922 54.079994201660156 C160.63487243652344 54.24384307861328 160.36761474609375 54.380027770996094 160.28109741210938 54.22694396972656 C159.48646545410156 52.80152893066406 158.940673828125 51.244544982910156 158.12045288085938 49.834495544433594"></path>
<path fill="#eb847c" fill-opacity="1.0"  filling="0" d="M157.96173095703125 56.96562957763672 C158.28582763671875 56.281089782714844 158.9432373046875 55.97644805908203 159.61190795898438 55.68358612060547 C160.4295654296875 55.324668884277344 161.30714416503906 54.933494567871094 162.17599487304688 54.74866485595703 C162.5359344482422 54.672889709472656 162.61221313476562 55.16185760498047 162.36390686035156 55.34668731689453 C161.78944396972656 55.77318572998047 161.0777587890625 56.004608154296875 160.4285430908203 56.29029846191406 C159.66976928710938 56.624122619628906 158.92530822753906 57.13868713378906 158.0851287841797 57.14994812011719 C157.98220825195312 57.15148162841797 157.9156494140625 57.061370849609375 157.96173095703125 56.96562957763672"></path>
<path fill="#ffe2e0" fill-opacity="1.0"  filling="0" d="M119.03334045410156 95.9129638671875 C118.23649597167969 95.97832489013672 117.2607421875 96.48065185546875 116.24848175048828 97.20266723632812 C115.23622131347656 97.9246826171875 114.18745422363281 98.86637878417969 113.24459075927734 99.81049346923828 C112.3017349243164 100.75460052490234 111.46478271484375 101.70111083984375 110.87615966796875 102.4327621459961 C110.308349609375 103.13898468017578 110.4908447265625 104.29024505615234 111.02198028564453 105.54203033447266 C111.55311584472656 106.79380798339844 112.4328842163086 108.1461181640625 113.25961303710938 109.25442504882812 C114.08634185791016 110.36273956298828 114.86003112792969 111.22705078125 115.17900848388672 111.50285339355469 C115.6569595336914 111.91629028320312 117.22662353515625 111.60858154296875 118.99443054199219 110.91737365722656 C120.76223754882812 110.22618103027344 122.72819519042969 109.1514892578125 123.99871826171875 108.03097534179688 C124.84607696533203 107.28396606445312 124.84249114990234 105.6667251586914 124.37255096435547 103.84967803955078 C123.9026107788086 102.03262329101562 122.96631622314453 100.01576232910156 121.94824981689453 98.46951293945312 C120.93019104003906 96.92324829101562 119.83035278320312 95.84759521484375 119.03334045410156 95.9129638671875"></path>
<path fill="#ffc4a8" fill-opacity="1.0"  filling="0" d="M116.35660552978516 103.6543960571289 C116.35660552978516 103.6543960571289 116.93913269042969 104.3246078491211 117.37228393554688 105.31187438964844 C117.8054428100586 106.29913330078125 118.08921813964844 107.60345458984375 117.49171447753906 108.8716812133789 C117.2527084350586 109.37896728515625 116.51948547363281 110.14230346679688 115.48046112060547 111.0367431640625 C114.44143676757812 111.93118286132812 113.09661102294922 112.95674133300781 111.63441467285156 113.98848724365234 C110.1722183227539 115.02022552490234 108.59264373779297 116.05815124511719 107.08412170410156 116.97733306884766 C105.57559204101562 117.89651489257812 104.13812255859375 118.69696044921875 102.96012115478516 119.25372314453125 C101.78211975097656 119.81049346923828 100.86358642578125 120.12359619140625 100.39295959472656 120.0680923461914 C99.21638488769531 119.9293441772461 98.52236938476562 118.3819580078125 98.43852233886719 116.6012191772461 C98.35469055175781 114.82048034667969 98.88102722167969 112.806396484375 100.14514923095703 111.73426818847656 C100.98789978027344 111.01969146728516 102.1805191040039 110.0013198852539 103.50035858154297 108.88783264160156 C104.82020568847656 107.77435302734375 106.26726531982422 106.56574249267578 107.61891174316406 105.47068786621094 C108.97055053710938 104.3756332397461 110.22677612304688 103.39413452148438 111.16493225097656 102.73484802246094 C112.57215881347656 101.74591827392578 113.60858154296875 101.6343002319336 114.42393493652344 101.940673828125 C115.23929595947266 102.24703979492188 115.83360290527344 102.97138977050781 116.35660552978516 103.6543960571289"></path>
<path fill="#e3bdc4" fill-opacity="1.0"  filling="0" d="M123.21279907226562 105.73311614990234 C122.55795288085938 106.38694763183594 122.18009185791016 107.30546569824219 121.62355041503906 108.0442886352539 C121.04806518554688 108.80819702148438 120.44953918457031 109.5546875 119.86841583251953 110.31346893310547 C119.72044372558594 110.50700378417969 119.9109115600586 110.75788879394531 120.13516998291016 110.64422607421875 C121.1520004272461 110.1286392211914 121.9051513671875 109.49785614013672 122.60505676269531 108.58189392089844 C123.17184448242188 107.83999633789062 123.7975082397461 106.89945220947266 123.70995330810547 105.92665100097656 C123.68793487548828 105.67781829833984 123.3986587524414 105.5472640991211 123.21279907226562 105.73311614990234"></path>
<path fill="#ffc4a8" fill-opacity="1.0"  filling="0" d="M89.36294555664062 102.26022338867188 C89.36294555664062 102.26022338867188 89.884033203125 103.41913604736328 90.47885131835938 104.86444854736328 C91.07366180419922 106.30976104736328 91.74220275878906 108.04147338867188 92.03711700439453 109.18707275390625 C92.23355102539062 109.9513168334961 92.56663513183594 111.12390899658203 93.01039123535156 112.4107894897461 C93.45414733886719 113.69767761230469 94.00856018066406 115.09884643554688 94.64767456054688 116.32025146484375 C95.28678131103516 117.54165649414062 96.01057434082031 118.58329772949219 96.79308319091797 119.1511001586914 C97.96710205078125 120.00281524658203 99.28716278076172 120.49433898925781 100.39974212646484 120.23309326171875 C101.51231384277344 119.97183990478516 102.41740417480469 118.95782470703125 102.76146697998047 116.7984619140625 C102.9908447265625 115.35871887207031 102.77040100097656 114.10466003417969 102.3270492553711 112.98958587646484 C101.88369750976562 111.87450408935547 101.2174301147461 110.89840698242188 100.55516815185547 110.01457977294922 C99.89290618896484 109.13075256347656 99.23464965820312 108.33920288085938 98.80729675292969 107.59321594238281 C98.37995147705078 106.84722900390625 97.5246810913086 105.4225082397461 96.57425689697266 103.85442352294922 C95.62383270263672 102.28633117675781 94.57825469970703 100.57489013671875 93.77027893066406 99.25546264648438 C92.9623031616211 97.93603515625 92.39193725585938 97.00863647460938 92.39193725585938 97.00863647460938 C92.39193725585938 97.00863647460938 91.30086517333984 97.72223663330078 90.376708984375 98.73548889160156 C89.45254516601562 99.74873352050781 88.69529724121094 101.06163024902344 89.36294555664062 102.26022338867188"></path>
<path fill="#ffc4a8" fill-opacity="1.0"  filling="0" d="M91.31877899169922 94.35494232177734 C90.78271484375 95.0983657836914 87.78086853027344 95.70867156982422 87.26937866210938 96.4715576171875 C86.74713134765625 97.02143859863281 86.4742431640625 98.36953735351562 86.56076049804688 99.55891418457031 C86.64729309082031 100.74777221679688 87.52639770507812 101.93561553955078 88.03173828125 102.30169677734375 C88.5171127319336 103.04588317871094 89.35090637207031 103.53138732910156 90.26387023925781 103.7247314453125 C91.17683410644531 103.91807556152344 92.16896057128906 103.81925964355469 92.97100830078125 103.39481353759766 C93.95507049560547 102.87461853027344 94.4168930053711 101.86726379394531 94.62610626220703 100.75071716308594 C94.8353271484375 99.63417053222656 94.79193115234375 98.408447265625 94.76556396484375 97.45152282714844 C94.75122833251953 96.93619537353516 94.03813934326172 95.95610046386719 93.25433349609375 95.20780944824219 C92.47052764892578 94.45951843261719 91.61599731445312 93.94303894042969 91.31877899169922 94.35494232177734"></path>
<path fill="#575757" fill-opacity="1.0"  filling="0" d="M107.70124816894531 50.85132598876953 C107.53945922851562 53.25439453125 107.45855712890625 54.455928802490234 107.14764404296875 55.435768127441406 C106.83673095703125 56.41560745239258 106.29580688476562 57.17375183105469 105.21395111083984 58.690040588378906 C104.2419204711914 60.05247116088867 103.75590515136719 60.73368835449219 103.1813735961914 61.12632751464844 C102.60684967041016 61.51896667480469 101.94380187988281 61.6230354309082 100.61772155761719 61.83116912841797 C98.0997085571289 62.225921630859375 98.0997085571289 62.225921630859375 96.33842468261719 61.913597106933594 C94.57510375976562 61.601280212402344 94.57510375976562 61.601280212402344 92.3473892211914 60.365821838378906 C91.17362976074219 59.71532440185547 90.58675384521484 59.39007568359375 90.18202209472656 58.82412338256836 C89.77728271484375 58.25817108154297 89.5546875 57.451515197753906 89.10950469970703 55.83820343017578 C88.6141357421875 54.04261779785156 88.366455078125 53.14482498168945 88.41093444824219 52.11775207519531 C88.45541381835938 51.09068298339844 88.79206085205078 49.934329986572266 89.46534729003906 47.62162780761719 C90.11532592773438 45.388797760009766 90.44032287597656 44.27238464355469 91.00422668457031 43.417152404785156 C91.56813049316406 42.561920166015625 92.37094116210938 41.967872619628906 93.97657775878906 40.77977752685547 C95.50796508789062 39.6467170715332 96.27366638183594 39.08018493652344 97.07379150390625 38.87078094482422 C97.87391662597656 38.66136932373047 98.70848083496094 38.809085845947266 100.37760162353516 39.104515075683594 C102.04672241210938 39.40019226074219 102.88128662109375 39.548030853271484 103.56083679199219 40.01951599121094 C104.24038696289062 40.491004943847656 104.76492309570312 41.28614044189453 105.81401062011719 42.87641143798828 C106.91404724121094 44.543739318847656 107.46405792236328 45.377403259277344 107.69996643066406 46.374267578125 C107.93586730957031 47.371131896972656 107.857666015625 48.53119659423828 107.70124816894531 50.85132598876953 M106.65164947509766 50.780670166015625 C106.79629516601562 48.63743591308594 106.86861419677734 47.565818786621094 106.65414428710938 46.650169372558594 C106.43968200683594 45.734519958496094 105.93843078613281 44.9748420715332 104.9359359741211 43.455482482910156 C104.01126098632812 42.05413818359375 103.5489273071289 41.35346603393555 102.95622253417969 40.939002990722656 C102.363525390625 40.524539947509766 101.64044952392578 40.39628601074219 100.19430541992188 40.13977813720703 C98.74790954589844 39.884033203125 98.02470397949219 39.756160736083984 97.32569885253906 39.94188690185547 C96.62669372558594 40.12761688232422 95.95187377929688 40.6269416809082 94.60224151611328 41.62559509277344 C93.13919830322266 42.70821762084961 92.40767669677734 43.24952697753906 91.89176940917969 44.0357666015625 C91.37586975097656 44.82200622558594 91.07557678222656 45.85317611694336 90.47500610351562 47.91551208496094 C89.84345245361328 50.085113525390625 89.52767944335938 51.16991424560547 89.48377227783203 52.125244140625 C89.43986511230469 53.080570220947266 89.66783142089844 53.90642547607422 90.12377166748047 55.558135986328125 C90.51007080078125 56.95871353149414 90.7032241821289 57.65900421142578 91.044921875 58.14501953125 C91.3866195678711 58.63103485107422 91.87686157226562 58.90278244018555 92.85734558105469 59.44627380371094 C94.93144989013672 60.596214294433594 94.93144989013672 60.596214294433594 96.521728515625 60.87731170654297 C98.10995483398438 61.15941619873047 98.10995483398438 61.15941619873047 100.45491027832031 60.79180908203125 C101.56236267089844 60.61798095703125 102.1160888671875 60.53106689453125 102.60395812988281 60.19192886352539 C103.09183502197266 59.85279083251953 103.51385498046875 59.26143264770508 104.3578872680664 58.078712463378906 C105.35295867919922 56.684024810791016 105.85049438476562 55.98667907714844 106.13721466064453 55.074424743652344 C106.42393493652344 54.16217041015625 106.49983978271484 53.035003662109375 106.65164947509766 50.780670166015625"></path>
<path fill="#575757" fill-opacity="1.0"  filling="0" d="M92.17587280273438 82.89176940917969 L92.89912414550781 78.80355072021484 L93.62237548828125 74.71533966064453 L94.34562683105469 70.62712097167969 L95.0688705444336 66.53890228271484 L95.79212188720703 62.45068359375 L96.6666259765625 62.60581970214844 L95.9434814453125 66.69393920898438 L95.22032928466797 70.78205871582031 L94.49718475341797 74.87017059326172 L93.77403259277344 78.95829010009766 L93.0508804321289 83.04640197753906 L92.17587280273438 82.89176940917969"></path>
<path fill="#a1a1a1" fill-opacity="1.0"  filling="0" d="M90.4212417602539 106.20466613769531 C90.37770080566406 106.45240783691406 90.23722076416016 106.67288970947266 90.03106689453125 106.8170166015625 C89.82491302490234 106.96114349365234 89.5696029663086 107.01737213134766 89.32197570800781 106.97319030761719 L87.45523071289062 106.64192199707031 C87.20770263671875 106.5983657836914 86.98741149902344 106.45803833007812 86.84331512451172 106.25211334228516 C86.69921875 106.04618835449219 86.64283752441406 105.79115295410156 86.68672180175781 105.5436782836914 L87.47622680664062 101.0849838256836 L88.26573181152344 96.62628173828125 L89.05523681640625 92.16758728027344 L89.84474182128906 87.7088851928711 L90.63423919677734 83.25018310546875 C90.67778778076172 83.00254821777344 90.81818389892578 82.78215789794922 91.02422332763672 82.63804626464844 C91.23026275634766 82.49393463134766 91.48543548583984 82.43762969970703 91.73298645019531 82.48165893554688 L93.60025787353516 82.81240844726562 C93.8478012084961 82.85607147216797 94.06805419921875 82.99652862548828 94.2120590209961 83.20255279541016 C94.35606384277344 83.40857696533203 94.41230010986328 83.66368865966797 94.36825561523438 83.91116333007812 L93.578857421875 88.369873046875 L92.78945922851562 92.82857513427734 L92.00005340576172 97.28726959228516 L91.21064758300781 101.7459716796875 L90.42124938964844 106.20466613769531"></path>
<path fill="#707070" fill-opacity="1.0"  filling="0" d="M90.27481079101562 107.3233871459961 C90.25260925292969 107.44342803955078 90.13666534423828 107.52471160888672 90.01625061035156 107.504638671875 L86.62066650390625 106.90303802490234 C86.56248474121094 106.89268493652344 86.51074981689453 106.8595962524414 86.47695922851562 106.81111907958984 C86.44316864013672 106.76264190673828 86.43002319335938 106.70264434814453 86.44044494628906 106.64447784423828 L86.60275268554688 105.7259521484375 C86.61310577392578 105.66764831542969 86.64624786376953 105.61578369140625 86.69482421875 105.58189392089844 C86.74340057373047 105.54800415039062 86.80351257324219 105.53480529785156 86.86181640625 105.54522705078125 L90.25689697265625 106.14579010009766 C90.37823486328125 106.16780090332031 90.45964813232422 106.28402709960938 90.43814086914062 106.40486145019531 L90.27481079101562 107.3233871459961 M94.51366424560547 82.77555084228516 C94.40972900390625 82.34495544433594 94.03033447265625 81.94969177246094 93.49785614013672 81.70956420898438 L93.72312927246094 80.43827056884766 C93.73786926269531 80.35540008544922 93.71906280517578 80.26998138427734 93.6708755493164 80.20096588134766 C93.62268829345703 80.13195037841797 93.54898071289062 80.08485412597656 93.46611022949219 80.07013702392578 L92.80256652832031 79.95237731933594 C92.71953582763672 79.9375 92.63391876220703 79.95631408691406 92.56477355957031 80.0046157836914 C92.4956283569336 80.05291748046875 92.4485092163086 80.12683868408203 92.43391418457031 80.20991516113281 L92.20915222167969 81.48121643066406 C91.62649536132812 81.52320098876953 91.13395690917969 81.76435089111328 90.88870239257812 82.13299560546875 C90.81659698486328 82.16105651855469 90.76438903808594 82.22515106201172 90.75148010253906 82.30143737792969 L90.58866882324219 83.21945190429688 C90.5782470703125 83.27775573730469 90.59144592285156 83.33788299560547 90.62533569335938 83.38645935058594 C90.65922546386719 83.4350357055664 90.71109008789062 83.46817779541016 90.7694091796875 83.47853088378906 L94.16447448730469 84.07962036132812 C94.28507232666016 84.10089111328125 94.4018783569336 84.0194091796875 94.42355346679688 83.89888000488281 L94.58586120605469 82.9803466796875 C94.59844207763672 82.90430450439453 94.57115173339844 82.82689666748047 94.51366424560547 82.77555084228516 M96.74188995361328 63.390716552734375 C96.72730255126953 63.47389602661133 96.68010711669922 63.547908782958984 96.61084747314453 63.59622573852539 C96.54158782958984 63.6445426940918 96.4558334350586 63.66328048706055 96.37273406982422 63.64825439453125 L95.70918273925781 63.531005859375 C95.62621307373047 63.51640701293945 95.55238342285156 63.4693603515625 95.50408935546875 63.400333404541016 C95.45579528808594 63.33130645751953 95.43692016601562 63.245819091796875 95.45164489746094 63.162872314453125 L95.82438659667969 61.05906677246094 C95.83909606933594 60.97608947753906 95.88626098632812 60.90229034423828 95.95539093017578 60.85409164428711 C96.02452087402344 60.80589294433594 96.11007690429688 60.78715515136719 96.19302368164062 60.802040100097656 L96.85606384277344 60.91929626464844 C96.93903350830078 60.933895111083984 97.01286315917969 60.98093795776367 97.0611572265625 61.049964904785156 C97.10945129394531 61.11899185180664 97.12832641601562 61.2044792175293 97.11360168457031 61.28742218017578 L96.74188995361328 63.390716552734375"></path>
<path fill="#707070" fill-opacity="1.0"  filling="0" d="M94.81266784667969 60.26445007324219 C95.56121826171875 60.56549835205078 95.56121826171875 60.56549835205078 96.54579162597656 60.740089416503906 C97.53343200683594 60.91468811035156 97.53343200683594 60.91468811035156 98.33676147460938 60.888572692871094 C98.66957092285156 60.87782287597656 98.66957092285156 60.87782287597656 98.84159851074219 61.03910827636719 C99.01311492919922 61.19987487792969 99.01311492919922 61.19987487792969 99.02438354492188 61.53318786621094 C99.04589080810547 62.19877624511719 99.04589080810547 62.19877624511719 98.37977600097656 62.220794677734375 C97.43769836425781 62.251007080078125 97.43769836425781 62.251007080078125 96.31333923339844 62.051841735839844 C95.19258117675781 61.853187561035156 95.19258117675781 61.853187561035156 94.31500244140625 61.50041198730469 C93.697021484375 61.25209045410156 93.697021484375 61.25209045410156 93.94586181640625 60.63359832763672 C94.07026672363281 60.324859619140625 94.07026672363281 60.324859619140625 94.28684997558594 60.23218536376953 C94.50341796875 60.14002990722656 94.50341796875 60.14002990722656 94.81266784667969 60.26445007324219"></path>
<path fill="#ffc4a8" fill-opacity="1.0"  filling="0" d="M90.63885498046875 96.00717163085938 L90.67314147949219 96.03225708007812"></path>
<path fill="#ffc4a8" fill-opacity="1.0"  filling="0" d="M92.83686828613281 94.75788879394531 C92.20402526855469 94.25048828125 91.49440002441406 93.9284439086914 90.66291046142578 94.17010498046875 C90.23231506347656 94.29606628417969 89.93997192382812 94.70873260498047 89.95584106445312 95.13778686523438 C89.97222900390625 95.56632995605469 90.25689697265625 95.85562133789062 90.63885498046875 96.00767517089844 C90.67622375488281 96.02252960205078 90.70182037353516 96.03942108154297 90.73304748535156 96.0496597290039 C90.80677795410156 96.11775207519531 90.9122543334961 96.18124389648438 91.04486083984375 96.25190734863281 C91.10578918457031 96.28825378417969 91.1278076171875 96.30668640136719 91.162109375 96.33279418945312 C91.25325012207031 96.40447235107422 91.33772277832031 96.4843521118164 91.42169189453125 96.56370544433594 C91.86405944824219 96.98047637939453 92.20504760742188 97.3486099243164 92.80819702148438 97.55392456054688 C93.43692779541016 97.76947021484375 93.897216796875 97.16326141357422 93.94688415527344 96.65074920654297 C94.01907348632812 95.89862060546875 93.39750671386719 95.20588684082031 92.83686828613281 94.75788879394531"></path>
<path fill="#ffc4a8" fill-opacity="1.0"  filling="0" d="M90.78680419921875 93.70521545410156 C90.7774887084961 93.63634490966797 90.7646713256836 93.56798553466797 90.74840545654297 93.50041198730469 C90.73970794677734 93.4655990600586 90.73304748535156 93.43077850341797 90.72332763671875 93.39544677734375 C90.69633483886719 93.30313873291016 90.6617431640625 93.21324157714844 90.61990356445312 93.12665557861328 C90.37413787841797 92.62284851074219 89.8841552734375 92.23628234863281 89.44844055175781 91.91014099121094 C88.92262268066406 91.51692962646484 88.36248779296875 91.19538879394531 87.72557067871094 91.04127502441406 C87.0097885131836 90.86872863769531 86.16191864013672 91.631103515625 86.48857116699219 92.4037094116211 C86.70719909667969 92.9197998046875 87.0456314086914 93.3171157836914 87.45062255859375 93.68729400634766 C86.93299102783203 93.57721710205078 86.50086975097656 93.57157897949219 86.09791564941406 93.7548828125 C85.65913391113281 93.95404052734375 85.20294189453125 94.45887756347656 85.3939208984375 95.00262451171875 C85.43692779541016 95.12294006347656 85.43692779541016 95.12294006347656 85.49427032470703 95.22431945800781 C85.32787322998047 95.28370666503906 85.17477416992188 95.38662719726562 85.02528381347656 95.51461791992188 C84.78617858886719 95.71994018554688 84.58598327636719 96.13414001464844 84.6371841430664 96.45721435546875 C84.66893005371094 96.66201782226562 84.72370910644531 96.84223937988281 84.79385375976562 97.01631927490234 C84.36274719238281 97.14738464355469 84.03916931152344 97.56620788574219 83.9372787475586 98.01215362548828 C83.84051513671875 98.43456268310547 83.98540496826172 98.85286712646484 84.13235473632812 99.24249267578125 C84.47282409667969 100.1395263671875 85.18399810791016 101.01094055175781 86.1475830078125 101.24339294433594 C87.0594482421875 101.46253204345703 88.10240173339844 100.82508850097656 88.06348419189453 99.80108642578125 C88.04556274414062 99.3198013305664 87.78341674804688 98.91891479492188 87.40812683105469 98.64857482910156 C87.75273895263672 98.52930450439453 88.0401840209961 98.2846450805664 88.2129898071289 97.9635238647461 C88.41104888916016 97.59632110595703 88.43049621582031 97.15795135498047 88.2657241821289 96.774658203125 C88.99481201171875 96.75520324707031 89.702392578125 96.036865234375 89.38751983642578 95.24940490722656 C89.53855895996094 95.23763275146484 89.71315002441406 95.22227478027344 89.89541625976562 95.16390991210938 C90.01983642578125 95.12447357177734 90.12735748291016 95.06815338134766 90.22514343261719 95.004150390625 C90.69721984863281 94.76197814941406 90.84107971191406 94.25152587890625 90.79244232177734 93.75948333740234"></path>
<path fill="#eb847c" fill-opacity="1.0"  filling="0" d="M92.063232421875 99.25222778320312 C92.02482604980469 98.47654724121094 92.16102600097656 97.70086669921875 92.07654571533203 96.92876434326172 C92.05299377441406 96.71321868896484 91.78317260742188 96.69017791748047 91.70943450927734 96.88729858398438 C91.32441711425781 97.91436767578125 90.58253479003906 100.98175811767578 92.08320617675781 101.465087890625 C92.23884582519531 101.51526641845703 92.40217590332031 101.37139129638672 92.39654541015625 101.21574401855469 C92.36940002441406 100.55577087402344 92.09599304199219 99.92652893066406 92.063232421875 99.25222778320312 M87.10246276855469 99.17388916015625 C86.98060607910156 99.06124877929688 86.898681640625 98.89176940917969 86.78245544433594 98.7694091796875 C86.64422607421875 98.6240005493164 86.45938873291016 98.50879669189453 86.30220794677734 98.38387298583984 C85.9937744140625 98.13440704345703 85.6676254272461 97.90767669677734 85.32633972167969 97.7054672241211 C85.13484954833984 97.59333801269531 84.92953491210938 97.86930847167969 85.09644317626953 98.01779174804688 C85.37702178955078 98.26713562011719 85.65452575683594 98.51750183105469 85.94175720214844 98.76070404052734 C86.08306884765625 98.8805160522461 86.2213134765625 99.00953674316406 86.37286376953125 99.11654663085938 C86.56025695800781 99.24966430664062 86.75328063964844 99.272705078125 86.94886779785156 99.38175964355469 C87.07788848876953 99.45446014404297 87.21151733398438 99.2752685546875 87.10246276855469 99.17388916015625 M87.15263366699219 96.18124389648438 C86.8464584350586 95.95237731933594 86.540283203125 95.75474548339844 86.17984008789062 95.62572479248047 C86.01241302490234 95.5658187866211 85.91462707519531 95.79827117919922 86.02265930175781 95.90937805175781 C86.2581787109375 96.15052795410156 86.52543640136719 96.34867095947266 86.77529907226562 96.5749740600586 C87.01798248291016 96.7936019897461 87.24121856689453 97.0931167602539 87.552001953125 97.20882415771484 C87.66618347167969 97.25132751464844 87.78904724121094 97.13510131835938 87.783935546875 97.02400207519531 C87.76754760742188 96.66201782226562 87.4229736328125 96.38297271728516 87.15263366699219 96.18124389648438 M88.85350036621094 94.87206268310547 C88.71116638183594 94.70873260498047 88.56011962890625 94.55206298828125 88.416259765625 94.38873291015625 C88.27801513671875 94.2320556640625 88.13722229003906 94.07948303222656 87.98207092285156 93.94022369384766 C87.81721496582031 93.79174041748047 87.615478515625 93.75590515136719 87.4071044921875 93.6995849609375 C87.2601547241211 93.6596450805664 87.13267517089844 93.86546325683594 87.25862121582031 93.96736145019531 C87.41120147705078 94.09024047851562 87.51410675048828 94.26995086669922 87.65235137939453 94.41024017333984 C87.80441284179688 94.56332397460938 87.93395233154297 94.7384262084961 88.06707000732422 94.90790557861328 C88.28312683105469 95.18182373046875 88.60313415527344 95.63289642333984 88.99737548828125 95.60320281982422 C89.1310043334961 95.59295654296875 89.20780181884766 95.47929382324219 89.18067169189453 95.3512954711914 C89.14022827148438 95.16134643554688 88.97689819335938 95.01439666748047 88.85350036621094 94.87206268310547"></path></svg>