<svg xmlns="http://www.w3.org/2000/svg" viewBox="0.0 0.0 256.0 256.0" height="256.0px" width="256.0px"><path fill="#FFD286" fill-opacity="1.0"  filling="0" d="M178.70745849609375 161.4668731689453 C178.55795288085938 161.6162567138672 178.12594604492188 162.00213623046875 177.47032165527344 162.57484436035156 C176.81468200683594 163.1475372314453 175.9354248046875 163.90704345703125 174.89138793945312 164.80364990234375 C173.84735107421875 165.70025634765625 172.6385498046875 166.7339630126953 171.3238525390625 167.85507202148438 C170.66650390625 168.41563415527344 169.982666015625 168.998046875 169.27972412109375 169.59608459472656 C168.5767822265625 170.19412231445312 167.85470581054688 170.80780029296875 167.1208953857422 171.430908203125 C166.26589965820312 172.15780639648438 165.39512634277344 172.89755249023438 164.52024841308594 173.6403350830078 C163.6453857421875 174.3831024169922 162.76641845703125 175.12890625 161.8950958251953 175.86788940429688 C161.02377319335938 176.60687255859375 160.16004943847656 177.3390350341797 159.315673828125 178.05455017089844 C158.47128295898438 178.77005004882812 157.646240234375 179.46890258789062 156.85223388671875 180.14125061035156 C156.0582275390625 180.8135986328125 155.29525756835938 181.4594268798828 154.57504272460938 182.0689239501953 C153.8548126220703 182.6784210205078 153.17733764648438 183.2515869140625 152.55433654785156 183.77854919433594 C151.30831909179688 184.83248901367188 150.28013610839844 185.70166015625 149.56344604492188 186.307373046875 C148.84677124023438 186.91307067871094 148.44158935546875 187.2552947998047 148.44158935546875 187.2552947998047 C146.74432373046875 186.85772705078125 145.76370239257812 185.83705139160156 145.20742797851562 184.915771484375 C144.65113830566406 183.99449157714844 144.5191650390625 183.172607421875 144.5191650390625 183.172607421875 C144.5191650390625 183.172607421875 145.06988525390625 182.6475830078125 145.94049072265625 181.7561492919922 C146.81109619140625 180.8647003173828 148.00160217285156 179.60684204101562 149.28115844726562 178.1411895751953 C149.92092895507812 177.40835571289062 150.58297729492188 176.62356567382812 151.23841857910156 175.80665588378906 C151.8938751220703 174.98974609375 152.542724609375 174.14071655273438 153.15614318847656 173.2793731689453 C153.76956176757812 172.41802978515625 154.3475341796875 171.54440307617188 154.8612060546875 170.6782989501953 C155.3748779296875 169.81219482421875 155.82424926757812 168.95361328125 156.18048095703125 168.12237548828125 C156.6822509765625 166.95091247558594 157.320068359375 165.91282653808594 158.0378875732422 164.99551391601562 C158.75572204589844 164.07821655273438 159.5535430908203 163.28167724609375 160.37530517578125 162.59329223632812 C161.24391174316406 161.86215209960938 162.13853454589844 161.2530975341797 162.99188232421875 160.7507781982422 C163.84521484375 160.24844360351562 164.65728759765625 159.85287475585938 165.36077880859375 159.54867553710938 C166.7677459716797 158.94027709960938 167.74041748046875 158.6974639892578 167.74041748046875 158.6974639892578 C167.74041748046875 158.6974639892578 167.31153869628906 158.5513916015625 166.54608154296875 158.2788848876953 C165.78062438964844 158.00637817382812 164.67855834960938 157.60745239257812 163.3321990966797 157.10174560546875 C162.65902709960938 156.84889221191406 161.9247589111328 156.5693359375 161.14096069335938 156.26556396484375 C160.35714721679688 155.96176147460938 159.5238037109375 155.6337432861328 158.6524658203125 155.283935546875 C157.78111267089844 154.9341278076172 156.8717498779297 154.56253051757812 155.93592834472656 154.171630859375 C155.00009155273438 153.7807159423828 154.0377960205078 153.3704833984375 153.06056213378906 152.94337463378906 C152.08331298828125 152.51626586914062 151.0911407470703 152.07229614257812 150.09556579589844 151.6138916015625 C149.09999084472656 151.155517578125 148.10101318359375 150.68270874023438 147.11016845703125 150.1979522705078 C146.11932373046875 149.71319580078125 145.13661193847656 149.2164764404297 144.17356872558594 148.71026611328125 C143.2105255126953 148.20404052734375 142.26715087890625 147.68832397460938 141.35498046875 147.1655731201172 C140.44281005859375 146.642822265625 139.5618438720703 146.11300659179688 138.7236328125 145.57862854003906 C137.88540649414062 145.0442352294922 137.0899200439453 144.50526428222656 136.3487091064453 143.9641571044922 C134.8662872314453 142.88194274902344 133.6009521484375 141.79119873046875 132.64500427246094 140.7115936279297 C131.68905639648438 139.63197326660156 131.04248046875 138.5634765625 130.79757690429688 137.52577209472656 C130.43020629882812 135.9691162109375 130.2813720703125 134.60755920410156 130.28842163085938 133.4193115234375 C130.29547119140625 132.2310791015625 130.45840454101562 131.2161407470703 130.714599609375 130.35272216796875 C131.2269744873047 128.62586975097656 132.1123504638672 127.50508117675781 132.86964416503906 126.81600952148438 C133.62692260742188 126.1269302368164 134.25611877441406 125.86956787109375 134.25611877441406 125.86956787109375 L137.01528930664062 127.16902160644531 L139.77447509765625 128.46847534179688 C139.77447509765625 128.46847534179688 140.70249938964844 128.95590209960938 142.0167694091797 129.65977478027344 C142.67388916015625 130.01171875 143.42758178710938 130.41775512695312 144.21011352539062 130.8440399169922 C144.99264526367188 131.27032470703125 145.8040008544922 131.71682739257812 146.57647705078125 132.14971923828125 C148.12142944335938 133.0155029296875 149.51083374023438 133.8267364501953 150.202880859375 134.3124542236328 C150.5001983642578 134.51980590820312 151.16622924804688 134.9867401123047 152.10165405273438 135.64443969726562 C153.03709411621094 136.30215454101562 154.24195861816406 137.150634765625 155.61695861816406 138.1211395263672 C156.30447387695312 138.60638427734375 157.03451538085938 139.1221466064453 157.794677734375 139.6597900390625 C158.5548553466797 140.19744873046875 159.34515380859375 140.75701904296875 160.15316772460938 141.3298797607422 C160.961181640625 141.90274047851562 161.78692626953125 142.48892211914062 162.61798095703125 143.07980346679688 C163.44903564453125 143.67068481445312 164.285400390625 144.26629638671875 165.11465454101562 144.85800170898438 C165.94390869140625 145.44970703125 166.76608276367188 146.03753662109375 167.56874084472656 146.6128692626953 C168.37139892578125 147.18820190429688 169.154541015625 147.7510528564453 169.90577697753906 148.29281616210938 C171.4082489013672 149.37635803222656 172.78305053710938 150.3755645751953 173.93092346191406 151.22166442871094 C175.07879638671875 152.06777954101562 175.99972534179688 152.76077270507812 176.5944366455078 153.23187255859375 C177.636474609375 154.0564422607422 178.38099670410156 154.89234924316406 178.8887481689453 155.70513916015625 C179.39651489257812 156.5179443359375 179.6675262451172 157.30764770507812 179.7625732421875 158.03981018066406 C179.95263671875 159.50411987304688 179.4388427734375 160.73831176757812 178.70745849609375 161.4668731689453"></path>
<path fill="#FFD286" fill-opacity="1.0"  filling="0" d="M142.1281280517578 140.5030517578125 C142.1281280517578 140.5030517578125 141.9069061279297 140.8861083984375 141.50514221191406 141.57046508789062 C141.10336303710938 142.25482177734375 140.5210418701172 143.24046325683594 139.79881286621094 144.44564819335938 C139.0765838623047 145.6508331298828 138.21446228027344 147.07554626464844 137.2530975341797 148.63803100585938 C136.7724151611328 149.41928100585938 136.2669219970703 150.23495483398438 135.74169921875 151.07485961914062 C135.2164764404297 151.91477966308594 134.67153930664062 152.77890014648438 134.1119384765625 153.65704345703125 C133.55233764648438 154.53518676757812 132.9781036376953 155.42730712890625 132.39430236816406 156.32322692871094 C131.8105010986328 157.21914672851562 131.21713256835938 158.11883544921875 130.61929321289062 159.01210021972656 C130.02145385742188 159.90536499023438 129.4191131591797 160.79217529296875 128.8173828125 161.66233825683594 C128.21566772460938 162.53250122070312 127.61454010009766 163.385986328125 127.01910400390625 164.21261596679688 C126.42366027832031 165.0392303466797 125.83390808105469 165.83895874023438 125.25491333007812 166.6016082763672 C124.6759262084961 167.36424255371094 124.10770416259766 168.08978271484375 123.55532836914062 168.76800537109375 C123.00825500488281 169.4376983642578 122.36787414550781 170.02073669433594 121.65811157226562 170.5010528564453 C120.94834899902344 170.98138427734375 120.16921997070312 171.35897827148438 119.34464263916016 171.6177978515625 C118.30400085449219 171.9434356689453 117.0097885131836 172.30361938476562 115.59481048583984 172.59642028808594 C114.17984008789062 172.88922119140625 112.64408874511719 173.1146240234375 111.1203842163086 173.17068481445312 C110.35980987548828 173.1973114013672 109.26310729980469 173.2947235107422 107.918212890625 173.45018005371094 C106.57331085205078 173.6056365966797 104.980224609375 173.8191375732422 103.22688293457031 174.0779571533203 C101.77433776855469 174.2914581298828 100.2123794555664 174.5359344482422 98.59181213378906 174.80433654785156 C97.78152465820312 174.93853759765625 96.95658874511719 175.07870483398438 96.12335205078125 175.22396850585938 C95.29011535644531 175.36924743652344 94.44857788085938 175.5196075439453 93.60508728027344 175.67417907714844 C92.7615966796875 175.82876586914062 91.91615295410156 175.987548828125 91.07510375976562 176.149658203125 C90.23406219482422 176.311767578125 89.39741516113281 176.4772186279297 88.57151794433594 176.64511108398438 C86.91972351074219 176.98089599609375 85.31092071533203 177.3264617919922 83.79591369628906 177.6747589111328 C82.2809066772461 178.02305603027344 80.85969543457031 178.3740692138672 79.58307647705078 178.7207489013672 C78.30645751953125 179.06741333007812 77.1744384765625 179.40975952148438 76.23782348632812 179.7406768798828 C76.23782348632812 179.7406768798828 75.1119384765625 178.81753540039062 74.7115478515625 177.0828857421875 C74.34341430664062 175.5135955810547 74.6956787109375 173.52857971191406 76.23782348632812 173.517822265625 C76.34431457519531 173.517822265625 76.6540756225586 173.53370666503906 77.12358093261719 173.48045349121094 C77.97571563720703 173.38436889648438 79.3408203125 173.16021728515625 80.90498352050781 172.81314086914062 C81.68706512451172 172.6396026611328 82.51890563964844 172.43533325195312 83.36127471923828 172.20095825195312 C84.20364379882812 171.96658325195312 85.05653381347656 171.70211791992188 85.8807144165039 171.408203125 C87.5290756225586 170.82037353515625 89.06257629394531 170.11473083496094 90.16729736328125 169.29638671875 C91.31468963623047 168.4478302001953 92.54337310791016 167.6917724609375 93.82505798339844 167.03041076660156 C95.10675048828125 166.36903381347656 96.44143676757812 165.80233764648438 97.80083465576172 165.33251953125 C99.16023254394531 164.86270141601562 100.54434204101562 164.48974609375 101.92486572265625 164.2158203125 C103.55532836914062 163.89300537109375 105.180419921875 163.70751953125 106.75347137451172 163.66213989257812 C108.32653045654297 163.6167755126953 109.84754943847656 163.71148681640625 111.26988983154297 163.94906616210938 C111.26988983154297 163.94906616210938 111.55557250976562 163.4840087890625 112.04900360107422 162.68421936035156 C112.54243469238281 161.88442993164062 113.24361419677734 160.7498779296875 114.0746078491211 159.41090393066406 C114.49010467529297 158.74142456054688 114.93805694580078 158.02081298828125 115.40872192382812 157.26541137695312 C115.87937927246094 156.50997924804688 116.37275695800781 155.71975708007812 116.87910461425781 154.91098022460938 C117.38545227050781 154.10220336914062 117.90476989746094 153.27491760253906 118.42731475830078 152.44537353515625 C118.94985961914062 151.61582946777344 119.47563171386719 150.7840576171875 119.9948959350586 149.96630859375 C120.51416015625 149.1485595703125 121.02690887451172 148.34487915039062 121.52340698242188 147.57150268554688 C122.01990509033203 146.79815673828125 122.5001449584961 146.05511474609375 122.95439147949219 145.3587188720703 C123.86288452148438 143.96591186523438 124.66738891601562 142.75961303710938 125.28998565673828 141.87008666992188 C125.28998565673828 141.87008666992188 125.3476791381836 140.9678192138672 125.56439971923828 139.59463500976562 C125.67276000976562 138.90805053710938 125.82087707519531 138.10372924804688 126.02141571044922 137.23561096191406 C126.22195434570312 136.36749267578125 126.47491455078125 135.43557739257812 126.79296112060547 134.49375915527344 C127.11100769042969 133.55194091796875 127.49414825439453 132.60025024414062 127.95503234863281 131.69259643554688 C128.41592407226562 130.78494262695312 128.95455932617188 129.92132568359375 129.58363342285156 129.15567016601562 C130.21270751953125 128.3900146484375 130.93218994140625 127.7223129272461 131.7547607421875 127.20648956298828 C132.57733154296875 126.69066619873047 133.50299072265625 126.32672119140625 134.5443878173828 126.1685791015625 C135.58572387695312 126.01043701171875 136.4852294921875 126.11579895019531 137.2620849609375 126.42127227783203 C138.0389404296875 126.72674560546875 138.69314575195312 127.23233032226562 139.24388122558594 127.87460327148438 C139.79461669921875 128.51687622070312 140.2418975830078 129.2958526611328 140.6049041748047 130.1481170654297 C140.96791076660156 131.00038146972656 141.24664306640625 131.92593383789062 141.46029663085938 132.8613739013672 C141.6739501953125 133.79681396484375 141.822509765625 134.74215698242188 141.9251708984375 135.6339569091797 C142.02784729003906 136.5257568359375 142.08462524414062 137.36402893066406 142.11468505859375 138.0853729248047 C142.17481994628906 139.528076171875 142.1281280517578 140.5030517578125 142.1281280517578 140.5030517578125"></path>
<path fill="#A73E5C" fill-opacity="1.0"  filling="0" d="M78.75736999511719 171.97056579589844 C78.75736999511719 171.97056579589844 79.19462585449219 172.98074340820312 78.5397720336914 173.4256591796875 C77.88492584228516 173.87059020996094 75.60447692871094 174.2986297607422 75.14265441894531 176.17510986328125 C74.9117431640625 177.11334228515625 75.43551635742188 178.07333374023438 76.27192687988281 178.7578887939453 C77.10834503173828 179.4424285888672 78.25740051269531 179.85153198242188 79.27705383300781 179.6879425048828 C81.31686401367188 179.3607635498047 81.78840637207031 180.74317932128906 81.78840637207031 180.74317932128906 C81.78840637207031 180.74317932128906 81.09925842285156 181.95303344726562 80.46847534179688 182.3098907470703 C80.46847534179688 182.3098907470703 78.60838317871094 180.53887939453125 76.94438171386719 181.37548828125 C76.38971710205078 181.65452575683594 75.26780700683594 182.66806030273438 73.99613189697266 184.0110321044922 C73.36029052734375 184.68252563476562 72.68701171875 185.43637084960938 72.02847290039062 186.22195434570312 C71.36993408203125 187.0075225830078 70.72613525390625 187.8248291015625 70.1492691040039 188.6232452392578 C68.99552917480469 190.22006225585938 68.10948181152344 191.74127197265625 67.90860748291016 192.78182983398438 C67.90860748291016 192.78182983398438 65.70700073242188 192.6789093017578 65.12434387207031 190.8270263671875 C64.93012237548828 190.2098846435547 65.07098388671875 189.0999298095703 65.40048217773438 187.81541442871094 C65.72998046875 186.53089904785156 66.24813079833984 185.07183837890625 66.80848693847656 183.75648498535156 C67.36884307861328 182.44113159179688 67.97140502929688 181.26950073242188 68.46975708007812 180.55987548828125 C68.84339141845703 180.02764892578125 69.10047912597656 179.172607421875 69.27593994140625 178.18942260742188 C69.45140075683594 177.20623779296875 69.54524230957031 176.09490966796875 69.59237670898438 175.05010986328125 C69.6866455078125 172.96051025390625 69.59410095214844 171.13702392578125 69.59410095214844 171.13702392578125 C69.59410095214844 171.13702392578125 70.79039001464844 170.7984619140625 72.53394317626953 170.73336791992188 C73.40571594238281 170.70083618164062 74.41431427001953 170.73666381835938 75.47859191894531 170.9173583984375 C76.54287719726562 171.09805297851562 77.662841796875 171.42361450195312 78.75736999511719 171.97056579589844"></path>
<path fill="#EC4963" fill-opacity="1.0"  filling="0" d="M74.94554138183594 182.68006896972656 L74.06642150878906 182.0938262939453 C74.06642150878906 182.0938262939453 73.17298126220703 183.16455078125 72.21528625488281 184.32479858398438 C71.25759887695312 185.4850616455078 70.23564147949219 186.73484802246094 69.97862243652344 187.09298706054688 L70.54130554199219 187.557373046875 C70.54104614257812 187.557373046875 71.40480041503906 186.51353454589844 72.38726043701172 185.3819580078125 C73.3697280883789 184.2503662109375 74.47091674804688 183.03103637695312 74.94554138183594 182.68006896972656"></path>
<path fill="#5C2849" fill-opacity="1.0"  filling="0" d="M149.8506317138672 134.0963897705078 C149.8506317138672 134.0963897705078 150.32208251953125 134.42433166503906 151.11940002441406 134.9806671142578 C151.91671752929688 135.53700256347656 153.03988647460938 136.3217315673828 154.3433074951172 137.23532104492188 C154.99502563476562 137.69212341308594 155.69178771972656 138.18113708496094 156.41543579101562 138.68992614746094 C157.13906860351562 139.19873046875 157.8895721435547 139.727294921875 158.64874267578125 140.26318359375 C159.40789794921875 140.799072265625 160.1757354736328 141.34231567382812 160.9340362548828 141.88043212890625 C161.69232177734375 142.41854858398438 162.4410858154297 142.95155334472656 163.162109375 143.46701049804688 C163.162109375 143.46701049804688 162.7488555908203 143.9562225341797 162.03726196289062 144.73452758789062 C161.32566833496094 145.51283264160156 160.31570434570312 146.58023071289062 159.12229919433594 147.736572265625 C158.52560424804688 148.31475830078125 157.88302612304688 148.9151611328125 157.20895385742188 149.5128173828125 C156.53488159179688 150.11044311523438 155.82931518554688 150.705322265625 155.10659790039062 151.2723846435547 C154.38388061523438 151.83946228027344 153.64404296875 152.3787384033203 152.90139770507812 152.86521911621094 C152.15878295898438 153.3516845703125 151.41336059570312 153.78533935546875 150.67955017089844 154.1411895751953 C150.67955017089844 154.1411895751953 150.80088806152344 153.1622314453125 149.0785369873047 151.73939514160156 C148.7340545654297 151.45481872558594 147.8708038330078 150.97097778320312 146.6910400390625 150.33697509765625 C145.51126098632812 149.70297241210938 144.01498413085938 148.91880798339844 142.40444946289062 148.03358459472656 C141.59918212890625 147.59097290039062 140.76535034179688 147.1230926513672 139.92825317382812 146.63609313964844 C139.0911407470703 146.1490936279297 138.25076293945312 145.64297485351562 137.432373046875 145.1238555908203 C136.61398315429688 144.604736328125 135.81759643554688 144.07264709472656 135.06851196289062 143.53369140625 C134.31942749023438 142.99473571777344 133.61761474609375 142.44894409179688 132.98837280273438 141.9024200439453 C131.7299041748047 140.8094024658203 130.76171875 139.71353149414062 130.28607177734375 138.6639404296875 C129.88978576660156 137.78927612304688 129.63119506835938 136.8783721923828 129.49066162109375 135.9630126953125 C129.35011291503906 135.04763793945312 129.32760620117188 134.1278076171875 129.40350341796875 133.23529052734375 C129.47940063476562 132.3427734375 129.65367126464844 131.4775848388672 129.90667724609375 130.67149353027344 C130.15969848632812 129.86538696289062 130.491455078125 129.11837768554688 130.8822784423828 128.4622344970703 C131.66392517089844 127.14996337890625 132.681884765625 126.201171875 133.7789306640625 125.87007904052734 C134.60171508789062 125.62162780761719 136.01759338378906 126.01155090332031 137.6785888671875 126.7361831665039 C138.50909423828125 127.09849548339844 139.40086364746094 127.54449462890625 140.3104248046875 128.0362091064453 C141.21998596191406 128.52792358398438 142.1473388671875 129.06536865234375 143.04896545410156 129.61056518554688 C143.95059204101562 130.15576171875 144.82652282714844 130.70872497558594 145.6332244873047 131.2314910888672 C146.43994140625 131.7542724609375 147.1774444580078 132.24685668945312 147.80224609375 132.67127990722656 C149.05184936523438 133.5201416015625 149.8506317138672 134.0963897705078 149.8506317138672 134.0963897705078"></path>
<path fill="#5C2849" fill-opacity="1.0"  filling="0" d="M132.4200897216797 126.62220764160156 C132.4200897216797 126.62220764160156 131.51449584960938 126.85964965820312 130.33094787597656 127.91264343261719 C129.73916625976562 128.43914794921875 129.07791137695312 129.16952514648438 128.4256134033203 130.17605590820312 C127.7733154296875 131.18260192871094 127.12998962402344 132.4652862548828 126.57408142089844 134.0963897705078 C126.29612731933594 134.9119415283203 126.0431900024414 135.7478485107422 125.80276489257812 136.58750915527344 C125.56233215332031 137.42715454101562 125.33441162109375 138.27056884765625 125.10649108886719 139.10108947753906 C124.65064239501953 140.7621307373047 124.19478607177734 142.37168884277344 123.63884735107422 143.79681396484375 C123.08291625976562 145.221923828125 122.42689514160156 146.46261596679688 121.57073211669922 147.38592529296875 C120.71456146240234 148.3092498779297 119.65824127197266 148.91519165039062 118.30169677734375 149.0708465576172 C118.30169677734375 149.0708465576172 118.82428741455078 149.54339599609375 119.71240997314453 150.24525451660156 C120.60053253173828 150.94711303710938 121.85417938232422 151.8782958984375 123.31629180908203 152.7955780029297 C124.04734802246094 153.25421142578125 124.83052062988281 153.70938110351562 125.64617919921875 154.13067626953125 C126.46183013916016 154.5519561767578 127.30996704101562 154.93936157226562 128.17095947265625 155.26248168945312 C129.03195190429688 155.58560180664062 129.90577697753906 155.84445190429688 130.7728271484375 156.00860595703125 C131.639892578125 156.17276000976562 132.50015258789062 156.24224853515625 133.33401489257812 156.18663024902344 L135.94317626953125 152.18380737304688 L138.5523223876953 148.18099975585938 L141.16146850585938 144.1781768798828 L141.16146850585938 140.81741333007812 L141.16146850585938 137.45663452148438 L141.16146850585938 134.0958709716797 L138.2476806640625 131.60464477539062 L135.33389282226562 129.11343383789062 L132.4200897216797 126.62220764160156"></path>
<path fill="#EC4963" fill-opacity="1.0"  filling="0" d="M133.06369018554688 70.19673156738281 C133.06369018554688 70.19673156738281 133.39315795898438 71.09823608398438 133.63040161132812 72.30860900878906 C133.86764526367188 73.51897430419922 134.01266479492188 75.0382080078125 133.64378356933594 76.27366638183594 C133.39785766601562 77.09730529785156 133.1292266845703 77.76165008544922 132.90310668945312 78.55773162841797 C132.677001953125 79.35382080078125 132.49339294433594 80.2816390991211 132.41751098632812 81.63221740722656 C132.37957763671875 82.30751037597656 132.3685760498047 83.08848571777344 132.3926544189453 84.01153564453125 C132.41673278808594 84.93458557128906 132.47589111328125 85.99969482421875 132.5782928466797 87.2432632446289 C132.66152954101562 88.25337982177734 132.90280151367188 89.29487609863281 133.2445068359375 90.37228393554688 C133.58621215820312 91.44969177246094 134.02835083007812 92.56299591064453 134.51332092285156 93.71675109863281 C134.998291015625 94.87049865722656 135.5260772705078 96.06468963623047 136.03907775878906 97.30384063720703 C136.5520782470703 98.5429916381836 137.05030822753906 99.82711791992188 137.47613525390625 101.16073608398438 C137.90196228027344 102.49435424804688 138.25538635253906 103.87747192382812 138.47882080078125 105.31461334228516 C138.70223999023438 106.75175476074219 138.79566955566406 108.24292755126953 138.70147705078125 109.79265594482422 C138.60728454589844 111.3423843383789 138.3254852294922 112.95067596435547 137.7984619140625 114.6220474243164 C137.53494262695312 115.45773315429688 137.2101287841797 116.30919647216797 136.81680297851562 117.17699432373047 C136.42349243164062 118.04479217529297 135.96165466308594 118.92892456054688 135.4241180419922 119.82996368408203 C134.88656616210938 120.73100280761719 134.27333068847656 121.6489486694336 133.57717895507812 122.58436584472656 C132.88101196289062 123.519775390625 132.10195922851562 124.47266387939453 131.23277282714844 125.44358825683594 C131.23277282714844 125.44358825683594 131.54171752929688 125.78996276855469 132.1231689453125 126.3441162109375 C132.70462036132812 126.89826202392578 133.55860900878906 127.6601791381836 134.648681640625 128.4912567138672 C135.73875427246094 129.32232666015625 137.06494140625 130.22256469726562 138.59078979492188 131.05335998535156 C139.3537139892578 131.46875 140.16656494140625 131.86679077148438 141.02476501464844 132.2301483154297 C141.8829803466797 132.59349060058594 142.78656005859375 132.92214965820312 143.73094177246094 133.19879150390625 C144.67532348632812 133.47543334960938 145.66053771972656 133.70005798339844 146.6820068359375 133.8553466796875 C147.70346069335938 134.01063537597656 148.76119995117188 134.09658813476562 149.8506317138672 134.0958709716797 C149.8506317138672 134.0958709716797 149.95736694335938 133.7481231689453 150.1414031982422 133.11354064941406 C150.325439453125 132.4789581298828 150.58676147460938 131.5575408935547 150.89593505859375 130.41021728515625 C151.20510864257812 129.26287841796875 151.56211853027344 127.88963317871094 151.93753051757812 126.35137939453125 C152.125244140625 125.5822525024414 152.31753540039062 124.77188110351562 152.51075744628906 123.92786407470703 C152.7039794921875 123.08385467529297 152.8981170654297 122.20620727539062 153.08949279785156 121.30253601074219 C153.28086853027344 120.39886474609375 153.469482421875 119.46917724609375 153.65164184570312 118.52108001708984 C153.83380126953125 117.57298278808594 154.009521484375 116.60648345947266 154.1751251220703 115.62918853759766 C154.34072875976562 114.65189361572266 154.49618530273438 113.66380310058594 154.63784790039062 112.67254638671875 C154.77951049804688 111.6812744140625 154.90736389160156 110.68683624267578 155.01773071289062 109.69683074951172 C155.1280975341797 108.70682525634766 155.22097778320312 107.72125244140625 155.2926788330078 106.74774169921875 C155.3643798828125 105.77422332763672 155.4149169921875 104.81275939941406 155.44061279296875 103.87095642089844 C155.46629333496094 102.92915344238281 155.46713256835938 102.00701904296875 155.43942260742188 101.11216735839844 C155.41172790527344 100.21731567382812 155.35549926757812 99.34973907470703 155.26705932617188 98.51705932617188 C155.09017944335938 96.85169982910156 154.784423828125 95.325927734375 154.3203887939453 94.00064086914062 C153.79833984375 92.50969696044922 153.25067138671875 91.20236206054688 152.6913299560547 90.05398559570312 C152.1320037841797 88.9056167602539 151.56100463867188 87.91621398925781 150.9923095703125 87.0611343383789 C149.85491943359375 85.3509750366211 148.72674560546875 84.17810821533203 147.719482421875 83.34540557861328 C146.71221923828125 82.5126953125 145.82586669921875 82.02015686035156 145.17213439941406 81.67063903808594 C144.51840209960938 81.32111358642578 144.0972900390625 81.1146240234375 144.02047729492188 80.85401153564453 C143.86688232421875 80.33279418945312 143.9165496826172 78.59673309326172 144.00460815429688 76.99097442626953 C144.09268188476562 75.38521575927734 144.21914672851562 73.90975952148438 144.21914672851562 73.90975952148438 L140.50067138671875 72.67208862304688 L136.7821807861328 71.43441009521484 L133.06369018554688 70.19673156738281"></path>
<path fill="#9B5A50" fill-opacity="1.0"  filling="0" d="M130.68185424804688 40.052215576171875 C130.68185424804688 40.052215576171875 131.05984497070312 38.784637451171875 130.9930877685547 37.35026550292969 C130.9263458251953 35.91590118408203 130.41485595703125 34.31475067138672 128.6359100341797 33.647613525390625 C127.44994354248047 33.202850341796875 126.52088928222656 33.28192901611328 125.63301086425781 33.652557373046875 C124.74512481689453 34.023193359375 123.89840698242188 34.68537902832031 122.87712097167969 35.40684509277344 C121.8558349609375 36.12830352783203 120.65997314453125 36.90904998779297 119.07379150390625 37.51679229736328 C117.48744201660156 38.124542236328125 115.98023223876953 37.828033447265625 114.56857299804688 37.27787780761719 C113.15691375732422 36.72772216796875 111.84080505371094 35.923919677734375 110.63668060302734 35.51707458496094 C109.43254852294922 35.11022186279297 108.34039306640625 35.10032653808594 107.37664031982422 36.137977600097656 C107.37664031982422 36.137977600097656 109.32274627685547 35.62495422363281 110.35647583007812 37.16095733642578 C110.99698638916016 38.112762451171875 111.81716918945312 39.10369110107422 112.79496765136719 40.01918029785156 C113.77275848388672 40.934661865234375 114.90816497802734 41.77470397949219 116.17911529541016 42.42475128173828 C117.45006561279297 43.074798583984375 118.8565673828125 43.53485107421875 120.37655639648438 43.690345764160156 C121.89654541015625 43.84584045410156 123.53002166748047 43.69677734375 125.25492858886719 43.12861633300781 C126.11737823486328 42.84452819824219 127.002685546875 42.455665588378906 127.90809631347656 41.94770812988281 C128.81350708007812 41.43974685668945 129.739013671875 40.81269073486328 130.68185424804688 40.052215576171875"></path>
<path fill="#F38498" fill-opacity="1.0"  filling="0" d="M133.64378356933594 42.999290466308594 L130.43763732910156 39.25144958496094 C130.43763732910156 39.25144958496094 129.10336303710938 38.27147674560547 128.36965942382812 40.66303253173828 L131.50616455078125 44.16716766357422 L133.64378356933594 42.999290466308594"></path>
<path fill="#F37344" fill-opacity="1.0"  filling="0" d="M101.14047241210938 43.66444396972656 C101.14207458496094 45.132896423339844 100.85145568847656 46.572296142578125 100.30099487304688 47.904319763183594 C99.75053405761719 49.23634338378906 98.94021606445312 50.46098327636719 97.90243530273438 51.49989318847656 C96.86465454101562 52.538818359375 95.64089965820312 53.3504638671875 94.30947875976562 53.902381896972656 C92.97805786132812 54.45429992675781 91.53897094726562 54.746490478515625 90.07052612304688 54.746490478515625 C88.60208129882812 54.746490478515625 87.16299438476562 54.45429992675781 85.83157348632812 53.902381896972656 C84.50015258789062 53.3504638671875 83.27639770507812 52.538818359375 82.23861694335938 51.49989318847656 C81.20083618164062 50.46098327636719 80.39051818847656 49.23634338378906 79.84005737304688 47.904319763183594 C79.28959655761719 46.572296142578125 78.99897766113281 45.132896423339844 79.00057983398438 43.66444396972656 C78.99897766113281 42.19585418701172 79.28959655761719 40.75645446777344 79.84005737304688 39.42443084716797 C80.39051818847656 38.0924072265625 81.20083618164062 36.867767333984375 82.23861694335938 35.828857421875 C83.27639770507812 34.78993225097656 84.50015258789062 33.97828674316406 85.83157348632812 33.426368713378906 C87.16299438476562 32.87445068359375 88.60208129882812 32.58226013183594 90.07052612304688 32.58226013183594 C91.53897094726562 32.58226013183594 92.97805786132812 32.87445068359375 94.30947875976562 33.426368713378906 C95.64089965820312 33.97828674316406 96.86465454101562 34.78993225097656 97.90243530273438 35.828857421875 C98.94021606445312 36.867767333984375 99.75053405761719 38.0924072265625 100.30099487304688 39.42443084716797 C100.85145568847656 40.75645446777344 101.14207458496094 42.19585418701172 101.14047241210938 43.664306640625"></path>
<path fill="#FFD286" fill-opacity="1.0"  filling="0" d="M128.6446075439453 77.55366516113281 L124.25575256347656 76.79488372802734 L119.86688232421875 76.03610229492188 L115.47801208496094 75.27731323242188 C115.47801208496094 75.27731323242188 115.15913391113281 74.75430297851562 114.60765075683594 73.90170288085938 C114.0561752319336 73.04910278320312 113.2720947265625 71.86691284179688 112.3416976928711 70.54853820800781 C111.87649536132812 69.88935852050781 111.37471771240234 69.19612884521484 110.8471450805664 68.49303436279297 C110.31956481933594 67.7899398803711 109.76619720458984 67.07698059082031 109.19781494140625 66.37832641601562 C108.62943267822266 65.67967224121094 108.0460433959961 64.99533081054688 107.45842742919922 64.34947204589844 C106.87081909179688 63.703617095947266 106.27897644042969 63.096248626708984 105.69369506835938 62.551544189453125 C104.91323852539062 61.82518768310547 104.1507568359375 61.050392150878906 103.42193603515625 60.26347351074219 C102.693115234375 59.476558685302734 101.99796295166016 58.67752456665039 101.35215759277344 57.90269470214844 C100.70635986328125 57.12786865234375 100.10990905761719 56.37725067138672 99.5784912109375 55.68716049194336 C99.04708099365234 54.9970703125 98.58070373535156 54.36751174926758 98.19505310058594 53.834800720214844 C97.42375183105469 52.769386291503906 96.97535705566406 52.09138488769531 96.97535705566406 52.09138488769531 C96.97535705566406 52.09138488769531 96.08613586425781 52.044410705566406 95.11910247802734 52.386619567871094 C94.15206146240234 52.72882843017578 93.10719299316406 53.46022033691406 92.79590606689453 55.01696014404297 C92.79590606689453 55.01696014404297 93.20606231689453 55.6241455078125 93.89850616455078 56.64607238769531 C94.59095001220703 57.66798400878906 95.56568145751953 59.10462951660156 96.69483947753906 60.7635498046875 C97.25941467285156 61.59300994873047 97.86260223388672 62.47803497314453 98.48841094970703 63.39457321166992 C99.11421966552734 64.31111145019531 99.76264953613281 65.2591552734375 100.417724609375 66.21465301513672 C101.07279968261719 67.17015075683594 101.73451232910156 68.13310241699219 102.38687896728516 69.07945251464844 C103.03924560546875 70.02579498291016 103.6822738647461 70.95553588867188 104.29997253417969 71.84461975097656 C104.91767120361328 72.73369598388672 105.51004028320312 73.58210754394531 106.06111145019531 74.36580657958984 C106.61216735839844 75.14950561523438 107.1219253540039 75.86848449707031 107.57438659667969 76.4986801147461 C108.47930908203125 77.75907897949219 109.15505981445312 78.66436767578125 109.47378540039062 79.02207946777344 C110.42994689941406 80.09523010253906 111.56185150146484 80.8748779296875 112.55033111572266 81.39014434814453 C113.53881072998047 81.90541076660156 114.38386535644531 82.15628814697266 114.7663345336914 82.17190551757812 C115.02130889892578 82.18231201171875 116.50423431396484 82.39900207519531 118.3681411743164 82.68329620361328 C119.30009460449219 82.825439453125 120.3272933959961 82.98448944091797 121.3438720703125 83.14310455322266 C122.3604507446289 83.30171203613281 123.36640167236328 83.45989227294922 124.255859375 83.60030364990234 C126.03477478027344 83.88113403320312 127.34770965576172 84.09088134765625 127.34770965576172 84.09088134765625 L127.99615478515625 80.82227325439453 L128.6446075439453 77.55366516113281"></path>
<path fill="#FFD286" fill-opacity="1.0"  filling="0" d="M97.84473419189453 52.69196319580078 L97.82988739013672 52.46002960205078 L98.37516784667969 48.81304931640625 C98.37516784667969 48.81304931640625 96.69709014892578 48.08216857910156 94.96339416503906 47.309814453125 C93.22969818115234 46.53746795654297 91.44038391113281 45.72364807128906 91.2179183959961 45.557762145996094 C91.2179183959961 45.557762145996094 90.20172119140625 45.98297882080078 89.26002502441406 47.106109619140625 C88.78917694091797 47.66767883300781 88.33695220947266 48.403724670410156 88.03968811035156 49.34834289550781 C87.74242401123047 50.2929573059082 87.6001205444336 51.44614028930664 87.74911499023438 52.84197998046875 C87.74911499023438 52.84197998046875 88.88984680175781 53.72364807128906 90.45368957519531 54.593658447265625 C91.23561096191406 55.02866744995117 92.12330627441406 55.46076202392578 93.0270767211914 55.778282165527344 C93.93084716796875 56.095802307128906 94.85069274902344 56.29874801635742 95.6968994140625 56.27545166015625 C99.08172607421875 56.182777404785156 97.31584167480469 54.53874969482422 97.31584167480469 54.53874969482422 L97.84473419189453 52.69196319580078"></path>
<path fill="#FFD286" fill-opacity="1.0"  filling="0" d="M97.95941925048828 51.59321594238281 C97.95941925048828 51.59321594238281 98.66496276855469 48.465919494628906 99.11859130859375 47.728118896484375 C99.57222747802734 46.990333557128906 99.06175231933594 44.421119689941406 99.45855712890625 43.3387451171875 C99.85536193847656 42.256378173828125 98.0162582397461 42.24921417236328 97.99781799316406 43.136512756347656 C97.98860168457031 43.580162048339844 97.79788208007812 44.68377685546875 97.44511413574219 45.720062255859375 C97.09234619140625 46.75634765625 96.57752990722656 47.725311279296875 95.92012023925781 47.89964294433594 C94.60531616210938 48.248313903808594 94.41331481933594 48.98713684082031 94.30732727050781 49.13715362548828 C94.20133972167969 49.28717041015625 94.82752227783203 50.677764892578125 95.00773620605469 50.69721221923828 C95.1879653930664 50.717185974121094 97.79097747802734 52.30335235595703 97.95941925048828 51.59321594238281"></path>
<path fill="#FFD286" fill-opacity="1.0"  filling="0" d="M91.16928100585938 45.76152801513672 C91.16928100585938 45.76152801513672 89.8265609741211 44.62232971191406 88.33721923828125 43.297210693359375 C87.59254455566406 42.63465118408203 86.81121826171875 41.92560958862305 86.14273834228516 41.289249420166016 C85.4742660522461 40.65288543701172 84.91865539550781 40.08920669555664 84.62540435791016 39.717369079589844 C84.62540435791016 39.717369079589844 83.6705322265625 40.09523010253906 84.09906768798828 40.82073211669922 C84.31333923339844 41.18347930908203 85.43462371826172 42.557945251464844 86.72896575927734 43.942710876464844 C88.02330017089844 45.327484130859375 89.49069213867188 46.722557067871094 90.39718627929688 47.12652587890625 C92.21017456054688 47.93395233154297 92.45695495605469 47.539703369140625 92.48511505126953 47.314430236816406 C92.51378631591797 47.08863830566406 91.16928100585938 45.76152801513672 91.16928100585938 45.76152801513672"></path>
<path fill="#FFD286" fill-opacity="1.0"  filling="0" d="M89.35731506347656 48.062461853027344 C89.30884552001953 48.03651428222656 88.51336669921875 47.50096130371094 87.4323959350586 46.752899169921875 C86.35142517089844 46.00482177734375 84.98497772216797 45.04423522949219 83.7945556640625 44.16822814941406 C82.60414123535156 43.292205810546875 81.58975219726562 42.500770568847656 81.21292877197266 42.09100341796875 C81.21292877197266 42.09100341796875 80.16537475585938 42.174461364746094 80.82278442382812 43.21637725830078 C81.04192352294922 43.563690185546875 81.68903350830078 44.272979736328125 82.55376434326172 45.090606689453125 C83.41848754882812 45.908233642578125 84.50083923339844 46.834190368652344 85.5904541015625 47.614837646484375 C86.68006134033203 48.39549255371094 87.77693176269531 49.03082275390625 88.67071533203125 49.26719665527344 C91.35206604003906 49.97682189941406 89.35731506347656 48.062461853027344 89.35731506347656 48.062461853027344"></path>
<path fill="#FFD286" fill-opacity="1.0"  filling="0" d="M88.33229064941406 49.897979736328125 C88.33229064941406 49.897979736328125 87.21562194824219 49.62815856933594 85.71481323242188 49.13957977294922 C84.96441650390625 48.89529037475586 84.11798095703125 48.5963134765625 83.26708984375 48.2490348815918 C82.41619110107422 47.901756286621094 81.56082916259766 47.50617218017578 80.79257202148438 47.06866455078125 C80.79257202148438 47.06866455078125 80.11724853515625 47.53356170654297 80.66099548339844 48.15154266357422 C80.932861328125 48.460540771484375 82.4248275756836 49.265655517578125 84.08831787109375 49.97074890136719 C85.75180053710938 50.67583465576172 87.5868148803711 51.28089141845703 88.54476928710938 51.18975830078125 C90.46015930175781 51.007484436035156 88.33229064941406 49.897979736328125 88.33229064941406 49.897979736328125"></path>
<path fill="#FFD286" fill-opacity="1.0"  filling="0" d="M88.3773422241211 51.7867431640625 C88.3773422241211 51.7867431640625 86.98534393310547 51.57452392578125 85.47449493408203 51.28230285644531 C83.9636459350586 50.990081787109375 82.33395385742188 50.61785888671875 81.85855865478516 50.29785919189453 C81.85855865478516 50.29785919189453 80.95179748535156 50.66802978515625 81.9998779296875 51.159034729003906 C82.52416229248047 51.404541015625 83.86495971679688 51.90283966064453 85.25856018066406 52.3150634765625 C86.65216064453125 52.727294921875 88.09855651855469 53.053436279296875 88.83404541015625 52.954620361328125 C90.3055419921875 52.75749969482422 88.3773422241211 51.7867431640625 88.3773422241211 51.7867431640625"></path>
<path fill="#FFD286" fill-opacity="1.0"  filling="0" d="M148.4400634765625 45.83372497558594 C148.4400634765625 45.83372497558594 149.2263641357422 46.64537048339844 149.98483276367188 48.20198059082031 C150.36407470703125 48.98028564453125 150.73634338378906 49.944828033447266 150.9998779296875 51.08727264404297 C151.263427734375 52.22972106933594 151.41824340820312 53.550071716308594 151.36256408691406 55.03999328613281 C151.32275390625 56.10533905029297 151.30006408691406 57.1189079284668 151.3353271484375 58.04521179199219 C151.37060546875 58.97151565551758 151.46383666992188 59.81055450439453 151.65586853027344 60.52684020996094 C152.03994750976562 61.95941925048828 152.8192138671875 62.90098571777344 154.3203887939453 63.06764221191406 C154.3203887939453 63.06764221191406 152.71527099609375 65.63174438476562 151.0154266357422 65.9363784790039 C151.0154266357422 65.9363784790039 150.7850341796875 66.79295349121094 151.25196838378906 67.29881286621094 L150.11788940429688 67.93778991699219 L150.3846435546875 68.87167358398438 C150.3846435546875 68.87167358398438 148.44979858398438 69.138427734375 148.18304443359375 71.40658569335938 C147.91629028320312 73.67474365234375 147.7458038330078 74.00601196289062 146.44635009765625 74.53541564941406 C146.01319885253906 74.71188354492188 145.09829711914062 74.57762908935547 143.88052368164062 74.23678588867188 C142.66273498535156 73.89595031738281 141.14205932617188 73.34852600097656 139.497314453125 72.69866180419922 C138.67495727539062 72.37373352050781 137.82156372070312 72.023193359375 136.95953369140625 71.66006469726562 C136.09750366210938 71.29693603515625 135.226806640625 70.92121124267578 134.3697967529297 70.54591369628906 C133.08428955078125 69.98297119140625 131.93008422851562 69.16341400146484 130.93370056152344 68.13970947265625 C129.93731689453125 67.11599731445312 129.09878540039062 65.88812255859375 128.44461059570312 64.50853729248047 C127.79043579101562 63.12895202636719 127.32062530517578 61.59765625 127.06172180175781 59.96710205078125 C126.93226623535156 59.15182113647461 126.85554504394531 58.31172561645508 126.8348617553711 57.453369140625 C126.81417846679688 56.59501647949219 126.84954071044922 55.71839904785156 126.94425964355469 54.830078125 C127.13369750976562 53.053436279296875 127.46502685546875 51.41667175292969 127.98036193847656 49.960662841796875 C128.49569702148438 48.50465393066406 129.19503784179688 47.229400634765625 130.12051391601562 46.17579650878906 C131.04598999023438 45.12220001220703 132.1975860595703 44.290252685546875 133.617431640625 43.72083282470703 C134.32736206054688 43.436126708984375 135.10433959960938 43.21705627441406 135.9536590576172 43.0687255859375 C136.802978515625 42.9203987121582 137.724609375 42.84281539916992 138.72384643554688 42.841087341308594 C140.01092529296875 42.83895492553711 141.13888549804688 42.92066192626953 142.125 43.058319091796875 C143.11111450195312 43.19597625732422 143.95538330078125 43.38958740234375 144.6750946044922 43.61126708984375 C146.11453247070312 44.05461883544922 147.05577087402344 44.61023712158203 147.6371612548828 45.05500793457031 C148.21853637695312 45.499786376953125 148.4400634765625 45.83372497558594 148.4400634765625 45.83372497558594"></path>
<path fill="#BD4932" fill-opacity="1.0"  filling="0" d="M148.20352172851562 58.72895812988281 L148.01971435546875 58.70591735839844 C147.8190155029297 58.680824279785156 147.67514038085938 58.4954833984375 147.70022583007812 58.294776916503906 L148.11187744140625 55.020545959472656 C148.13694763183594 54.81983947753906 148.32229614257812 54.67596435546875 148.52301025390625 54.701560974121094 C148.9075164794922 54.74969482421875 149.0513916015625 54.935035705566406 149.0258026123047 55.1357421875 L148.6141357421875 58.40998077392578 C148.58956909179688 58.610687255859375 148.4047393798828 58.75404357910156 148.20352172851562 58.72895812988281"></path>
<path fill="#FFFFFF" fill-opacity="1.0"  filling="0" d="M149.2500457763672 66.90354919433594 C149.2500457763672 66.90354919433594 147.0817413330078 66.203125 146.14784240722656 64.40191650390625 C146.14784240722656 64.40191650390625 144.9763946533203 66.155517578125 145.84678649902344 67.57068634033203 C145.84678649902344 67.57068634033203 147.91578674316406 68.20454406738281 149.0160675048828 68.07090759277344 L149.2500457763672 66.90354919433594"></path>
<path fill="#9B5A50" fill-opacity="1.0"  filling="0" d="M149.35040283203125 53.427703857421875 C149.35040283203125 53.427703857421875 147.96031188964844 50.52568817138672 145.31430053710938 51.25938415527344 C145.31430053710938 51.25938415527344 145.94802856445312 50.80767822265625 146.85696411132812 50.77568054199219 C147.76588439941406 50.743675231933594 148.95001220703125 51.13139343261719 150.05081176757812 52.81023406982422 L149.35040283203125 53.427703857421875"></path>
<path fill="#9B5A50" fill-opacity="1.0"  filling="0" d="M150.5623016357422 45.25567626953125 C150.5623016357422 45.25567626953125 151.62982177734375 46.54540252685547 152.2969512939453 47.47929382324219 C152.5193328857422 47.79058837890625 152.1931915283203 48.211456298828125 151.4140625 48.65058135986328 C150.6349334716797 49.08970642089844 149.40281677246094 49.547088623046875 147.81324768066406 49.931434631347656 C147.01846313476562 50.12360382080078 146.13430786132812 50.29751205444336 145.17274475097656 50.44174575805664 C144.211181640625 50.58597946166992 143.17218017578125 50.700538635253906 142.06771850585938 50.774009704589844 C142.06771850585938 50.774009704589844 143.92462158203125 50.39500427246094 145.75091552734375 49.66021728515625 C146.6640625 49.29282760620117 147.569580078125 48.83649444580078 148.2314910888672 48.29411697387695 C148.89340209960938 47.751739501953125 149.31173706054688 47.12332534790039 149.2505645751953 46.411773681640625 C149.2500457763672 46.411773681640625 150.33651733398438 44.98021697998047 150.5623016357422 45.25567626953125"></path>
<path fill="#9B5A50" fill-opacity="1.0"  filling="0" d="M143.6241912841797 50.774009704589844 C143.6241912841797 50.774009704589844 140.66842651367188 53.19422912597656 140.5675506591797 53.427703857421875 C140.46669006347656 53.66118621826172 140.26803588867188 56.70604705810547 140.5675506591797 57.09618377685547 L138.724365234375 56.72499084472656 C138.724365234375 56.72499084472656 138.83750915527344 55.679359436035156 138.66708374023438 54.57855987548828 C138.49664306640625 53.477760314941406 138.04261779785156 52.32179260253906 136.9082794189453 52.10111999511719 C136.1522216796875 51.954010009765625 135.32205200195312 52.54780578613281 134.6994171142578 53.512001037597656 C134.0767822265625 54.4761962890625 133.66171264648438 55.810768127441406 133.73585510253906 57.14518737792969 C133.80999755859375 58.4796142578125 134.37338256835938 59.813880920410156 135.7076416015625 60.7774658203125 C135.7076416015625 60.7774658203125 135.68408203125 62.795387268066406 135.31590270996094 64.9245376586914 C135.13180541992188 65.9891128540039 134.86154174804688 67.08149719238281 134.46499633789062 67.9633560180664 C134.0684356689453 68.84521484375 133.54559326171875 69.51654052734375 132.85630798339844 69.73900604248047 C132.85630798339844 69.73900604248047 132.4039306640625 69.47840118408203 131.71804809570312 68.91819763183594 C131.0321807861328 68.35799407958984 130.11282348632812 67.49820709228516 129.1788787841797 66.29983520507812 C128.7119140625 65.70065307617188 128.2412872314453 65.0168228149414 127.79437255859375 64.24347686767578 C127.34746551513672 63.470130920410156 126.92427062988281 62.607269287109375 126.5521469116211 61.65001678466797 C126.18002319335938 60.69276428222656 125.8589859008789 59.64112091064453 125.61637878417969 58.49021911621094 C125.37377166748047 57.33931350708008 125.20960998535156 56.08914566040039 125.15123748779297 54.734840393066406 C125.10694885253906 53.70706558227539 125.14828491210938 52.74828338623047 125.26026916503906 51.856807708740234 C125.37225341796875 50.965335845947266 125.55489349365234 50.14117431640625 125.79320526123047 49.38264465332031 C126.26982879638672 47.865577697753906 126.96915435791016 46.61103820800781 127.77140045166016 45.605560302734375 C128.57363891601562 44.60009002685547 129.47879028320312 43.84368896484375 130.36705017089844 43.322914123535156 C131.2553253173828 42.80213928222656 132.126708984375 42.51698303222656 132.86143493652344 42.454010009765625 C132.86143493652344 42.454010009765625 133.23207092285156 42.12786865234375 133.98651123046875 41.75395202636719 C134.74095153808594 41.380043029785156 135.87921142578125 40.95835876464844 137.41444396972656 40.76728820800781 C138.18206787109375 40.6717529296875 139.04893493652344 40.633872985839844 140.01670837402344 40.688438415527344 C140.98446655273438 40.743003845214844 142.05313110351562 40.89002227783203 143.2243194580078 41.164283752441406 C144.3955078125 41.43854522705078 145.377685546875 41.800514221191406 146.20130920410156 42.213340759277344 C147.02493286132812 42.62616729736328 147.69000244140625 43.08984375 148.22698974609375 43.56752014160156 C149.3009796142578 44.52287292480469 149.8626708984375 45.53422546386719 150.15585327148438 46.306732177734375 C150.4490509033203 47.079246520996094 150.47373962402344 47.61292266845703 150.47373962402344 47.61292266845703 L147.04896545410156 49.19346618652344 L143.6241912841797 50.774009704589844"></path>
<path fill="#FFD286" fill-opacity="1.0"  filling="0" d="M135.11935424804688 75.60960388183594 C135.11935424804688 75.60960388183594 135.81849670410156 74.60198974609375 137.13311767578125 73.714111328125 C137.79043579101562 73.27017211914062 138.60162353515625 72.85617065429688 139.5562286376953 72.61302185058594 C140.51083374023438 72.36988067626953 141.6088409423828 72.29759216308594 142.83981323242188 72.53707885742188 C143.82460021972656 72.72877502441406 144.7599334716797 73.41766357421875 145.6571807861328 74.43722534179688 C146.55442810058594 75.456787109375 147.41357421875 76.80702209472656 148.24595642089844 78.3214111328125 C148.6621551513672 79.07860565185547 149.0716552734375 79.87683868408203 149.47589111328125 80.69529724121094 C149.880126953125 81.51375579833984 150.2790985107422 82.35243225097656 150.67420959472656 83.1905288696289 C151.0693359375 84.02862548828125 151.46058654785156 84.86611938476562 151.8494110107422 85.68221282958984 C152.2382354736328 86.49830627441406 152.6246337890625 87.29299926757812 153.00999450683594 88.04546356201172 C153.78073120117188 89.55039978027344 154.5474090576172 90.88644409179688 155.32135009765625 91.88710021972656 C155.96621704101562 92.72097778320312 156.57772827148438 93.4905014038086 157.1490936279297 94.19395446777344 C157.720458984375 94.89740753173828 158.25167846679688 95.53479766845703 158.7359619140625 96.10440826416016 C159.7045135498047 97.24362182617188 160.48529052734375 98.11173248291016 161.02394104003906 98.69503021240234 C161.5625762939453 99.27833557128906 161.8590850830078 99.57682800292969 161.8590850830078 99.57682800292969 C161.8590850830078 99.57682800292969 162.3677520751953 99.39045715332031 163.27670288085938 99.0829849243164 C164.18563842773438 98.7755126953125 165.49485778808594 98.34693908691406 167.095947265625 97.8625259399414 C167.896484375 97.62031555175781 168.77000427246094 97.36415100097656 169.70294189453125 97.10218048095703 C170.6358642578125 96.8402099609375 171.62820434570312 96.57243347167969 172.6664276123047 96.30702209472656 C173.70465087890625 96.0416030883789 174.78872680664062 95.7785415649414 175.90512084960938 95.52599334716797 C177.0215301513672 95.27345275878906 178.17025756835938 95.03141784667969 179.33773803710938 94.80805969238281 C180.89437866210938 94.51024627685547 182.289794921875 94.22315979003906 183.53448486328125 93.95149230957031 C184.77915954589844 93.67982482910156 185.87310791015625 93.42357635498047 186.8268280029297 93.18744659423828 C188.73426818847656 92.71519470214844 190.080810546875 92.32341766357422 190.9504852294922 92.0497055053711 C191.82015991210938 91.77599334716797 192.21298217773438 91.62034606933594 192.21298217773438 91.62034606933594 C192.21298217773438 91.62034606933594 192.94680786132812 92.05401611328125 193.55557250976562 92.97132873535156 C194.1643524169922 93.88864135742188 194.6480712890625 95.28960418701172 194.14785766601562 97.22419738769531 C194.14785766601562 97.22419738769531 193.60598754882812 97.41481018066406 192.66343688964844 97.7452621459961 C191.7209014892578 98.07571411132812 190.37770080566406 98.54601287841797 188.7750244140625 99.10539245605469 C187.97369384765625 99.38508605957031 187.1074981689453 99.68704223632812 186.194091796875 100.00492095947266 C185.28067016601562 100.32280731201172 184.32005310058594 100.6566162109375 183.32986450195312 101.0 C182.3396759033203 101.3433837890625 181.31991577148438 101.69635009765625 180.2882537841797 102.05254364013672 C179.256591796875 102.40874481201172 178.2130126953125 102.76817321777344 177.17518615722656 103.1244888305664 C176.13735961914062 103.48080444335938 175.10525512695312 103.8340072631836 174.09654235839844 104.17774963378906 C173.0878448486328 104.52149963378906 172.10252380371094 104.85578155517578 171.1582489013672 105.17426300048828 C170.21397399902344 105.49274444580078 169.3107452392578 105.79542541503906 168.46620178222656 106.0759506225586 C167.6216583251953 106.35647583007812 166.8358154296875 106.61485290527344 166.1262969970703 106.84473419189453 C164.70729064941406 107.30449676513672 163.59365844726562 107.6502685546875 162.9265899658203 107.831298828125 C162.14825439453125 108.04258728027344 161.353271484375 107.99627685546875 160.5629119873047 107.76742553710938 C159.77255249023438 107.53857421875 158.98684692382812 107.12718963623047 158.22708129882812 106.60831451416016 C157.46731567382812 106.08944702148438 156.73348999023438 105.46308135986328 156.0469207763672 104.80429077148438 C155.3603515625 104.14549255371094 154.7210235595703 103.45426940917969 154.1502685546875 102.80565643310547 C153.00875854492188 101.50843811035156 152.1414794921875 100.38169860839844 151.71890258789062 100.0258560180664 C151.5076141357422 99.8480224609375 150.90045166015625 99.2087631225586 150.0360870361328 98.24057006835938 C149.17172241210938 97.27237701416016 148.0501708984375 95.97525787353516 146.8101348876953 94.48169708251953 C146.19012451171875 93.73491668701172 145.5404815673828 92.93902587890625 144.87855529785156 92.11058807373047 C144.2166290283203 91.28215026855469 143.54241943359375 90.42117309570312 142.87327575683594 89.54419708251953 C142.20413208007812 88.66722106933594 141.54002380371094 87.7742691040039 140.8983154296875 86.88188934326172 C140.25662231445312 85.98950958251953 139.63729858398438 85.09770202636719 139.05770874023438 84.22303771972656 C138.47811889648438 83.34837341308594 137.9382781982422 82.4908447265625 137.4554901123047 81.6670150756836 C136.9727020263672 80.84318542480469 136.54698181152344 80.05305480957031 136.19566345214844 79.31318664550781 C135.4930419921875 77.83345031738281 135.08804321289062 76.55475616455078 135.11935424804688 75.60960388183594"></path>
<path fill="#FFD286" fill-opacity="1.0"  filling="0" d="M192.21298217773438 91.62086486816406 L192.2493438720703 89.05523681640625 C192.2493438720703 89.05523681640625 193.69677734375 88.20953369140625 195.19981384277344 87.3193588256836 C196.70285034179688 86.42918395996094 198.26150512695312 85.49452209472656 198.48397827148438 85.31660461425781 C198.48397827148438 85.31660461425781 198.97071838378906 85.53044891357422 199.60983276367188 86.06181335449219 C200.24893188476562 86.59317016601562 201.04042053222656 87.44205474853516 201.64988708496094 88.71212005615234 C201.95462036132812 89.34715270996094 202.21385192871094 90.08747863769531 202.3857879638672 90.94606018066406 C202.55772399902344 91.80464935302734 202.64236450195312 92.78148651123047 202.597900390625 93.88954162597656 C202.597900390625 93.88954162597656 201.30816650390625 94.76224517822266 199.60704040527344 95.61548614501953 C198.7564697265625 96.0421142578125 197.80307006835938 96.4638671875 196.8566131591797 96.76924133300781 C195.91015625 97.07461547851562 194.97064208984375 97.26361083984375 194.14785766601562 97.22470092773438 C192.50228881835938 97.14688110351562 191.76846313476562 96.08499145507812 191.44602966308594 95.04255676269531 C191.12359619140625 94.0001220703125 191.21255493164062 92.97714233398438 191.21255493164062 92.97714233398438 L192.21298217773438 91.62086486816406"></path>
<path fill="#FFD286" fill-opacity="1.0"  filling="0" d="M192.25396728515625 89.28408813476562 L192.25396728515625 84.81945037841797 L192.4628448486328 82.91839599609375 C192.4628448486328 82.91839599609375 193.25799560546875 82.6030044555664 193.48480224609375 83.38841247558594 C193.57440185546875 83.69920349121094 193.55392456054688 84.71807861328125 193.68089294433594 85.59001159667969 C193.87445068359375 86.92274475097656 194.34751892089844 87.5494384765625 195.39303588867188 87.88070678710938 C197.12255859375 88.42854309082031 194.32754516601562 89.78125 194.32754516601562 89.78125 L192.25396728515625 89.28408813476562"></path>
<path fill="#FFD286" fill-opacity="1.0"  filling="0" d="M198.09178161621094 85.67500305175781 C198.09178161621094 85.67500305175781 200.09933471679688 83.70277404785156 200.8350830078125 82.88665771484375 C201.57081604003906 82.07052612304688 203.5860595703125 79.7470703125 203.5860595703125 79.7470703125 C203.5860595703125 79.7470703125 204.38580322265625 79.68408966064453 204.35354614257812 80.40652465820312 C204.35354614257812 80.40652465820312 203.31393432617188 81.86636352539062 202.2423095703125 83.41254425048828 C201.1707000732422 84.9587173461914 200.06707763671875 86.59123229980469 199.9390869140625 86.93657684326172 C199.68307495117188 87.62725830078125 198.33958435058594 86.93657684326172 198.33958435058594 86.93657684326172 L198.09178161621094 85.67500305175781"></path>
<path fill="#FFD286" fill-opacity="1.0"  filling="0" d="M200.30772399902344 87.2437744140625 C200.30772399902344 87.2437744140625 202.00819396972656 86.14041137695312 203.80429077148438 84.95814514160156 C205.6003875732422 83.77587127685547 207.49209594726562 82.51468658447266 207.87457275390625 82.19903564453125 C208.63949584960938 81.56774139404297 209.3552703857422 82.68185424804688 208.60928344726562 83.41658020019531 C208.23629760742188 83.78419494628906 206.46592712402344 85.19756317138672 204.774658203125 86.5296630859375 C203.08340454101562 87.86175537109375 201.4712371826172 89.1125717163086 201.41465759277344 89.15506744384766 C201.301513671875 89.2405776977539 200.30772399902344 87.2437744140625 200.30772399902344 87.2437744140625"></path>
<path fill="#FFD286" fill-opacity="1.0"  filling="0" d="M201.7530975341797 89.98604583740234 C201.7530975341797 89.98604583740234 203.56263732910156 89.21049499511719 205.4138946533203 88.41407775878906 C207.26516723632812 87.61766052246094 209.1581573486328 86.80038452148438 209.3250732421875 86.71692657470703 C209.65887451171875 86.55001831054688 210.3592987060547 87.18386840820312 209.72543334960938 87.78443908691406 C209.40850830078125 88.08473205566406 207.5406036376953 89.11039733886719 205.75193786621094 90.06098937988281 C203.96327209472656 91.01158142089844 202.2538299560547 91.88710021972656 202.2538299560547 91.88710021972656 L201.7530975341797 89.98604583740234"></path>
<path fill="#FFD286" fill-opacity="1.0"  filling="0" d="M202.1529541015625 92.25421142578125 C202.1529541015625 92.25421142578125 203.62892150878906 91.85395812988281 205.1591033935547 91.42867279052734 C206.68927001953125 91.00338745117188 208.27366638183594 90.55308532714844 208.49050903320312 90.45298767089844 C208.92416381835938 90.25279235839844 209.291259765625 90.8200912475586 208.69068908691406 91.35359954833984 C208.39041137695312 91.62034606933594 206.82470703125 92.28223419189453 205.33409118652344 92.87743377685547 C203.84347534179688 93.4726333618164 202.42791748046875 94.00114440917969 202.42791748046875 94.00114440917969 L202.1529541015625 92.25421142578125"></path>
<path fill="#EC4963" fill-opacity="1.0"  filling="0" d="M134.46246337890625 75.98335266113281 C134.46246337890625 75.98335266113281 133.5684051513672 76.03682708740234 132.2205810546875 76.0739974975586 C130.87277221679688 76.11116027832031 129.0712127685547 76.13202667236328 127.25623321533203 76.0667953491211 C126.34873962402344 76.0341796875 125.43789672851562 75.98004150390625 124.57872772216797 75.8956527709961 C123.71956634521484 75.81126403808594 122.91207885742188 75.69664001464844 122.2113265991211 75.54303741455078 C122.2113265991211 75.54303741455078 121.83841705322266 76.2965316772461 121.46551513671875 77.47522735595703 C121.09260559082031 78.6539306640625 120.7197036743164 80.25784301757812 120.7197036743164 81.95866394042969 C120.7197036743164 82.80908203125 120.81292724609375 83.68372344970703 121.0459976196289 84.54156494140625 C121.27906036376953 85.39939880371094 121.65196228027344 86.24043273925781 122.2113265991211 87.02362060546875 C122.2113265991211 87.02362060546875 123.11569213867188 86.89266204833984 124.49813079833984 86.86207580566406 C125.18934631347656 86.8467788696289 126.00009155273438 86.85657501220703 126.87705993652344 86.9203872680664 C127.7540283203125 86.98419189453125 128.69723510742188 87.10200500488281 129.65338134765625 87.30274963378906 C130.60952758789062 87.50349426269531 131.57862854003906 87.78715515136719 132.50738525390625 88.18266296386719 C133.43614196777344 88.57817077636719 134.32455444335938 89.08551788330078 135.11935424804688 89.73362731933594 C136.7089385986328 91.02983856201172 137.3013916015625 90.49468994140625 137.38575744628906 89.18611145019531 C137.42794799804688 88.53182220458984 137.34310913085938 87.6841812133789 137.1923828125 86.77542114257812 C137.04165649414062 85.86666870117188 136.82505798339844 84.89680480957031 136.60369873046875 83.99806213378906 C136.16099548339844 82.20057678222656 135.69927978515625 80.6876220703125 135.7076416015625 80.51712036132812 C135.73272705078125 80.00613403320312 134.46246337890625 75.98335266113281 134.46246337890625 75.98335266113281"></path>
<path fill="#FFD286" fill-opacity="1.0"  filling="0" d="M132.85630798339844 69.73849487304688 C132.85630798339844 69.73849487304688 133.1315155029297 70.34098815917969 133.3759307861328 71.42752075195312 C133.62034606933594 72.51404571533203 133.833984375 74.08460998535156 133.71084594726562 76.02073669433594 C133.71084594726562 76.02073669433594 134.88153076171875 76.12364959716797 136.2314910888672 76.17510223388672 C137.58143615722656 76.2265625 139.11065673828125 76.2265625 139.8277130126953 76.02073669433594 C141.26182556152344 75.60908508300781 141.2956085205078 73.60768127441406 141.2956085205078 73.4412841796875 C141.2956085205078 73.27436828613281 139.66131591796875 71.10655975341797 139.52769470214844 70.87257385253906 C139.39404296875 70.63909912109375 135.32467651367188 69.03807067871094 135.32467651367188 69.03807067871094 L132.85630798339844 69.73849487304688"></path>
<path fill="#EC4963" fill-opacity="1.0"  filling="0" d="M133.95712280273438 76.64332580566406 C133.95712280273438 76.64332580566406 134.3491973876953 76.04473876953125 135.06578063964844 75.28862762451172 C135.7823486328125 74.53251647949219 136.8234100341797 73.61888122558594 138.12139892578125 72.98877716064453 C139.41937255859375 72.35868072509766 140.97425842285156 72.01211547851562 142.71847534179688 72.39013671875 C143.88583374023438 72.6431655883789 144.98876953125 73.37039184570312 146.0229034423828 74.38505554199219 C147.0570526123047 75.39971923828125 148.0224151611328 76.70181274414062 148.9146270751953 78.1045913696289 C149.80685424804688 79.50736999511719 150.62594604492188 81.01082611083984 151.36753845214844 82.42820739746094 C152.109130859375 83.84558868408203 152.77322387695312 85.17689514160156 153.35548400878906 86.23535919189453 C153.937744140625 87.29383087158203 154.43814086914062 88.0794677734375 154.85235595703125 88.40550231933594 C154.85235595703125 88.40550231933594 154.4862823486328 89.1442642211914 153.7649688720703 90.13629150390625 C153.0436553955078 91.1283187866211 151.96710205078125 92.37361907958984 150.54617309570312 93.3866958618164 C149.83570861816406 93.89323425292969 149.03915405273438 94.34172058105469 148.1578369140625 94.67146301269531 C147.2765350341797 95.00120544433594 146.31048583984375 95.21220397949219 145.2610626220703 95.2437744140625 C144.21163940429688 95.27534484863281 143.2618865966797 95.10140991210938 142.40736389160156 94.7880630493164 C141.55282592773438 94.4747085571289 140.79351806640625 94.0219497680664 140.1249542236328 93.49588012695312 C138.787841796875 92.44374084472656 137.81373596191406 91.09835815429688 137.1669158935547 89.98853302001953 C136.52008056640625 88.87870788574219 136.20053100585938 88.00444030761719 136.17254638671875 87.89453125 C136.1447296142578 87.78462219238281 135.88929748535156 86.49784851074219 135.5610809326172 84.83100128173828 C135.39697265625 83.99757385253906 135.2146759033203 83.06913757324219 135.03353881835938 82.14527893066406 C134.85238647460938 81.22142028808594 134.6724090576172 80.30213928222656 134.512939453125 79.48703002929688 C134.19400024414062 77.85682678222656 133.95712280273438 76.64332580566406 133.95712280273438 76.64332580566406"></path>
<path fill="#EC4963" fill-opacity="1.0"  filling="0" d="M103.22636413574219 174.07847595214844 C101.77381896972656 174.29197692871094 100.21186828613281 174.5364532470703 98.59130096435547 174.80484008789062 C97.78102111816406 174.93902587890625 96.95608520507812 175.07920837402344 96.12284088134766 175.2244873046875 C95.28960418701172 175.3697509765625 94.44806671142578 175.52011108398438 93.60457611083984 175.67469787597656 C92.7610855102539 175.82928466796875 91.91564178466797 175.98806762695312 91.07460021972656 176.15017700195312 C90.23355102539062 176.31228637695312 89.39690399169922 176.4777374267578 88.57100677490234 176.6456298828125 C86.91920471191406 176.98141479492188 85.3104019165039 177.3269805908203 83.79539489746094 177.67527770996094 C82.28038787841797 178.02357482910156 80.85917663574219 178.3745880126953 79.58255767822266 178.7212677001953 C78.30593872070312 179.06793212890625 77.17391967773438 179.4102783203125 76.2373046875 179.74119567871094 C76.2373046875 179.74119567871094 75.11141967773438 178.81805419921875 74.7110366821289 177.08338928222656 C74.34291076660156 175.5141143798828 74.6951675415039 173.5290985107422 76.2373046875 173.51834106445312 C76.34380340576172 173.51834106445312 76.653564453125 173.53421020507812 77.1230697631836 173.48095703125 C77.97520446777344 173.38487243652344 79.3403091430664 173.16073608398438 80.90447235107422 172.81365966796875 C81.68655395507812 172.64012145996094 82.51839447021484 172.43585205078125 83.36076354980469 172.20147705078125 C84.203125 171.96710205078125 85.05602264404297 171.70263671875 85.88020324707031 171.40872192382812 C87.52855682373047 170.82089233398438 89.06205749511719 170.115234375 90.16677856445312 169.29689025878906 C91.31417083740234 168.44833374023438 92.54286193847656 167.69229125976562 93.82454681396484 167.03091430664062 C95.10623168945312 166.36953735351562 96.44092559814453 165.8028564453125 97.80032348632812 165.33302307128906 C99.15971374511719 164.8632049560547 100.5438232421875 164.490234375 101.92434692382812 164.21630859375 C101.84789276123047 164.780029296875 101.75243377685547 165.6770477294922 101.73068237304688 166.75143432617188 C101.70893096923828 167.82582092285156 101.7608871459961 169.07757568359375 101.97926330566406 170.35072326660156 C102.19764709472656 171.62388610839844 102.58244323730469 172.91845703125 103.22636413574219 174.07847595214844"></path>
<path fill="#EC4963" fill-opacity="1.0"  filling="0" d="M167.1208953857422 171.43142700195312 C166.26589965820312 172.15830993652344 165.39512634277344 172.8980712890625 164.52024841308594 173.64083862304688 C163.6453857421875 174.3836212158203 162.76641845703125 175.12942504882812 161.8950958251953 175.868408203125 C161.02377319335938 176.60739135742188 160.16004943847656 177.3395538330078 159.315673828125 178.05506896972656 C158.47128295898438 178.77056884765625 157.646240234375 179.46942138671875 156.85223388671875 180.14175415039062 C156.0582275390625 180.81410217285156 155.29525756835938 181.45994567871094 154.57504272460938 182.06944274902344 C153.8548126220703 182.67893981933594 153.17733764648438 183.25210571289062 152.55433654785156 183.77906799316406 C151.30831909179688 184.8330078125 150.28013610839844 185.70217895507812 149.56344604492188 186.30789184570312 C148.84677124023438 186.91358947753906 148.44158935546875 187.2558135986328 148.44158935546875 187.2558135986328 C146.74432373046875 186.85824584960938 145.76370239257812 185.8375701904297 145.20742797851562 184.91629028320312 C144.65113830566406 183.99501037597656 144.5191650390625 183.17312622070312 144.5191650390625 183.17312622070312 C144.5191650390625 183.17312622070312 145.06988525390625 182.64810180664062 145.94049072265625 181.7566680908203 C146.81109619140625 180.86521911621094 148.00160217285156 179.60736083984375 149.28115844726562 178.14169311523438 C149.92092895507812 177.4088592529297 150.58297729492188 176.62408447265625 151.23841857910156 175.8071746826172 C151.8938751220703 174.99026489257812 152.542724609375 174.1412353515625 153.15614318847656 173.27989196777344 C153.76956176757812 172.41854858398438 154.3475341796875 171.544921875 154.8612060546875 170.67880249023438 C155.3748779296875 169.8126983642578 155.82424926757812 168.9541015625 156.18048095703125 168.1228790283203 C156.6822509765625 166.951416015625 157.320068359375 165.91334533691406 158.0378875732422 164.99603271484375 C158.75572204589844 164.07872009277344 159.5535430908203 163.2821807861328 160.37530517578125 162.5937957763672 C160.46951293945312 163.14505004882812 160.6710662841797 164.02847290039062 161.091064453125 165.0554656982422 C161.51104736328125 166.08245849609375 162.14947509765625 167.25302124023438 163.11741638183594 168.37855529785156 C163.60137939453125 168.94131469726562 164.16773986816406 169.49281311035156 164.83035278320312 170.00949096679688 C165.49298095703125 170.52615356445312 166.25186157226562 171.00799560546875 167.1208953857422 171.43142700195312"></path>
<path fill="#A73E5C" fill-opacity="1.0"  filling="0" d="M148.03353881835938 178.05209350585938 C148.03353881835938 178.05209350585938 148.780029296875 178.99725341796875 148.2132568359375 179.652099609375 C147.64646911621094 180.30694580078125 145.35475158691406 181.40211486816406 145.39520263671875 183.5161590576172 C145.41542053222656 184.57318115234375 146.23960876464844 185.44088745117188 147.31686401367188 185.9292755126953 C148.39410400390625 186.41766357421875 149.72442626953125 186.5267333984375 150.75686645507812 186.06643676757812 C152.82176208496094 185.14585876464844 153.7100830078125 186.4750213623047 153.7100830078125 186.4750213623047 C153.7100830078125 186.4750213623047 153.32199096679688 187.94854736328125 152.7552032470703 188.50405883789062 C152.7552032470703 188.50405883789062 150.28941345214844 187.15493774414062 148.7651824951172 188.5086669921875 C148.38412475585938 188.84710693359375 147.78204345703125 189.7123260498047 147.0970458984375 190.8740234375 C146.41204833984375 192.0357208251953 145.64413452148438 193.493896484375 144.931396484375 195.01824951171875 C144.21865844726562 196.5426025390625 143.56109619140625 198.1331329345703 143.09683227539062 199.5595245361328 C142.632568359375 200.98593139648438 142.36160278320312 202.24819946289062 142.42201232910156 203.11602783203125 C142.42201232910156 203.11602783203125 140.06475830078125 203.62701416015625 138.9276123046875 201.83294677734375 C138.5483856201172 201.2349395751953 138.38478088378906 200.0214385986328 138.3715057373047 198.5702667236328 C138.3582305908203 197.11907958984375 138.49530029296875 195.43023681640625 138.71743774414062 193.88148498535156 C138.93955993652344 192.33274841308594 139.24676513671875 190.92413330078125 139.57376098632812 190.03341674804688 C139.9007568359375 189.1425323486328 139.8470001220703 187.70318603515625 139.62997436523438 186.1800079345703 C139.4129638671875 184.65682983398438 139.03269958496094 183.0498046875 138.70669555664062 181.82357788085938 C138.38067626953125 180.5973663330078 138.10891723632812 179.75193786621094 138.10891723632812 179.75193786621094 C138.10891723632812 179.75193786621094 138.6288299560547 179.44297790527344 139.5163116455078 179.07106018066406 C140.40380859375 178.69912719726562 141.65887451171875 178.26425170898438 143.12918090820312 178.01242065429688 C144.5994873046875 177.76058959960938 146.28506469726562 177.6918182373047 148.03353881835938 178.05209350585938"></path>
<path fill="#EC4963" fill-opacity="1.0"  filling="0" d="M147.0187530517578 190.45068359375 L145.923583984375 190.0779571533203 C145.923583984375 190.0779571533203 145.28025817871094 191.46189880371094 144.59417724609375 192.9586639404297 C143.90809631347656 194.45542907714844 143.17926025390625 196.06503295898438 143.0082550048828 196.516357421875 L143.7337646484375 196.84915161132812 C143.7340087890625 196.84915161132812 144.35379028320312 195.501953125 145.07423400878906 194.02854919433594 C145.794677734375 192.55514526367188 146.61581420898438 190.9555206298828 147.0187530517578 190.45068359375"></path>
<path fill="#D12446" fill-opacity="1.0"  filling="0" d="M146.76377868652344 95.06918334960938 C146.76377868652344 95.06918334960938 145.33477783203125 95.52281188964844 144.40447998046875 95.478271484375 C144.40447998046875 95.478271484375 144.1386260986328 94.44429016113281 143.64480590820312 93.17119598388672 C143.15098571777344 91.89810943603516 142.42919921875 90.38591766357422 141.51731872558594 89.42950439453125 C140.60569763183594 88.47334289550781 139.705078125 87.35040283203125 139.03237915039062 86.46649169921875 C138.35968017578125 85.58259582519531 137.9148712158203 84.93772888183594 137.9148712158203 84.93772888183594 C137.9148712158203 84.93772888183594 138.54855346679688 85.83219146728516 139.38340759277344 87.16151428222656 C139.8008270263672 87.826171875 140.26853942871094 88.59954833984375 140.7324676513672 89.4241943359375 C141.1964111328125 90.24883270263672 141.65655517578125 91.12474060058594 142.0588836669922 91.99445343017578 C142.863525390625 93.73388671875 143.43679809570312 95.44857788085938 143.34617614746094 96.67890930175781 C143.34617614746094 96.67890930175781 144.7193603515625 97.65734100341797 147.74374389648438 96.10086822509766 L146.76377868652344 95.06918334960938"></path>
<path fill="#EAB465" fill-opacity="1.0"  filling="0" d="M149.5270538330078 94.37541961669922 C149.5270538330078 94.37541961669922 150.2975616455078 95.36278533935547 151.41384887695312 96.74186706542969 C151.97198486328125 97.43141174316406 152.6165771484375 98.21887969970703 153.29454040527344 99.02982330322266 C153.9724884033203 99.84076690673828 154.6837921142578 100.67518615722656 155.3753662109375 101.4586181640625 C156.75852966308594 103.0254898071289 158.06275939941406 104.38843536376953 158.8633575439453 104.9518051147461 C160.06427001953125 105.79685974121094 161.66810607910156 106.15245056152344 163.19827270507812 106.26905059814453 C164.72845458984375 106.38565826416016 166.18496704101562 106.26329040527344 167.09120178222656 106.1524429321289 C167.09120178222656 106.1524429321289 164.11135864257812 107.26451110839844 162.6439666748047 107.44217681884766 C161.9102783203125 107.531005859375 161.0750732421875 107.45779418945312 160.0458984375 107.02649688720703 C159.01670837402344 106.59519958496094 157.79354858398438 105.80581665039062 156.28390502929688 104.46233367919922 C155.78070068359375 104.0145034790039 155.20802307128906 103.45404815673828 154.60302734375 102.83094787597656 C153.99801635742188 102.20785522460938 153.36068725585938 101.52210998535156 152.72816467285156 100.8237075805664 C152.09564208984375 100.12530517578125 151.46791076660156 99.41423034667969 150.88211059570312 98.740478515625 C150.29632568359375 98.06673431396484 149.75247192382812 97.4302978515625 149.2876739501953 96.88117218017578 C148.35809326171875 95.78291320800781 147.74476623535156 95.03385925292969 147.74476623535156 95.03385925292969 L149.5270538330078 94.37541961669922"></path>
<path fill="#EAB465" fill-opacity="1.0"  filling="0" d="M120.45874786376953 80.97944641113281 C120.45874786376953 80.97944641113281 119.191162109375 80.82379913330078 117.63174438476562 80.5653076171875 C116.07231903076172 80.30680847167969 114.22105407714844 79.94546508789062 113.05369567871094 79.53407287597656 C112.27545928955078 79.25981140136719 111.27728271484375 78.5481948852539 110.2255630493164 77.63643646240234 C109.17383575439453 76.72467803955078 108.06855773925781 75.61278533935547 107.07611083984375 74.5379867553711 C106.08366394042969 73.46318054199219 105.20405578613281 72.42547607421875 104.60364532470703 71.66207885742188 C104.60364532470703 71.66207885742188 105.58770751953125 73.16864013671875 106.7607650756836 74.8503646850586 C107.3472900390625 75.69122314453125 107.98107147216797 76.57588195800781 108.56271362304688 77.33790588378906 C109.14434814453125 78.09992980957031 109.67385864257812 78.73932647705078 110.05184173583984 79.08966064453125 C110.80780792236328 79.79007720947266 111.61395263671875 80.41267395019531 112.41734313964844 80.88800048828125 C113.22073364257812 81.36332702636719 114.02137756347656 81.69139099121094 114.7663345336914 81.80274963378906 C115.51129150390625 81.91385650634766 116.93452453613281 82.16960144042969 118.17152404785156 82.39756774902344 C119.40851593017578 82.62553405761719 120.45926666259766 82.82572937011719 120.45926666259766 82.82572937011719 C120.45926666259766 82.82572937011719 120.32511901855469 81.75820922851562 120.45874786376953 80.97944641113281"></path>
<path fill="#84413A" fill-opacity="1.0"  filling="0" d="M125.67398071289062 53.79071807861328 C125.67398071289062 53.79071807861328 125.77311706542969 54.32470703125 126.03107452392578 55.19514465332031 C126.28903198242188 56.065582275390625 126.70581817626953 57.27247619628906 127.34111785888672 58.61830139160156 C127.65876770019531 59.29121398925781 128.03103637695312 59.99885559082031 128.4654083251953 60.7165412902832 C128.89976501464844 61.434226989746094 129.39622497558594 62.16195297241211 129.9622344970703 62.875030517578125 C130.52822875976562 63.588104248046875 131.16378784179688 64.28652954101562 131.87635803222656 64.94561767578125 C132.58892822265625 65.60469818115234 133.37850952148438 66.22444152832031 134.25254821777344 66.7801513671875 C134.25254821777344 66.7801513671875 134.33139038085938 68.28645324707031 132.85630798339844 69.03807067871094 C132.85630798339844 69.03807067871094 132.36814880371094 68.63298034667969 131.64572143554688 67.88838195800781 C130.9232940673828 67.14378356933594 129.96661376953125 66.0596694946289 129.02955627441406 64.70162963867188 C128.56103515625 64.0226058959961 128.097412109375 63.27509689331055 127.67044067382812 62.46730041503906 C127.24346923828125 61.659507751464844 126.85313415527344 60.79142379760742 126.53118896484375 59.871253967285156 C126.20924377441406 58.95108413696289 125.95567321777344 57.97882080078125 125.80223083496094 56.962669372558594 C125.6487808227539 55.946510314941406 125.59545135498047 54.8864631652832 125.67398071289062 53.79071807861328"></path>
<path fill="#990025" fill-opacity="1.0"  filling="0" d="M147.89990234375 96.45721435546875 L150.29043579101562 99.08121490478516 L152.68096923828125 101.70521545410156 L155.0714874267578 104.32921600341797 L155.0714874267578 106.63065338134766 L152.22512817382812 103.41478729248047 L149.37875366210938 100.19891357421875 L146.53236389160156 96.98303985595703 L147.89990234375 96.45721435546875"></path>
<path fill="#84413A" fill-opacity="1.0"  filling="0" d="M128.6446075439453 39.19769287109375 C128.6446075439453 39.19769287109375 127.99845886230469 40.30463409423828 128.06553649902344 40.841217041015625 L128.36965942382812 41.277435302734375 C128.36965942382812 41.277435302734375 127.72095489501953 41.69750213623047 126.65103149414062 42.16273498535156 C125.58110046386719 42.62797546386719 124.08995056152344 43.13838195800781 122.4050521850586 43.319061279296875 C121.56260681152344 43.409400939941406 120.67172241210938 43.41730880737305 119.76083374023438 43.295921325683594 C118.8499526977539 43.174537658691406 117.9190673828125 42.92385482788086 116.99661254882812 42.49701690673828 C116.99661254882812 42.49701690673828 117.93032836914062 42.555267333984375 119.29545593261719 42.4913330078125 C120.66058349609375 42.42738342285156 122.45710754394531 42.241249084472656 124.1827392578125 41.75245666503906 C125.04554748535156 41.50806427001953 125.89064025878906 41.18800735473633 126.65521240234375 40.76972961425781 C127.41979217529297 40.35145568847656 128.10385131835938 39.8349609375 128.6446075439453 39.19769287109375"></path>
<path fill="#380E2A" fill-opacity="1.0"  filling="0" d="M138.73919677734375 146.20364379882812 C138.73919677734375 146.20364379882812 137.3990478515625 145.59730529785156 135.90879821777344 144.79083251953125 C134.41856384277344 143.984375 132.7782440185547 142.977783203125 132.17791748046875 142.17727661132812 C130.97727966308594 140.5762481689453 131.03871154785156 138.2645721435547 131.03871154785156 138.2645721435547 C131.03871154785156 138.2645721435547 130.81202697753906 139.18719482421875 130.74655151367188 140.31552124023438 C130.68109130859375 141.44384765625 130.77684020996094 142.77786254882812 131.4217071533203 143.60064697265625 C132.06655883789062 144.42343139648438 133.5554656982422 145.63226318359375 134.88314819335938 146.63539123535156 C136.2108154296875 147.63853454589844 137.37728881835938 148.43597412109375 137.37728881835938 148.43597412109375 L138.73919677734375 146.20364379882812"></path>
<path fill="#EAB465" fill-opacity="1.0"  filling="0" d="M156.90599060058594 150.39385986328125 L153.670654296875 152.69529724121094 C153.670654296875 152.69529724121094 154.3461151123047 152.9976043701172 155.41714477539062 153.46356201171875 C156.48818969726562 153.9295196533203 157.95480346679688 154.55914306640625 159.5371551513672 155.21377563476562 C160.3283233642578 155.5410919189453 161.14842224121094 155.87466430664062 161.96246337890625 156.1971435546875 C162.7764892578125 156.51962280273438 163.58447265625 156.83102416992188 164.35142517089844 157.114013671875 C165.88531494140625 157.6800079345703 167.25503540039062 158.13235473632812 168.1807403564453 158.33242797851562 C168.1807403564453 158.33242797851562 167.02236938476562 157.76768493652344 165.44271850585938 156.97564697265625 C164.65289306640625 156.57962036132812 163.75775146484375 156.12677001953125 162.8494110107422 155.65927124023438 C161.94107055664062 155.1917724609375 161.01956176757812 154.70962524414062 160.177001953125 154.2550048828125 C158.4918670654297 153.34576416015625 157.12255859375 152.54666137695312 156.80613708496094 152.19508361816406 C155.8568878173828 151.14036560058594 156.90599060058594 150.39385986328125 156.90599060058594 150.39385986328125"></path>
<path fill="#EAB465" fill-opacity="1.0"  filling="0" d="M127.32518768310547 155.35462951660156 C127.32518768310547 155.35462951660156 129.86061096191406 156.52044677734375 131.6398162841797 156.56192016601562 C131.6398162841797 156.56192016601562 131.1509552001953 157.2617645263672 130.39381408691406 158.3370819091797 C129.6366729736328 159.4123992919922 128.61123657226562 160.8632049560547 127.53811645507812 162.36512756347656 C127.00155639648438 163.1160888671875 126.45307159423828 163.87982177734375 125.92023468017578 164.6157989501953 C125.38739776611328 165.35177612304688 124.87020874023438 166.05999755859375 124.39624786376953 166.69989013671875 C123.44831848144531 167.9796905517578 122.67327880859375 168.98623657226562 122.29170989990234 169.39520263671875 C121.52857208251953 170.213134765625 120.32704162597656 170.71463012695312 119.3162841796875 171.01165771484375 C118.3055419921875 171.3086700439453 117.4855728149414 171.40121459960938 117.4855728149414 171.40121459960938 C117.4855728149414 171.40121459960938 121.00505065917969 170.3792724609375 121.53497314453125 168.75213623046875 C121.71161651611328 168.20974731445312 122.5106201171875 166.7127685546875 123.49745178222656 164.95787048339844 C123.9908676147461 164.08041381835938 124.53124237060547 163.1384735107422 125.06425476074219 162.21913146972656 C125.5972671508789 161.29978942871094 126.1229248046875 160.40304565429688 126.58689880371094 159.61599731445312 C127.51484680175781 158.04188537597656 128.1960906982422 156.906494140625 128.1960906982422 156.906494140625 L127.32518768310547 155.35462951660156"></path></svg>