<svg xmlns="http://www.w3.org/2000/svg" viewBox="0.0 0.0 256.0 256.0" height="256.0px" width="256.0px"><path fill="#CFCDAF" fill-opacity="1.0"  filling="0" d="M109.68699645996094 186.21099853515625 C109.49700164794922 186.28399658203125 109.53700256347656 185.86199951171875 109.73799896240234 185.89100646972656 C109.94000244140625 185.9199981689453 110.02400207519531 186.16000366210938 110.06700134277344 186.35899353027344 C110.34300231933594 187.64500427246094 110.62000274658203 188.9320068359375 110.89600372314453 190.218994140625 C111.10399627685547 191.18499755859375 111.42400360107422 192.29299926757812 112.33799743652344 192.67100524902344 C113.22000122070312 193.03599548339844 114.26599884033203 192.48199462890625 114.7750015258789 191.6750030517578 C115.28399658203125 190.8679962158203 115.38999938964844 189.8800048828125 115.48200225830078 188.92999267578125 C115.625 187.45899963378906 115.76799774169922 185.98699951171875 115.91100311279297 184.51600646972656 C115.99299621582031 183.67300415039062 116.072998046875 182.80299377441406 115.8219985961914 181.9929962158203 C115.57099914550781 181.1840057373047 114.90299987792969 180.44200134277344 114.05799865722656 180.37600708007812 C113.08000183105469 180.2989959716797 112.25599670410156 181.11700439453125 111.78299713134766 181.9759979248047 C111.08200073242188 183.2480010986328 110.822998046875 184.7570037841797 111.05899810791016 186.18899536132812 L109.68699645996094 186.21099853515625"></path>
<path fill="#CFCDAF" fill-opacity="1.0"  filling="0" d="M141.3730010986328 195.1439971923828 C142.3509979248047 195.60299682617188 143.36300659179688 196.07200622558594 144.44200134277344 196.10699462890625 C145.52099609375 196.14199829101562 146.69500732421875 195.6300048828125 147.10000610351562 194.6280059814453 C147.2989959716797 194.13400268554688 147.29299926757812 193.58399963378906 147.28399658203125 193.05099487304688 C147.26699829101562 192.1300048828125 147.25100708007812 191.20899963378906 147.23500061035156 190.28799438476562 C147.218994140625 189.36599731445312 147.2030029296875 188.44500732421875 147.18600463867188 187.5240020751953 C147.15899658203125 185.97000122070312 147.0749969482422 184.26499938964844 146.0260009765625 183.11700439453125 C144.7530059814453 181.7239990234375 143.83399963378906 181.68800354003906 143.1699981689453 182.4409942626953 C142.5050048828125 183.1929931640625 142.09500122070312 184.73500061035156 141.83999633789062 186.49600219726562 C141.71249389648438 187.37649536132812 141.62374877929688 188.31175231933594 141.56124877929688 189.23074340820312 C141.49874877929688 190.14974975585938 141.46249389648438 191.052490234375 141.44000244140625 191.8679962158203 C141.39599609375 193.49899291992188 141.40699768066406 194.781005859375 141.3730010986328 195.1439971923828"></path>
<path fill="#B0B3D5" fill-opacity="1.0"  filling="0" d="M116.4530029296875 189.9429931640625 C116.39199829101562 191.39100646972656 116.3499984741211 192.8419952392578 116.2979965209961 194.29299926757812 C116.24700164794922 195.7429962158203 116.18599700927734 197.1929931640625 116.08999633789062 198.63900756835938 C116.00700378417969 199.8939971923828 116.08599853515625 201.13499450683594 116.15299987792969 202.3780059814453 C116.22100067138672 203.6199951171875 116.2770004272461 204.86399841308594 116.14800262451172 206.12399291992188 C116.0989990234375 206.61000061035156 116.00800323486328 207.13400268554688 115.65499877929688 207.47300720214844 C115.43499755859375 207.6840057373047 115.13999938964844 207.79600524902344 114.85399627685547 207.90199279785156 C114.14099884033203 208.16600036621094 113.18499755859375 208.45599365234375 112.22000122070312 208.61300659179688 C111.25599670410156 208.77000427246094 110.28299713134766 208.79400634765625 109.53600311279297 208.5290069580078 C108.94499969482422 208.31900024414062 108.43399810791016 207.93800354003906 107.93199920654297 207.56199645996094 C106.27300262451172 206.3179931640625 106.01399993896484 205.06199645996094 106.33999633789062 203.73300170898438 C106.66699981689453 202.40499877929688 107.58000183105469 201.00399780273438 108.26699829101562 199.4720001220703 C108.62100219726562 198.6820068359375 108.79199981689453 197.52699279785156 108.92500305175781 196.2779998779297 C109.05699920654297 195.0290069580078 109.1510009765625 193.68499755859375 109.35099792480469 192.51800537109375 C109.5510025024414 191.35000610351562 109.85800170898438 190.35800170898438 110.41500091552734 189.81300354003906 C110.88700103759766 189.3520050048828 112.41400146484375 188.9810028076172 113.81300354003906 188.92799377441406 C115.21299743652344 188.87399291992188 116.48600006103516 189.13699340820312 116.4530029296875 189.9429931640625"></path>
<path fill="#5A3E4F" fill-opacity="1.0"  filling="0" d="M108.12200164794922 208.55599975585938 C108.61900329589844 209.63299560546875 108.49500274658203 210.8820037841797 108.36199951171875 212.06199645996094 C108.26000213623047 212.95899963378906 107.81700134277344 214.13800048828125 106.92400360107422 213.99600219726562 C106.125 213.8679962158203 104.75199890136719 214.4770050048828 104.44499969482422 213.61300659179688 C104.29399871826172 213.18899536132812 104.36199951171875 212.7239990234375 104.37000274658203 212.2740020751953 C104.3949966430664 210.86599731445312 103.8270034790039 209.39999389648438 104.34100341796875 208.08900451660156 C105.04900360107422 206.29299926757812 107.51200103759766 207.23399353027344 108.12200164794922 208.55599975585938"></path>
<path fill="#5A3E4F" fill-opacity="1.0"  filling="0" d="M116.1969985961914 210.8560028076172 C116.16300201416016 210.49899291992188 116.10900115966797 210.1790008544922 116.04299926757812 209.927001953125 C115.5530014038086 208.05099487304688 113.03299713134766 208.2899932861328 112.25 209.7030029296875 C111.66400146484375 210.76199340820312 111.60800170898438 212.5229949951172 111.99299621582031 213.65699768066406 C112.47000122070312 215.06300354003906 114.01300048828125 215.85000610351562 115.2760009765625 214.86300659179688 C116.1729965209961 214.16299438476562 116.33000183105469 212.23399353027344 116.1969985961914 210.8560028076172"></path>
<path fill="#5A3E4F" fill-opacity="1.0"  filling="0" d="M142.83700561523438 209.2449951171875 C141.97999572753906 208.92599487304688 141.01499938964844 209.03700256347656 140.20199584960938 209.447998046875 C139.38900756835938 209.85899353027344 138.7270050048828 210.57000732421875 138.47500610351562 211.44900512695312 C138.22300720214844 212.3280029296875 138.4080047607422 213.281005859375 138.88099670410156 214.06100463867188 C139.35299682617188 214.83999633789062 140.11199951171875 215.44500732421875 141.00799560546875 215.6280059814453 C141.9040069580078 215.81199645996094 142.83999633789062 215.5540008544922 143.58099365234375 215.0229949951172 C144.32200622558594 214.49200439453125 144.86700439453125 213.68800354003906 144.97999572753906 212.781005859375 C145.13999938964844 211.50999450683594 144.3179931640625 210.05599975585938 143.04299926757812 209.93499755859375 L142.83700561523438 209.2449951171875"></path>
<path fill="#5A3E4F" fill-opacity="1.0"  filling="0" d="M155.4969940185547 209.9759979248047 C154.72799682617188 209.36199951171875 153.67300415039062 209.26800537109375 152.74099731445312 209.56399536132812 C151.80999755859375 209.85899353027344 151.0030059814453 210.54400634765625 150.7270050048828 211.48899841308594 C150.45199584960938 212.4340057373047 150.76600646972656 213.4459991455078 151.39300537109375 214.19500732421875 C152.02000427246094 214.94400024414062 152.96099853515625 215.43099975585938 153.94000244140625 215.3260040283203 C154.91799926757812 215.2220001220703 155.73500061035156 214.5469970703125 156.18899536132812 213.6820068359375 C156.6439971923828 212.81700134277344 156.73699951171875 211.76199340820312 156.26800537109375 210.89700317382812 C155.83999633789062 210.10699462890625 154.78700256347656 209.51800537109375 154.04600524902344 210.0260009765625 L155.4969940185547 209.9759979248047"></path>
<path fill="#B0B3D5" fill-opacity="1.0"  filling="0" d="M148.08200073242188 190.1060028076172 C148.5019989013672 190.97000122070312 148.5679931640625 191.92300415039062 148.58299255371094 192.8939971923828 C148.59800720214844 193.86500549316406 148.56100463867188 194.85400390625 148.7740020751953 195.79100036621094 C149.1230010986328 197.3179931640625 150.072998046875 198.53199768066406 151.2969970703125 199.51499938964844 C152.52200317382812 200.4969940185547 154.02099609375 201.2480010986328 155.4669952392578 201.8489990234375 C156.5679931640625 202.30599975585938 157.71400451660156 202.74899291992188 158.57699584960938 203.57200622558594 C159.87399291992188 204.8090057373047 159.98800659179688 206.5590057373047 158.8090057373047 207.85400390625 C158.08299255371094 208.65199279785156 157.156005859375 209.0540008544922 156.15899658203125 209.25399780273438 C155.16200256347656 209.45399475097656 154.0959930419922 209.4510040283203 153.09100341796875 209.43899536132812 C151.93600463867188 209.42599487304688 150.78199768066406 209.41200256347656 149.6269989013672 209.3979949951172 C148.47300720214844 209.38400268554688 147.3179931640625 209.37100219726562 146.16400146484375 209.35699462890625 C145.39599609375 209.34800720214844 144.20199584960938 209.48800659179688 143.03599548339844 209.53500366210938 C141.8699951171875 209.58099365234375 140.7310028076172 209.53399658203125 140.072998046875 209.1490020751953 C138.77099609375 208.38800048828125 138.3300018310547 206.6909942626953 138.29299926757812 204.9040069580078 C138.2550048828125 203.11700439453125 138.62100219726562 201.23899841308594 138.93099975585938 200.1179962158203 C139.2530059814453 198.95599365234375 139.53900146484375 197.84800720214844 139.7830047607422 196.75799560546875 C140.0279998779297 195.66700744628906 140.2310028076172 194.593994140625 140.38600158691406 193.5 C140.54100036621094 192.406005859375 140.6479949951172 191.29100036621094 140.7010040283203 190.1179962158203 C141.0850067138672 190.09300231933594 142.8699951171875 189.9669952392578 144.58900451660156 189.9080047607422 C146.3090057373047 189.85000610351562 147.96299743652344 189.85899353027344 148.08200073242188 190.1060028076172"></path>
<path fill="#FFFFFF" fill-opacity="1.0"  filling="0" d="M147.19000244140625 198.343994140625 C147.10000610351562 198.343994140625 147.0229949951172 198.27499389648438 147.01400756835938 198.18299865722656 C146.9040069580078 196.94200134277344 146.95199584960938 195.69200134277344 147.15499877929688 194.46600341796875 C146.7259979248047 194.53700256347656 146.26600646972656 194.46299743652344 145.8459930419922 194.25100708007812 C145.31500244140625 193.9810028076172 144.92300415039062 193.52699279785156 144.77200317382812 193.0030059814453 C144.73399353027344 192.8730010986328 144.69400024414062 192.67799377441406 144.78900146484375 192.5019989013672 C144.8509979248047 192.38699340820312 144.95199584960938 192.30799865722656 145.07899475097656 192.2729949951172 C145.3800048828125 192.18899536132812 145.7239990234375 192.3769989013672 145.8209991455078 192.43699645996094 C146.35699462890625 192.76100158691406 146.86399841308594 193.13299560546875 147.3350067138672 193.54600524902344 C147.48899841308594 192.99600219726562 147.7449951171875 192.4770050048828 148.08900451660156 192.0189971923828 C148.32699584960938 191.6999969482422 148.76100158691406 191.3679962158203 149.1909942626953 191.3459930419922 C149.42100524902344 191.33399963378906 149.6230010986328 191.41400146484375 149.7740020751953 191.5780029296875 C150.18600463867188 192.0229949951172 149.8800048828125 192.7010040283203 149.4929962158203 193.14700317382812 C149.08099365234375 193.6219940185547 148.62100219726562 194.05999755859375 148.125 194.44900512695312 C148.2169952392578 194.55299377441406 148.2949981689453 194.6719970703125 148.35800170898438 194.79100036621094 C148.8159942626953 195.65899658203125 149.11900329589844 196.59300231933594 149.25799560546875 197.56500244140625 C149.27200317382812 197.66099548339844 149.20599365234375 197.75 149.11099243164062 197.76499938964844 C149.0189971923828 197.781005859375 148.9250030517578 197.71600341796875 148.90899658203125 197.62100219726562 C148.7169952392578 196.50900268554688 148.218994140625 195.4340057373047 147.4980010986328 194.56300354003906 C147.30499267578125 195.7469940185547 147.26100158691406 196.95399475097656 147.3679962158203 198.15199279785156 C147.37600708007812 198.24899291992188 147.30499267578125 198.3350067138672 147.20700073242188 198.343994140625 M145.23899841308594 192.6060028076172 C145.21499633789062 192.6060028076172 145.19200134277344 192.60899353027344 145.1719970703125 192.61399841308594 C145.0760040283203 192.71600341796875 145.0800018310547 192.79200744628906 145.11199951171875 192.9040069580078 C145.23599243164062 193.33399963378906 145.56199645996094 193.7100067138672 146.00599670410156 193.9340057373047 C146.3979949951172 194.1320037841797 146.82899475097656 194.18800354003906 147.21600341796875 194.0919952392578 C146.7480010986328 193.48699951171875 146.2100067138672 193.0850067138672 145.63800048828125 192.73899841308594 C145.50100708007812 192.656005859375 145.34800720214844 192.6060028076172 145.23899841308594 192.6060028076172 M147.6300048828125 193.81399536132812 C147.74000549316406 193.91799926757812 147.84800720214844 194.0240020751953 147.95399475097656 194.1320037841797 C148.41400146484375 193.76600646972656 148.84100341796875 193.35800170898438 149.22500610351562 192.9149932861328 C149.4600067138672 192.64500427246094 149.78500366210938 192.11000061035156 149.51400756835938 191.8179931640625 C149.4340057373047 191.73199462890625 149.3300018310547 191.68699645996094 149.20899963378906 191.69900512695312 C148.94400024414062 191.71299743652344 148.5919952392578 191.93600463867188 148.37100219726562 192.22999572753906 C148.01800537109375 192.70199584960938 147.76600646972656 193.2429962158203 147.6300048828125 193.81399536132812"></path>
<path fill="#FFFFFF" fill-opacity="1.0"  filling="0" d="M111.75499725341797 198.18699645996094 C111.74500274658203 198.18699645996094 111.73400115966797 198.18600463867188 111.7239990234375 198.1840057373047 C111.62799835205078 198.16700744628906 111.56400299072266 198.0749969482422 111.58100128173828 197.97900390625 C111.7979965209961 196.75399780273438 112.16999816894531 195.55999755859375 112.68699645996094 194.42799377441406 C112.25599670410156 194.38400268554688 111.83000183105469 194.1929931640625 111.48100280761719 193.8780059814453 C111.03800201416016 193.47999572753906 110.77899932861328 192.93800354003906 110.76899719238281 192.39300537109375 C110.76699829101562 192.25599670410156 110.77999877929688 192.0590057373047 110.91699981689453 191.91400146484375 C111.00599670410156 191.81900024414062 111.1240005493164 191.7689971923828 111.25700378417969 191.7689971923828 C111.57099914550781 191.7689971923828 111.85199737548828 192.03799438476562 111.93099975585938 192.1199951171875 C112.36299896240234 192.57400512695312 112.75499725341797 193.06500244140625 113.10199737548828 193.58599853515625 C113.39399719238281 193.0959930419922 113.7770004272461 192.66200256347656 114.22799682617188 192.3090057373047 C114.54199981689453 192.06399536132812 115.0479965209961 191.8560028076172 115.46800231933594 191.947998046875 C115.69300079345703 191.9969940185547 115.86699676513672 192.1269989013672 115.97000122070312 192.32400512695312 C116.2509994506836 192.86199951171875 115.77899932861328 193.43699645996094 115.28900146484375 193.76600646972656 C114.76599884033203 194.11700439453125 114.20800018310547 194.41900634765625 113.62799835205078 194.6649932861328 C113.68900299072266 194.78900146484375 113.73400115966797 194.9250030517578 113.76399993896484 195.05599975585938 C113.97899627685547 196.01400756835938 114.0270004272461 196.9949951171875 113.90799713134766 197.968994140625 C113.89600372314453 198.06500244140625 113.80599975585938 198.13400268554688 113.71299743652344 198.12399291992188 C113.61599731445312 198.11300659179688 113.5459976196289 198.02699279785156 113.55500030517578 197.93099975585938 C113.66000366210938 196.80799865722656 113.46099853515625 195.63999938964844 112.99299621582031 194.61099243164062 C112.49700164794922 195.7050018310547 112.13899993896484 196.85800170898438 111.92900085449219 198.04100036621094 C111.91400146484375 198.12600708007812 111.83899688720703 198.18699645996094 111.75499725341797 198.18699645996094 M113.31700134277344 193.92300415039062 C113.39600372314453 194.052001953125 113.47200012207031 194.18299865722656 113.54499816894531 194.31500244140625 C114.08499908447266 194.08200073242188 114.60399627685547 193.7989959716797 115.09100341796875 193.4720001220703 C115.38800048828125 193.27200317382812 115.84100341796875 192.84100341796875 115.65599822998047 192.48800659179688 C115.60199737548828 192.38400268554688 115.51599884033203 192.3209991455078 115.39299774169922 192.29400634765625 C115.13500213623047 192.24000549316406 114.73600006103516 192.36199951171875 114.44599914550781 192.58799743652344 C113.98200225830078 192.9510040283203 113.59700012207031 193.40699768066406 113.31700134277344 193.92300415039062 M111.25800323486328 192.1230010986328 C111.22200012207031 192.1230010986328 111.1969985961914 192.13299560546875 111.17400360107422 192.15699768066406 C111.13800048828125 192.19500732421875 111.12100219726562 192.27000427246094 111.12300109863281 192.38699340820312 C111.13099670410156 192.83399963378906 111.3479995727539 193.28199768066406 111.71800231933594 193.61500549316406 C112.04399871826172 193.90899658203125 112.4469985961914 194.0749969482422 112.84300231933594 194.08299255371094 C112.55000305175781 193.3769989013672 112.13600158691406 192.8489990234375 111.67400360107422 192.36500549316406 C111.53800201416016 192.2220001220703 111.36699676513672 192.1230010986328 111.25800323486328 192.1230010986328"></path>
<path fill="#DDC59E" fill-opacity="1.0"  filling="0" d="M138.2519989013672 48.55000305175781 C138.03599548339844 47.34700012207031 137.9250030517578 46.06500244140625 138.06300354003906 44.8489990234375 C138.2010040283203 43.63200378417969 138.58799743652344 42.48199462890625 139.3699951171875 41.54199981689453 C140.06900024414062 40.7030029296875 141.0189971923828 40.115997314453125 141.97300720214844 39.584999084472656 C143.26100158691406 38.86799621582031 144.7220001220703 38.22999572753906 146.17599487304688 37.962005615234375 C147.6300048828125 37.694000244140625 149.0760040283203 37.79600524902344 150.33700561523438 38.561004638671875 C151.17599487304688 39.069000244140625 151.81199645996094 39.80799865722656 152.30999755859375 40.65399932861328 C152.8070068359375 41.500999450683594 153.16600036621094 42.45500183105469 153.44700622558594 43.39399719238281 C153.86000061035156 44.76800537109375 154.16000366210938 46.175994873046875 154.34800720214844 47.5989990234375 C154.53500366210938 49.02099609375 154.61000061035156 50.45899963378906 154.5709991455078 51.89300537109375 C154.53199768066406 53.3280029296875 154.3800048828125 54.759002685546875 154.11199951171875 56.16899871826172 C153.9720001220703 56.91099548339844 153.79800415039062 57.65299987792969 153.4949951171875 58.34600067138672 C153.10699462890625 59.23500061035156 152.5 60.022003173828125 151.75399780273438 60.64099884033203 C151.00799560546875 61.25999450683594 150.1219940185547 61.71099853515625 149.17599487304688 61.927001953125 C148.2310028076172 62.14399719238281 147.23699951171875 62.124000549316406 146.29600524902344 61.891998291015625 C145.35400390625 61.660003662109375 144.46499633789062 61.21600341796875 143.72900390625 60.58399963378906 C142.66099548339844 59.66899871826172 141.7760009765625 58.46900177001953 141.04400634765625 57.12799835205078 C140.31199645996094 55.787994384765625 139.73300170898438 54.30699920654297 139.27699279785156 52.82899475097656 C138.82200622558594 51.35099792480469 138.49000549316406 49.87699890136719 138.2519989013672 48.55000305175781"></path>
<path fill="#DDC59E" fill-opacity="1.0"  filling="0" d="M130.23899841308594 62.55699920654297 C131.08099365234375 62.266998291015625 131.95799255371094 62.173004150390625 132.84500122070312 62.177001953125 C133.7310028076172 62.180999755859375 134.6269989013672 62.28399658203125 135.5070037841797 62.388999938964844 C136.9969940185547 62.56500244140625 138.48599243164062 62.74200439453125 139.97500610351562 62.917999267578125 C141.46400451660156 63.095001220703125 142.9530029296875 63.27099609375 144.44200134277344 63.447998046875 C145.93099975585938 63.624000549316406 147.42100524902344 63.800994873046875 148.91000366210938 63.97700500488281 C150.3990020751953 64.15399932861328 151.88800048828125 64.33000183105469 153.3769989013672 64.50700378417969 C154.35000610351562 64.62200164794922 155.36399841308594 64.75299835205078 156.18299865722656 65.3239974975586 C157.18899536132812 66.02400207519531 157.66299438476562 67.30500030517578 157.7969970703125 68.89299774169922 C157.86399841308594 69.6865005493164 157.84625244140625 70.55699920654297 157.7676239013672 71.47012329101562 C157.68899536132812 72.38325500488281 157.54949951171875 73.33900451660156 157.3730010986328 74.3030014038086 C157.1959991455078 75.26750183105469 156.98199462890625 76.24024963378906 156.7550048828125 77.1873779296875 C156.5279998779297 78.1344985961914 156.28799438476562 79.05599975585938 156.0590057373047 79.91799926757812 C155.6009979248047 81.64199829101562 155.18600463867188 83.1259994506836 155.00599670410156 84.0989990234375 C154.74200439453125 85.5270004272461 154.46400451660156 86.9520034790039 154.1719970703125 88.3740005493164 C153.88099670410156 89.7959976196289 153.5749969482422 91.21499633789062 153.25599670410156 92.62999725341797 C152.93699645996094 94.0459976196289 152.60400390625 95.45700073242188 152.25799560546875 96.86499786376953 C151.91099548339844 98.27300262451172 151.55099487304688 99.6780014038086 151.177001953125 101.0780029296875 C150.8040008544922 102.47799682617188 150.41600036621094 103.8740005493164 150.01499938964844 105.26599884033203 C149.61500549316406 106.65799713134766 149.1999969482422 108.04499816894531 148.7729949951172 109.4280014038086 C148.593994140625 110.00499725341797 148.4029998779297 110.5999984741211 148.01600646972656 111.05000305175781 C147.593994140625 111.54000091552734 146.98899841308594 111.79900360107422 146.39999389648438 112.0270004272461 C145.35400390625 112.43299865722656 144.28700256347656 112.79299926757812 143.2050018310547 113.08699798583984 C142.12399291992188 113.37999725341797 141.0279998779297 113.60800170898438 139.9239959716797 113.7490005493164 C138.82000732421875 113.88899993896484 137.70799255371094 113.94400024414062 136.59500122070312 113.89099884033203 C135.7239990234375 113.85099792480469 134.4709930419922 113.65499877929688 133.0709991455078 113.31199645996094 C131.67100524902344 112.96900177001953 130.125 112.47899627685547 128.66799926757812 111.84700012207031 C127.21099853515625 111.21600341796875 125.84300231933594 110.44400024414062 124.80000305175781 109.53700256347656 C123.75700378417969 108.63099670410156 123.03900146484375 107.59100341796875 122.88099670410156 106.42400360107422 C122.75700378417969 105.51000213623047 123.03500366210938 104.31199645996094 123.49400329589844 103.0250015258789 C123.9540023803711 101.73799896240234 124.59500122070312 100.36199951171875 125.1989974975586 99.09200286865234 C125.8030014038086 97.82099914550781 126.36799621582031 96.65499877929688 126.6760025024414 95.78900146484375 C127.1510009765625 94.4540023803711 127.55899810791016 93.09200286865234 127.89900207519531 91.71199798583984 C128.24000549316406 90.33200073242188 128.51300048828125 88.93299865722656 128.718994140625 87.52200317382812 C128.9239959716797 86.11199951171875 129.06100463867188 84.69100189208984 129.1300048828125 83.26599884033203 C129.197998046875 81.84100341796875 129.197998046875 80.41200256347656 129.1280059814453 78.98699951171875 C129.05799865722656 77.56199645996094 128.91799926757812 76.14099884033203 128.70899963378906 74.73200225830078 C128.47799682617188 73.18299865722656 127.8499984741211 72.28600311279297 127.33799743652344 71.33799743652344 C126.82599639892578 70.38899993896484 126.43099975585938 69.38899993896484 126.66600036621094 67.63300323486328 C126.81500244140625 66.51899719238281 127.05000305175781 65.25 127.57599639892578 64.26000213623047 C128.1020050048828 63.26899719238281 128.92100524902344 62.55699920654297 130.23699951171875 62.55699920654297"></path>
<path fill="#E4F4E9" fill-opacity="1.0"  filling="0" d="M129.40499877929688 80.69599914550781 C128.80799865722656 81.41899871826172 128.14999389648438 82.10700225830078 127.74500274658203 82.96700286865234 C127.21800231933594 84.08599853515625 127.02300262451172 85.31600189208984 126.89199829101562 86.56700134277344 C126.76000213623047 87.81900024414062 126.69200134277344 89.08999633789062 126.41799926757812 90.29100036621094 C126.22599792480469 91.13300323486328 126.08499908447266 92.0459976196289 126.1240005493164 92.91400146484375 C126.16300201416016 93.78099822998047 126.38099670410156 94.60399627685547 126.90899658203125 95.26499938964844 C127.60800170898438 96.13899993896484 128.69700622558594 96.5250015258789 129.73800659179688 96.83200073242188 C130.8300018310547 97.15399932861328 131.9320068359375 97.43199920654297 133.04100036621094 97.6780014038086 C134.14999389648438 97.92400360107422 135.26600646972656 98.13700103759766 136.38499450683594 98.3280029296875 C137.5050048828125 98.51899719238281 138.6280059814453 98.68900299072266 139.75100708007812 98.8479995727539 C141.06100463867188 99.03299713134766 142.38600158691406 99.2030029296875 143.70700073242188 99.25900268554688 C145.0279998779297 99.31600189208984 146.3459930419922 99.25800323486328 147.64300537109375 98.98899841308594 C149.39300537109375 98.625 150.74200439453125 98.00599670410156 151.77999877929688 97.15399932861328 C152.81900024414062 96.302001953125 153.5469970703125 95.21700286865234 154.0540008544922 93.9209976196289 C154.56100463867188 92.625 154.8470001220703 91.11900329589844 155.0019989013672 89.42400360107422 C155.12399291992188 88.09300231933594 155.24400329589844 86.76100158691406 155.36399841308594 85.42900085449219 C155.48300170898438 84.09700012207031 155.6020050048828 82.76499938964844 155.72000122070312 81.43299865722656 C155.83799743652344 80.10099792480469 155.95599365234375 78.76899719238281 156.07400512695312 77.43699645996094 C156.1909942626953 76.1050033569336 156.30799865722656 74.77300262451172 156.42599487304688 73.44100189208984 C156.54400634765625 72.10900115966797 156.66200256347656 70.7770004272461 156.77999877929688 69.44499969482422 C156.9149932861328 67.92900085449219 157.03399658203125 66.31800079345703 156.3820037841797 64.96099853515625 C155.72999572753906 63.60499572753906 153.9949951171875 62.720001220703125 152.8070068359375 63.57499694824219 C152.40499877929688 63.86399841308594 151.80499267578125 67.37300109863281 151.3939971923828 68.11900329589844 C150.97300720214844 68.88300323486328 150.4550018310547 69.62899780273438 149.86399841308594 70.30000305175781 C149.2729949951172 70.97200012207031 148.60899353027344 71.56900024414062 147.8939971923828 72.03600311279297 C146.18699645996094 73.1510009765625 144.71299743652344 73.31600189208984 143.4320068359375 72.75700378417969 C142.1510009765625 72.1989974975586 141.06300354003906 70.91600036621094 140.1280059814453 69.13400268554688 C139.65699768066406 68.23699951171875 139.18699645996094 67.33999633789062 138.71600341796875 66.44300079345703 C138.24600219726562 65.5459976196289 137.77499389648438 64.64900207519531 137.30499267578125 63.75199890136719 C136.72999572753906 62.65699768066406 135.80099487304688 61.59100341796875 134.73699951171875 61.08900451660156 C133.67300415039062 60.587005615234375 132.4759979248047 60.650001525878906 131.36599731445312 61.81500244140625 C130.4199981689453 62.80799865722656 131.26400756835938 64.45099639892578 131.8990020751953 65.69100189208984 C132.552001953125 66.96800231933594 132.93699645996094 68.28399658203125 133.09300231933594 69.60600280761719 C133.24899291992188 70.927001953125 133.177001953125 72.25399780273438 132.91600036621094 73.5510025024414 C132.65499877929688 74.8479995727539 132.2050018310547 76.11499786376953 131.60699462890625 77.31700134277344 C131.00799560546875 78.5199966430664 130.26100158691406 79.65799713134766 129.40499877929688 80.69599914550781"></path>
<path fill="#F9FFD5" fill-opacity="1.0"  filling="0" d="M133.54800415039062 95.51100158691406 C134.46200561523438 95.64700317382812 135.375 95.78199768066406 136.28799438476562 95.91799926757812 C137.2010040283203 96.0530014038086 138.11500549316406 96.18900299072266 139.0279998779297 96.3239974975586 C140.28799438476562 96.51100158691406 141.58399963378906 96.68900299072266 142.88499450683594 96.80500030517578 C144.18600463867188 96.9209976196289 145.49099731445312 96.9739990234375 146.76699829101562 96.91000366210938 C148.04200744628906 96.84500122070312 149.2899932861328 96.66400146484375 150.47500610351562 96.31099700927734 C151.66000366210938 95.95800018310547 152.78399658203125 95.43399810791016 153.81199645996094 94.68299865722656 C154.5970001220703 96.03600311279297 153.9709930419922 97.86399841308594 152.78199768066406 98.87999725341797 C151.59300231933594 99.8949966430664 149.9929962158203 100.26899719238281 148.44500732421875 100.49600219726562 C146.8209991455078 100.73500061035156 145.18899536132812 100.8479995727539 143.55499267578125 100.86599731445312 C141.9199981689453 100.88500213623047 140.2830047607422 100.80799865722656 138.64599609375 100.66799926757812 C137.00900268554688 100.5270004272461 135.3719940185547 100.322998046875 133.74000549316406 100.08599853515625 C132.10899353027344 99.8489990234375 130.4810028076172 99.5790023803711 128.86199951171875 99.30799865722656 C127.3239974975586 99.05000305175781 126.14700317382812 98.447998046875 125.55500030517578 97.53700256347656 C124.96199798583984 96.6259994506836 124.9530029296875 95.40599822998047 125.75 93.91200256347656 C127.04499816894531 94.21199798583984 128.33200073242188 94.51300048828125 129.6269989013672 94.78900146484375 C130.92100524902344 95.06500244140625 132.22300720214844 95.31400299072266 133.54800415039062 95.51100158691406"></path>
<path fill="#5F709E" fill-opacity="1.0"  filling="0" d="M134.875 128.9550018310547 C134.875 128.19700622558594 136.14599609375 128.86300659179688 136.3560028076172 129.59500122070312 C136.78599548339844 131.0989990234375 137.18899536132812 132.61000061035156 137.56399536132812 134.1269989013672 C137.94000244140625 135.6439971923828 138.28700256347656 137.16799926757812 138.60699462890625 138.6959991455078 C138.927001953125 140.22500610351562 139.218994140625 141.75900268554688 139.48399353027344 143.2969970703125 C139.7480010986328 144.83599853515625 139.98399353027344 146.3780059814453 140.1929931640625 147.9239959716797 C140.4010009765625 149.47000122070312 140.58200073242188 151.02000427246094 140.73399353027344 152.57200622558594 C140.88699340820312 154.12399291992188 141.01199340820312 155.67799377441406 141.10800170898438 157.23399353027344 C141.20399475097656 158.7899932861328 141.2729949951172 160.3470001220703 141.31300354003906 161.906005859375 C141.35299682617188 163.46400451660156 141.36500549316406 165.0229949951172 141.3489990234375 166.58099365234375 C141.33200073242188 168.13999938964844 141.28799438476562 169.697998046875 141.21499633789062 171.2550048828125 C141.14199829101562 172.81199645996094 141.0399932861328 174.3679962158203 140.91000366210938 175.9219970703125 C140.8159942626953 177.04600524902344 140.70899963378906 178.17999267578125 140.64100646972656 179.31199645996094 C140.57400512695312 180.44500732421875 140.5469970703125 181.5760040283203 140.61599731445312 182.69700622558594 C140.6840057373047 183.81700134277344 140.84800720214844 184.92599487304688 141.16099548339844 186.01400756835938 C142.28500366210938 186.17799377441406 143.4080047607422 186.3419952392578 144.53199768066406 186.50599670410156 C145.65499877929688 186.6699981689453 146.7790069580078 186.83399963378906 147.9029998779297 186.9969940185547 C148.14100646972656 185.43800354003906 148.3800048828125 183.8769989013672 148.61599731445312 182.31199645996094 C148.8520050048828 180.7480010986328 149.08599853515625 179.1820068359375 149.3159942626953 177.61300659179688 C149.5449981689453 176.0449981689453 149.77000427246094 174.4739990234375 149.98800659179688 172.9029998779297 C150.20700073242188 171.33099365234375 150.41799926757812 169.7570037841797 150.62100219726562 168.18299865722656 C150.822998046875 166.60899353027344 151.01699829101562 165.0330047607422 151.1999969482422 163.45700073242188 C151.3820037841797 161.88099670410156 151.5540008544922 160.3040008544922 151.71200561523438 158.7270050048828 C151.8699951171875 157.14999389648438 152.01499938964844 155.572998046875 152.1439971923828 153.99600219726562 C152.2729949951172 152.4199981689453 152.38699340820312 150.84300231933594 152.48300170898438 149.26699829101562 C152.57899475097656 147.6909942626953 152.6580047607422 146.11599731445312 152.71600341796875 144.54200744628906 C152.77499389648438 142.96800231933594 152.81300354003906 141.39500427246094 152.8300018310547 139.822998046875 C152.8459930419922 138.2519989013672 152.84100341796875 136.6820068359375 152.81100463867188 135.11399841308594 C152.781005859375 133.54600524902344 152.7259979248047 131.97999572753906 152.64599609375 130.41600036621094 C152.56500244140625 128.8520050048828 152.45799255371094 127.29100036621094 152.32200622558594 125.73300170898438 C152.18600463867188 124.17500305175781 152.02099609375 122.61900329589844 151.8249969482422 121.06700134277344 C151.6300048828125 119.51399993896484 151.4029998779297 117.96499633789062 151.1439971923828 116.41999816894531 C150.88400268554688 114.875 150.5919952392578 113.33300018310547 150.26400756835938 111.7959976196289 C149.93600463867188 110.25800323486328 149.57200622558594 108.7249984741211 149.1719970703125 107.19599914550781 C148.0970001220703 107.76499938964844 146.8509979248047 108.03199768066406 145.52999877929688 108.13999938964844 C144.20899963378906 108.24800109863281 142.81500244140625 108.19599914550781 141.44200134277344 108.1240005493164 C140.07000732421875 108.052001953125 138.7209930419922 107.95899963378906 137.49099731445312 107.98799896240234 C136.4290008544922 108.01200103759766 135.35000610351562 108.03399658203125 134.29100036621094 107.95500183105469 C133.2310028076172 107.8759994506836 132.1909942626953 107.6969985961914 131.2050018310547 107.32099914550781 C129.8159942626953 106.79000091552734 128.62100219726562 105.8949966430664 127.44599914550781 105.01200103759766 C126.74099731445312 104.48200225830078 126.03600311279297 103.9520034790039 125.33100128173828 103.4219970703125 C124.6259994506836 102.89199829101562 123.9209976196289 102.36199951171875 123.21600341796875 101.83200073242188 C122.8489990234375 103.18699645996094 122.48999786376953 104.55599975585938 122.1449966430664 105.93499755859375 C121.79900360107422 107.31400299072266 121.46600341796875 108.7030029296875 121.14900207519531 110.0989990234375 C120.83200073242188 111.49500274658203 120.53099822998047 112.89700317382812 120.2509994506836 114.302001953125 C119.97000122070312 115.70800018310547 119.70999908447266 117.11699676513672 119.4729995727539 118.5250015258789 C119.23600006103516 119.93399810791016 119.02200317382812 121.34200286865234 118.83699798583984 122.74700164794922 C118.6510009765625 124.1520004272461 118.49199676513672 125.55400085449219 118.36399841308594 126.947998046875 C118.22000122070312 128.52099609375 118.12799835205078 130.09800720214844 118.05999755859375 131.677001953125 C117.99299621582031 133.2550048828125 117.95099639892578 134.83599853515625 117.90899658203125 136.41700744628906 C117.86699676513672 137.9969940185547 117.8239974975586 139.57699584960938 117.75499725341797 141.1540069580078 C117.68599700927734 142.7310028076172 117.58999633789062 144.30599975585938 117.44200134277344 145.875 C117.29399871826172 147.44400024414062 117.09300231933594 149.0070037841797 116.81400299072266 150.56300354003906 C116.54100036621094 152.08900451660156 116.19300079345703 153.60699462890625 115.7969970703125 155.12100219726562 C115.4010009765625 156.63499450683594 114.95800018310547 158.14300537109375 114.49299621582031 159.6490020751953 C114.02799987792969 161.15499877929688 113.54299926757812 162.6580047607422 113.06300354003906 164.15899658203125 C112.58300018310547 165.66000366210938 112.10800170898438 167.16000366210938 111.66699981689453 168.66000366210938 C111.2249984741211 170.16000366210938 110.81600189208984 171.66000366210938 110.46600341796875 173.16299438476562 C110.11599731445312 174.6649932861328 109.82599639892578 176.16900634765625 109.62200164794922 177.677001953125 C109.41799926757812 179.18499755859375 109.30000305175781 180.6959991455078 109.29499816894531 182.21299743652344 C109.29000091552734 183.72999572753906 109.39700317382812 185.2519989013672 109.6449966430664 186.781005859375 C110.64299774169922 186.9980010986328 111.69499969482422 187.0709991455078 112.74700164794922 187.1439971923828 C113.7979965209961 187.21800231933594 114.8499984741211 187.29100036621094 115.8479995727539 187.50900268554688 C116.1719970703125 187.57899475097656 116.52200317382812 187.6479949951172 116.8270034790039 187.5229949951172 C117.29499816894531 187.33099365234375 117.4489974975586 186.78599548339844 117.5510025024414 186.31199645996094 C117.87699890136719 184.7949981689453 118.25599670410156 183.29200744628906 118.6780014038086 181.7989959716797 C119.0989990234375 180.30599975585938 119.56199645996094 178.82400512695312 120.05799865722656 177.3509979248047 C120.55400085449219 175.8780059814453 121.08200073242188 174.41299438476562 121.63200378417969 172.9550018310547 C122.18299865722656 171.49600219726562 122.75499725341797 170.0449981689453 123.34100341796875 168.5970001220703 C123.9260025024414 167.14999389648438 124.52300262451172 165.70599365234375 125.12300109863281 164.26499938964844 C125.7229995727539 162.82400512695312 126.32499694824219 161.38499450683594 126.91999816894531 159.9459991455078 C127.51499938964844 158.5070037841797 128.1020050048828 157.06700134277344 128.67100524902344 155.62600708007812 C129.24099731445312 154.1840057373047 129.79299926757812 152.74000549316406 130.3179931640625 151.29200744628906 C130.8419952392578 149.843994140625 131.33900451660156 148.39100646972656 131.7989959716797 146.93099975585938 C132.25799560546875 145.4709930419922 132.67999267578125 144.0050048828125 133.05499267578125 142.52999877929688 C133.4290008544922 141.05499267578125 133.75599670410156 139.5709991455078 134.0260009765625 138.0760040283203 C134.29600524902344 136.58099365234375 134.50799560546875 135.0749969482422 134.6529998779297 133.55499267578125 C134.79800415039062 132.03599548339844 134.875 130.5030059814453 134.875 128.9550018310547"></path>
<path fill="#DDC59E" fill-opacity="1.0"  filling="0" d="M126.2490005493164 64.53700256347656 C125.30000305175781 65.66500091552734 124.40299987792969 66.83000183105469 123.552001953125 68.0270004272461 C122.69999694824219 69.2239990234375 121.89199829101562 70.45099639892578 121.12000274658203 71.7030029296875 C120.3479995727539 72.95500183105469 119.61199951171875 74.23100280761719 118.90399932861328 75.52400207519531 C118.19499969482422 76.81800079345703 117.51399993896484 78.12899780273438 116.85099792480469 79.44999694824219 C116.18900299072266 80.77200317382812 115.54499816894531 82.10399627685547 114.91200256347656 83.44000244140625 C114.27799987792969 84.7750015258789 113.65499877929688 86.11499786376953 113.03399658203125 87.4520034790039 C112.83699798583984 87.8759994506836 112.64099884033203 88.37899780273438 112.86299896240234 88.79000091552734 C113.03800201416016 89.11499786376953 113.4219970703125 89.26499938964844 113.78399658203125 89.33499908447266 C114.8219985961914 89.53399658203125 115.82599639892578 89.27899932861328 116.7770004272461 88.80899810791016 C117.72699737548828 88.33799743652344 118.62200164794922 87.6510009765625 119.44200134277344 86.98500061035156 C120.65899658203125 85.99500274658203 121.88099670410156 84.9990005493164 123.04399871826172 83.94499969482422 C124.20700073242188 82.89099884033203 125.31099700927734 81.77899932861328 126.29499816894531 80.55699920654297 C127.2249984741211 79.40299987792969 128.03500366210938 78.16400146484375 128.77699279785156 76.88099670410156 C129.5189971923828 75.5979995727539 130.19200134277344 74.27100372314453 130.8459930419922 72.94100189208984 C131.31100463867188 71.99800109863281 131.6230010986328 70.56300354003906 131.73899841308594 69.052001953125 C131.85499572753906 67.54100036621094 131.77499389648438 65.9520034790039 131.45199584960938 64.69999694824219 C131.12899780273438 63.447998046875 130.56399536132812 62.53300476074219 129.71200561523438 62.36799621582031 C128.86000061035156 62.2030029296875 127.72100067138672 62.787994384765625 126.2490005493164 64.53700256347656"></path>
<path fill="#DDC59E" fill-opacity="1.0"  filling="0" d="M161.95799255371094 69.23500061035156 C162.52200317382812 70.08899688720703 162.9409942626953 71.01799774169922 163.29400634765625 71.97899627685547 C163.64599609375 72.94000244140625 163.9320068359375 73.93299865722656 164.22799682617188 74.91200256347656 C164.68699645996094 76.42900085449219 165.18099975585938 77.93599700927734 165.7100067138672 79.43099975585938 C166.23899841308594 80.9260025024414 166.802001953125 82.40899658203125 167.3979949951172 83.87799835205078 C167.9949951171875 85.34700012207031 168.62600708007812 86.802001953125 169.2899932861328 88.24199676513672 C169.9530029296875 89.68199920654297 170.64999389648438 91.10600280761719 171.3800048828125 92.51399993896484 C171.98199462890625 93.6760025024414 172.4969940185547 95.3489990234375 171.41299438476562 96.08300018310547 C170.8699951171875 96.45099639892578 170.14300537109375 96.37200164794922 169.51199340820312 96.19000244140625 C168.2239990234375 95.81800079345703 167.09800720214844 95.10299682617188 166.0970001220703 94.20800018310547 C165.0970001220703 93.31400299072266 164.2239990234375 92.23999786376953 163.44200134277344 91.1510009765625 C162.6439971923828 90.03900146484375 161.85899353027344 88.83399963378906 161.11700439453125 87.56099700927734 C160.37600708007812 86.28700256347656 159.67799377441406 84.94499969482422 159.05299377441406 83.55699920654297 C158.42799377441406 82.16899871826172 157.8769989013672 80.73600006103516 157.42999267578125 79.28099822998047 C156.98199462890625 77.82599639892578 156.63800048828125 76.3489990234375 156.42799377441406 74.8740005493164 C156.21800231933594 73.39900207519531 156.14100646972656 71.92500305175781 156.22799682617188 70.47799682617188 C156.3159942626953 69.02999877929688 156.56700134277344 67.60700225830078 157.01199340820312 66.23400115966797 C158.0290069580078 66.17400360107422 158.9929962158203 66.51200103759766 159.83900451660156 67.07099914550781 C160.68600463867188 67.62999725341797 161.41400146484375 68.41000366210938 161.95799255371094 69.23500061035156"></path>
<path fill="#DDC59E" fill-opacity="1.0"  filling="0" d="M96.41100311279297 101.95099639892578 C95.7760009765625 102.66500091552734 95.10099792480469 103.49600219726562 95.18399810791016 104.447998046875 C95.24800109863281 104.94100189208984 95.8280029296875 105.22599792480469 96.31999969482422 105.15499877929688 C96.81199645996094 105.08300018310547 97.22599792480469 104.76100158691406 97.61399841308594 104.45099639892578 C98.72799682617188 103.55999755859375 99.84200286865234 102.66999816894531 100.95600128173828 101.77899932861328 C102.07099914550781 100.88800048828125 103.18499755859375 99.99700164794922 104.29900360107422 99.10700225830078 C105.41300201416016 98.21600341796875 106.52799987792969 97.32499694824219 107.64199829101562 96.43399810791016 C108.75599670410156 95.54399871826172 109.87100219726562 94.65299987792969 110.98500061035156 93.76200103759766 C112.0989990234375 92.87200164794922 113.21299743652344 91.98100280761719 114.3280029296875 91.08999633789062 C115.44200134277344 90.1989974975586 116.55599975585938 89.30899810791016 117.66999816894531 88.41799926757812 C118.6510009765625 87.63400268554688 119.81999969482422 86.4469985961914 120.37999725341797 85.19000244140625 C120.93900299072266 83.93299865722656 120.88899993896484 82.60700225830078 119.42900085449219 81.5479965209961 C117.99099731445312 80.50499725341797 116.53099822998047 81.00399780273438 115.21099853515625 81.98799896240234 C113.89199829101562 82.97200012207031 112.71499633789062 84.44000244140625 111.84400177001953 85.33499908447266 C110.79000091552734 86.41799926757812 109.74099731445312 87.50700378417969 108.6969985961914 88.60099792480469 C107.65399932861328 89.69499969482422 106.61499786376953 90.79499816894531 105.58200073242188 91.89800262451172 C104.54900360107422 93.00199890136719 103.52100372314453 94.11100006103516 102.49700164794922 95.2239990234375 C101.4729995727539 96.33699798583984 100.45500183105469 97.4540023803711 99.44000244140625 98.57599639892578 C98.4260025024414 99.6969985961914 97.41600036621094 100.8219985961914 96.41100311279297 101.95099639892578"></path>
<path fill="#DDC59E" fill-opacity="1.0"  filling="0" d="M95.50399780273438 103.11799621582031 C94.49400329589844 103.97599792480469 93.6510009765625 105.0250015258789 93.01699829101562 106.18900299072266 C92.38300323486328 107.35299682617188 91.95899963378906 108.62999725341797 91.78700256347656 109.94400024414062 C91.60199737548828 111.3479995727539 91.80000305175781 112.98600006103516 92.947998046875 113.81300354003906 C93.26499938964844 112.74800109863281 93.58100128173828 111.68399810791016 93.89700317382812 110.61900329589844 C94.21399688720703 109.55400085449219 94.52999877929688 108.48899841308594 94.84600067138672 107.42400360107422 C94.9990005493164 108.02100372314453 95.1520004272461 108.61799621582031 95.30500030517578 109.21499633789062 C95.41000366210938 109.625 95.73899841308594 110.14700317382812 96.11499786376953 109.9530029296875 C96.23999786376953 109.88800048828125 96.31400299072266 109.75700378417969 96.37999725341797 109.63300323486328 C97.08999633789062 108.30699920654297 97.74600219726562 106.9520034790039 98.34500122070312 105.5719985961914 C98.94400024414062 104.19200134277344 99.48699951171875 102.78700256347656 99.97100067138672 101.36299896240234 C99.0479965209961 101.17400360107422 98.07599639892578 101.3290023803711 97.23100280761719 101.74400329589844 C96.38700103759766 102.15799713134766 95.66899871826172 102.83200073242188 95.25399780273438 103.6780014038086 L95.50399780273438 103.11799621582031"></path>
<path fill="#3B3B3C" fill-opacity="1.0"  filling="0" d="M140.6909942626953 47.46400451660156 C140.89700317382812 46.52250289916992 141.14149475097656 45.59575271606445 141.42800903320312 44.73362731933594 C141.71450805664062 43.87150192260742 142.04299926757812 43.07400131225586 142.41700744628906 42.39099884033203 C143.1649932861328 41.025001525878906 144.093994140625 40.11700439453125 145.23500061035156 40.06700134277344 C145.83399963378906 40.04100036621094 146.3679962158203 40.425994873046875 146.81500244140625 40.82600402832031 C147.86000061035156 41.762001037597656 148.71099853515625 42.85900115966797 149.40899658203125 44.058998107910156 C150.1060028076172 45.25999450683594 150.6510009765625 46.563995361328125 151.08200073242188 47.912994384765625 C151.51300048828125 49.262001037597656 151.8300018310547 50.65599822998047 152.0749969482422 52.03700256347656 C152.31900024414062 53.417999267578125 152.50599670410156 54.81300354003906 152.697998046875 56.20600128173828 C152.88999938964844 57.5989990234375 153.08599853515625 58.99000549316406 153.35000610351562 60.36500549316406 C153.61399841308594 61.73899841308594 153.94400024414062 63.09700012207031 154.4040069580078 64.4209976196289 C154.84500122070312 65.69300079345703 155.4250030517578 66.95700073242188 156.39300537109375 67.89299774169922 C157.41200256347656 68.87999725341797 158.7760009765625 69.42400360107422 159.91000366210938 70.2770004272461 C161.04600524902344 71.13099670410156 161.9810028076172 72.3010025024414 162.8800048828125 73.49600219726562 C163.7790069580078 74.69000244140625 164.64199829101562 75.90799713134766 165.63499450683594 76.85800170898438 C166.6269989013672 77.80799865722656 167.74899291992188 78.48999786376953 169.16400146484375 78.61100006103516 C169.36900329589844 77.10900115966797 169.05999755859375 75.64600372314453 168.5959930419922 74.19499969482422 C168.13099670410156 72.74299621582031 167.51100158691406 71.3030014038086 167.09300231933594 69.84600067138672 C166.69500732421875 68.45600128173828 166.47999572753906 67.02799987792969 166.3260040283203 65.58799743652344 C166.1719970703125 64.14900207519531 166.0780029296875 62.69599914550781 165.92100524902344 61.25700378417969 C165.76499938964844 59.81800079345703 165.54600524902344 58.391998291015625 165.14100646972656 57.003997802734375 C164.7530059814453 55.66999816894531 164.20599365234375 54.410003662109375 163.56199645996094 53.194000244140625 C162.91900634765625 51.97700500488281 162.1790008544922 50.80400085449219 161.4040069580078 49.64500427246094 C160.62899780273438 48.486000061035156 159.81900024414062 47.34199523925781 159.03700256347656 46.18299865722656 C158.25399780273438 45.02400207519531 157.4980010986328 43.849998474121094 156.83099365234375 42.63200378417969 C156.2760009765625 41.61799621582031 155.77999877929688 40.569000244140625 155.25399780273438 39.537994384765625 C154.72799682617188 38.50700378417969 154.17300415039062 37.4949951171875 153.4980010986328 36.555999755859375 C152.82949829101562 35.6254997253418 152.14125061035156 34.90399932861328 151.4429931640625 34.365997314453125 C150.7447509765625 33.827999114990234 150.0364990234375 33.4734992980957 149.3280029296875 33.277000427246094 C147.91099548339844 32.884002685546875 146.4929962158203 33.12300109863281 145.1490020751953 33.79199981689453 C143.80499267578125 34.459999084472656 142.53599548339844 35.55699920654297 141.41799926757812 36.8800048828125 C140.8590087890625 37.54100036621094 140.33799743652344 38.25849914550781 139.8642578125 39.00699996948242 C139.3905029296875 39.75550079345703 138.9639892578125 40.53499984741211 138.593994140625 41.31999969482422 C137.85499572753906 42.88999938964844 137.34300231933594 44.48199462890625 137.13499450683594 45.891998291015625 C136.95799255371094 47.08799743652344 136.87399291992188 48.352996826171875 136.94700622558594 49.59100341796875 C137.0189971923828 50.82899475097656 137.24899291992188 52.03900146484375 137.69900512695312 53.12300109863281 C138.14999389648438 54.20800018310547 138.82200622558594 55.16699981689453 139.781005859375 55.90299987792969 C139.73899841308594 55.19499969482422 139.7790069580078 53.938995361328125 139.92300415039062 52.43299865722656 C139.99549865722656 51.68000030517578 140.09375 50.864749908447266 140.2207489013672 50.02425003051758 C140.34774780273438 49.18375015258789 140.5034942626953 48.31800079345703 140.6909942626953 47.46400451660156"></path>
<path fill="#DDC59E" fill-opacity="1.0"  filling="0" d="M154.08099365234375 93.58300018310547 C152.5959930419922 92.97100067138672 151.1009979248047 92.35399627685547 149.7449951171875 91.49299621582031 C149.11300659179688 91.09100341796875 148.4810028076172 90.59400177001953 148.23599243164062 89.88600158691406 C147.99099731445312 89.1780014038086 148.3209991455078 88.23200225830078 149.05299377441406 88.072998046875 C149.35000610351562 88.00800323486328 149.65899658203125 88.0790023803711 149.9550018310547 88.14900207519531 C151.56199645996094 88.53099822998047 153.1699981689453 88.91200256347656 154.77699279785156 89.29399871826172 C155.38099670410156 89.43800354003906 156.48199462890625 89.67400360107422 157.84800720214844 90.0 C159.21400451660156 90.32599639892578 160.8459930419922 90.74099731445312 162.51400756835938 91.24099731445312 C163.3485107421875 91.49099731445312 164.1922607421875 91.76224517822266 165.01651000976562 92.05424499511719 C165.84075927734375 92.34624481201172 166.6455078125 92.65899658203125 167.40199279785156 92.99199676513672 C168.9149932861328 93.65799713134766 170.23500061035156 94.40499877929688 171.13400268554688 95.22899627685547 C172.0330047607422 96.0530014038086 172.50999450683594 96.9540023803711 172.33700561523438 97.927001953125 C172.13800048828125 99.04499816894531 171.03599548339844 99.38999938964844 169.4600067138672 99.26399993896484 C168.67250061035156 99.20050048828125 167.76649475097656 99.01950073242188 166.79562377929688 98.75875091552734 C165.8247528076172 98.49800109863281 164.78900146484375 98.15750122070312 163.74200439453125 97.7750015258789 C162.69500732421875 97.39199829101562 161.63699340820312 96.96725463867188 160.6216278076172 96.53825378417969 C159.6062469482422 96.1092529296875 158.6334991455078 95.67599487304688 157.7570037841797 95.2760009765625 C156.00399780273438 94.47699737548828 154.63600158691406 93.81099700927734 154.08099365234375 93.58300018310547"></path>
<path fill="#DDC59E" fill-opacity="1.0"  filling="0" d="M155.97999572753906 92.6520004272461 C154.86700439453125 93.49199676513672 153.66099548339844 94.1050033569336 152.41299438476562 94.48400115966797 C151.16600036621094 94.86399841308594 149.8769989013672 95.00900268554688 148.59800720214844 94.91600036621094 C147.3179931640625 94.8219985961914 146.04800415039062 94.48899841308594 144.83900451660156 93.91100311279297 C144.0659942626953 93.54199981689453 143.1739959716797 92.72699737548828 143.3560028076172 91.66000366210938 C143.52499389648438 90.66899871826172 144.46400451660156 90.39900207519531 145.2220001220703 90.32599639892578 C146.53799438476562 90.1989974975586 147.85400390625 90.0719985961914 149.16900634765625 89.94499969482422 C150.48500061035156 89.81800079345703 151.80099487304688 89.69100189208984 153.11700439453125 89.56400299072266 C153.7989959716797 89.49800109863281 154.50799560546875 89.43800354003906 155.14599609375 89.77400207519531 C155.78399658203125 90.11100006103516 156.3260040283203 90.97000122070312 156.22799682617188 91.87699890136719 C156.26800537109375 92.25399780273438 155.7469940185547 92.39099884033203 155.6750030517578 92.02100372314453 L155.97999572753906 92.6520004272461"></path></svg>